<svg width="315" height="169" viewBox="0 0 315 169" fill="none" xmlns="http://www.w3.org/2000/svg">
<path d="M274.68 0L255.321 39.0614L261.101 39.2812L244.696 70.3168H253.311L239.874 97.8939H315L298.458 70.3168L306.386 69.9733L290.53 38.9514L296.388 38.6078L274.68 0Z" fill="#F5F5F5"/>
<path d="M277.954 45.3097C278.064 45.3097 277.913 68.8922 277.615 97.9763C277.318 127.07 276.837 153.927 276.837 153.818C276.8 147.597 276.915 127.065 277.212 97.9717C277.51 68.8876 277.844 45.3051 277.954 45.3097V45.3097Z" fill="#E0E0E0"/>
<path d="M287.16 55.351C287.247 55.4197 285.319 58.0675 282.85 61.2696C280.382 64.4716 278.312 67.014 278.22 66.9453C278.133 66.8766 280.061 64.2288 282.53 61.0268C284.998 57.8247 287.068 55.2823 287.155 55.351H287.16Z" fill="#E0E0E0"/>
<path d="M277.771 66.1162C277.703 66.2032 275.797 64.8289 273.512 63.0516C271.227 61.2696 269.432 59.7579 269.5 59.6708C269.569 59.5838 271.474 60.9581 273.759 62.7355C276.045 64.5174 277.84 66.0291 277.771 66.1162Z" fill="#E0E0E0"/>
<path d="M277.254 85.2781C277.213 85.3193 276.681 84.8841 275.829 84.1649C274.978 83.4457 273.805 82.4563 272.491 81.3843C271.176 80.3124 269.967 79.3641 269.093 78.6724C268.218 77.9807 267.682 77.5455 267.714 77.4997C267.746 77.4539 268.342 77.8112 269.262 78.4434C270.183 79.0756 271.424 79.9963 272.747 81.0728C274.066 82.1493 275.22 83.18 276.022 83.9542C276.828 84.7284 277.295 85.2414 277.258 85.2781H277.254Z" fill="#E0E0E0"/>
<path d="M287.169 73.4364C287.256 73.5051 285.14 76.2812 282.447 79.6344C279.75 82.9876 277.496 85.6537 277.409 85.585C277.322 85.5163 279.438 82.7402 282.131 79.387C284.824 76.0338 287.082 73.3677 287.169 73.441V73.4364Z" fill="#E0E0E0"/>
<path d="M54.7921 0L37.1555 35.589L42.4222 35.786L27.4739 64.0685H35.3236L23.0819 89.1902H91.5263L76.4544 64.0685L83.6766 63.7524L69.2367 35.4882L74.5721 35.1722L54.7921 0Z" fill="#F5F5F5"/>
<path d="M57.7736 41.2831C57.8743 41.2831 57.7369 62.7721 57.4621 89.268C57.1919 115.773 56.8897 145.815 56.7843 145.815C56.6836 145.815 56.821 115.773 57.0958 89.268C57.366 62.7721 57.6682 41.2831 57.7736 41.2877V41.2831Z" fill="#E0E0E0"/>
<path d="M66.1636 50.4311C66.2415 50.4907 64.4874 52.9094 62.2388 55.8229C59.9901 58.7409 58.1032 61.0543 58.0208 60.9947C57.9429 60.9352 59.697 58.5164 61.9502 55.5984C64.1989 52.6804 66.0857 50.367 66.1682 50.4266L66.1636 50.4311Z" fill="#E0E0E0"/>
<path d="M57.6086 60.2389C57.5445 60.3167 55.8088 59.0662 53.7296 57.4445C51.6458 55.8229 50.0108 54.444 50.0749 54.3616C50.1391 54.2837 51.8748 55.5343 53.954 57.1559C56.0332 58.7776 57.6728 60.1564 57.6086 60.2389Z" fill="#E0E0E0"/>
<path d="M57.1415 77.6967C57.1049 77.7333 56.6195 77.3348 55.8409 76.6843C55.0669 76.0292 53.9953 75.1268 52.7954 74.151C51.5955 73.1753 50.4963 72.3095 49.6994 71.6819C48.9026 71.0544 48.4125 70.6558 48.4446 70.6146C48.4721 70.5734 49.0125 70.8986 49.8552 71.4758C50.6933 72.053 51.8245 72.8913 53.0289 73.8716C54.2334 74.8519 55.2822 75.791 56.0149 76.4965C56.7477 77.2019 57.1736 77.6692 57.1415 77.7012V77.6967Z" fill="#E0E0E0"/>
<path d="M66.1728 66.9041C66.2506 66.9682 64.3226 69.4969 61.8678 72.5523C59.4131 75.6078 57.3567 78.0357 57.2789 77.9715C57.201 77.9074 59.1245 75.3787 61.5839 72.3233C64.0386 69.2678 66.0949 66.8399 66.1728 66.9041Z" fill="#E0E0E0"/>
<path d="M24.4238 47.6185L10.8403 75.0306L14.8979 75.1863L3.38444 96.9639H9.42971L0 116.318H49.6903L41.1124 96.9639L46.6723 96.7257L35.548 74.9527L39.6607 74.7099L24.4238 47.6185Z" fill="#EBEBEB"/>
<path d="M26.7229 79.4145C26.8007 79.4145 26.6954 95.9653 26.4847 116.373C26.2741 136.79 26.0405 153.332 25.9626 153.332C25.8848 153.332 25.9901 136.786 26.2008 116.369C26.4114 95.9607 26.645 79.4099 26.7229 79.4099V79.4145Z" fill="#E0E0E0"/>
<path d="M33.1849 86.4645C33.2444 86.5103 31.8934 88.3702 30.1623 90.6194C28.4311 92.8686 26.9748 94.6506 26.9152 94.6002C26.8557 94.5544 28.2067 92.6945 29.9379 90.4453C31.669 88.2007 33.1254 86.4141 33.1849 86.4645Z" fill="#E0E0E0"/>
<path d="M26.5946 94.0184C26.5488 94.078 25.2069 93.116 23.604 91.8654C22.0011 90.6148 20.7417 89.552 20.7875 89.4925C20.8333 89.4329 22.1751 90.3949 23.778 91.6455C25.381 92.8961 26.6404 93.9589 26.5946 94.0184Z" fill="#E0E0E0"/>
<path d="M26.2328 107.463C26.2054 107.491 25.8298 107.184 25.2345 106.685C24.6391 106.181 23.8147 105.484 22.8896 104.733C21.9645 103.982 21.1173 103.313 20.5036 102.832C19.8899 102.347 19.5143 102.044 19.5372 102.008C19.5601 101.975 19.9769 102.227 20.6226 102.672C21.2684 103.116 22.1385 103.762 23.0682 104.518C23.9933 105.274 24.804 105.997 25.3673 106.543C25.9306 107.088 26.2603 107.445 26.2328 107.473V107.463Z" fill="#E0E0E0"/>
<path d="M33.1895 99.1536C33.249 99.204 31.7652 101.151 29.8737 103.505C27.9823 105.86 26.3977 107.729 26.3382 107.679C26.2786 107.628 27.7625 105.681 29.6539 103.327C31.5453 100.972 33.1254 99.1032 33.1895 99.1536Z" fill="#E0E0E0"/>
<path d="M260.231 153.95C242.333 167.363 218.321 169.269 196.036 167.395C173.751 165.522 151.604 160.387 129.282 161.715C116.637 162.466 104.157 165.284 91.4943 165.508C78.8313 165.732 65.3943 162.947 56.2394 154.198L260.231 153.955V153.95Z" fill="#F5F5F5"/>
<path d="M91.7691 25.6256H152.24C152.24 25.6256 146.891 15.8912 131.324 17.3067C116.459 18.658 115.703 12.5196 108.142 11.7638C100.581 11.0079 94.2834 16.8028 91.7645 25.6256H91.7691Z" fill="#EBEBEB"/>
<path d="M145.622 42.2726H178.597C178.597 42.2726 175.679 36.9633 167.193 37.7375C159.087 38.475 158.675 35.1263 154.553 34.7141C150.431 34.3018 146.996 37.4626 145.622 42.2726Z" fill="#F5F5F5"/>
</svg>
