<svg width="281" height="90" viewBox="0 0 281 90" fill="none" xmlns="http://www.w3.org/2000/svg">
<path d="M277.358 43.5033C281.809 48.3499 282.116 55.7847 277.898 60.8374C276.089 63.0042 273.785 64.7816 271.111 65.9909L248.606 76.133L232.71 78.593L24.6698 77.2737L11.6358 74.7221C5.35241 73.4944 0.845933 67.9378 0.937528 61.5337L1.07034 52.4727C1.08866 51.0801 2.00461 49.8616 3.33732 49.4539L4.26243 49.1698C4.26243 49.1698 5.03183 40.2875 10.3901 38.2765C29.9136 29.8613 42.8423 27.1586 75.5234 25.7935L103.126 9.28851C103.126 9.28851 114.268 2.16521 124.655 1.2307C135.042 0.296199 158.536 0.282453 169.308 0.905456C181.952 1.63382 198 7.38744 206.944 11.8263C213.951 15.3032 230.818 23.8924 230.818 23.8924L240.358 25.4912C241.791 25.5599 268.143 27.1678 271.17 27.6304C272.952 27.9053 275.21 29.2429 275.965 31.7487C276.721 34.2498 277.358 43.4346 277.358 43.4346" fill="#01B9C1"/>
<path d="M196.804 12.3028C192.307 10.0535 180.244 6.95226 173.498 5.68793C166.752 4.4236 153.04 4.24953 147.563 4.38696C142.081 4.52896 126.867 4.79008 118.839 7.06679C114.712 8.2395 108.081 11.6752 104.17 14.552C102.814 15.5506 96.9154 20.1727 95.5964 21.2218L85.3835 30.7546L210.864 26.7922C210.864 26.7922 211.588 22.4174 209.33 19.8979C207.072 17.3784 196.804 12.2982 196.804 12.2982V12.3028Z" fill="#263238"/>
<path d="M10.6741 48.6293L4.32654 48.5377C4.57384 46.8244 5.41194 42.271 8.12315 39.724L16.527 39.8431C18.0612 39.866 18.9863 41.5472 18.1803 42.8574L16.6507 45.3448C15.3775 47.4199 13.1013 48.6659 10.6695 48.6339L10.6741 48.6293Z" fill="#FAFAFA"/>
<path d="M11.4435 48.2491C12.1029 45.4501 12.9365 41.7763 15.295 39.8248L16.5316 39.8431C18.0658 39.866 18.9909 41.5472 18.1849 42.8574L16.6552 45.3448C15.5011 47.223 13.5272 48.414 11.3564 48.5972C11.3839 48.4827 11.4114 48.3682 11.4435 48.2491Z" fill="#E0E0E0"/>
<g opacity="0.7">
<path d="M73.0366 77.6539C73.6915 74.4702 73.8655 71.1215 73.4671 67.7225C71.8275 53.6271 62.5947 43.4849 48.6585 43.2834C36.5268 43.1093 26.5063 50.6907 24.4591 64.7312C23.8454 68.9319 24.0195 73.2379 24.8805 77.3287L73.0366 77.6539Z" fill="black"/>
</g>
<g opacity="0.7">
<path d="M248.592 76.188C248.574 75.6704 248.528 75.139 248.524 74.5893C248.276 56.8016 236.346 44.479 222.158 44.2729C209.193 44.085 198.494 54.4837 198.307 67.4522C198.252 71.4101 198.059 75.139 198.526 78.4189L232.696 78.6479L248.592 76.188Z" fill="black"/>
</g>
<path d="M201.329 67.498C201.164 78.8129 210.205 88.1213 221.521 88.2862C232.833 88.4511 242.139 79.4084 242.304 68.089C242.469 56.7696 233.429 47.4657 222.112 47.3008C210.8 47.1359 201.494 56.1786 201.329 67.498Z" fill="#263238"/>
<path d="M201.334 67.4431C201.334 67.4431 201.334 67.4797 201.334 67.498C201.169 78.8129 210.209 88.1212 221.526 88.2862C232.838 88.4511 242.144 79.4084 242.309 68.089C242.309 68.0706 242.309 68.0523 242.309 68.034L201.343 67.4431H201.334Z" fill="#263238"/>
<path d="M207.434 67.5851C207.32 75.5284 213.667 82.0653 221.608 82.1798C229.55 82.2944 236.085 75.9452 236.199 68.0019C236.314 60.0587 229.966 53.5217 222.025 53.4072C214.084 53.2927 207.549 59.6418 207.434 67.5851Z" fill="#FAFAFA"/>
<path d="M222.025 53.4072C214.084 53.2927 207.549 59.6418 207.434 67.5851L236.2 68.0019C236.314 60.0587 229.966 53.5217 222.025 53.4072Z" fill="#E0E0E0"/>
<path d="M213.058 67.6629C212.989 72.505 216.855 76.4812 221.691 76.5545C226.532 76.6232 230.507 72.7569 230.58 67.9195C230.649 63.0775 226.784 59.1012 221.947 59.0279C217.111 58.9592 213.131 62.8255 213.058 67.6629Z" fill="#263238"/>
<path d="M49.9801 88.8034C61.2849 88.2959 70.0379 78.7177 69.5305 67.4101C69.0231 56.1024 59.4474 47.3472 48.1425 47.8547C36.8377 48.3623 28.0847 57.9404 28.5921 69.2481C29.0995 80.5557 38.6752 89.3109 49.9801 88.8034Z" fill="#263238"/>
<path d="M28.59 67.9698C28.59 67.9698 28.59 68.0065 28.59 68.0248C28.4251 79.3397 37.4656 88.648 48.7821 88.813C60.0941 88.9779 69.4002 79.9352 69.565 68.6158C69.565 68.5974 69.565 68.5791 69.565 68.5608L28.5991 67.9698H28.59Z" fill="#263238"/>
<path d="M34.6902 68.1118C34.5758 76.0551 40.9233 82.5921 48.8646 82.7066C56.8059 82.8211 63.3412 76.472 63.4557 68.5287C63.5702 60.5854 57.2226 54.0485 49.2813 53.934C41.34 53.8194 34.8047 60.1686 34.6902 68.1118Z" fill="#FAFAFA"/>
<path d="M49.2768 53.934C41.3355 53.8194 34.8002 60.1686 34.6857 68.1118L63.4511 68.5287C63.5656 60.5854 57.2181 54.0485 49.2768 53.934Z" fill="#E0E0E0"/>
<path d="M40.3096 68.1943C40.2409 73.0363 44.1062 77.0126 48.9425 77.0858C53.7832 77.1546 57.7585 73.2883 57.8318 68.4508C57.9004 63.6088 54.0351 59.6326 49.1989 59.5593C44.3627 59.4906 40.3829 63.3569 40.3096 68.1943Z" fill="#263238"/>
<g opacity="0.4">
<path d="M9.43759 63.6226C9.40553 65.9176 8.24228 67.7637 6.84545 67.7454C5.44405 67.7271 4.34033 65.8489 4.37239 63.5539C4.40444 61.2588 5.5677 59.4127 6.96453 59.431C8.36593 59.4494 9.46965 61.3275 9.43759 63.6226Z" fill="black"/>
</g>
<path d="M277.358 43.5033C277.358 43.5033 277.22 43.5262 276.964 43.5353C276.675 43.5445 276.3 43.5582 275.833 43.5766C274.848 43.604 273.424 43.6315 271.665 43.7048C269.906 43.7644 267.813 43.8743 265.496 44.0621C263.183 44.2728 260.637 44.5431 258.036 45.1615C256.74 45.4868 255.494 45.8807 254.367 46.4305C253.236 46.971 252.252 47.6856 251.345 48.414C249.513 49.8386 248.13 51.4191 246.875 52.6605C245.634 53.9156 244.507 54.8181 243.664 55.3311C243.243 55.5877 242.904 55.7709 242.666 55.8717C242.428 55.9816 242.304 56.032 242.3 56.0229C242.286 55.9954 242.79 55.7755 243.605 55.2349C244.425 54.6944 245.515 53.7782 246.733 52.5139C247.965 51.2679 249.339 49.6554 251.184 48.2033C252.087 47.4657 253.094 46.7282 254.248 46.1739C255.398 45.6105 256.666 45.2074 257.976 44.8775C260.605 44.2499 263.165 43.9888 265.487 43.7919C267.814 43.6178 269.906 43.5307 271.67 43.4987C273.433 43.4529 274.857 43.4574 275.842 43.4666C276.309 43.4712 276.689 43.4758 276.978 43.4804C277.239 43.4849 277.371 43.4941 277.371 43.5078L277.358 43.5033Z" fill="#263238"/>
<g opacity="0.5">
<path d="M247.937 76.5545C247.937 76.5545 248.02 76.4949 248.185 76.3941C248.35 76.2888 248.588 76.1239 248.876 75.8857C249.444 75.3955 250.218 74.5435 250.772 73.215C251.345 71.8957 251.606 70.1137 251.436 68.0798C251.262 66.0459 250.795 63.7463 250.081 61.2772C249.348 58.8126 248.299 56.174 246.783 53.5583C245.263 50.9518 243.257 48.3636 240.692 46.1327C238.137 43.9064 235.022 42.0191 231.482 40.9563C227.947 39.8843 224.063 39.5774 220.166 39.9897C216.264 40.3974 212.522 41.4144 209.124 42.8619C205.73 44.3187 202.685 46.3114 200.39 48.8171C198.064 51.2954 196.493 54.1859 195.398 56.994C194.304 59.8159 193.676 62.5827 193.264 65.1205C193.063 66.394 192.912 67.6126 192.811 68.7669C192.696 69.9213 192.628 71.0162 192.673 72.0331C192.738 74.067 193.402 75.8078 194.446 76.8018C195.453 77.8325 196.594 78.1807 197.331 78.2311C198.087 78.2632 198.471 78.0982 198.476 78.1257C198.476 78.1257 198.38 78.1578 198.192 78.2082C198.004 78.254 197.711 78.2952 197.327 78.2906C196.575 78.2586 195.403 77.9242 194.363 76.8843C193.287 75.8811 192.591 74.0991 192.509 72.0423C192.454 71.0116 192.518 69.9076 192.623 68.7532C192.719 67.5942 192.866 66.3711 193.058 65.093C193.461 62.5415 194.079 59.7563 195.174 56.9116C195.724 55.4915 196.388 54.0577 197.207 52.6559C198.032 51.2541 199.026 49.8982 200.193 48.6385C202.515 46.1006 205.593 44.0759 209.014 42.6054C212.44 41.1395 216.204 40.118 220.138 39.7057C224.068 39.2888 227.997 39.6003 231.569 40.6906C235.151 41.7717 238.297 43.6865 240.875 45.9403C243.458 48.1987 245.478 50.8098 246.999 53.4438C248.519 56.087 249.563 58.7439 250.282 61.2268C250.992 63.7142 251.441 66.0184 251.606 68.0752C251.766 70.1275 251.482 71.9369 250.887 73.2654C250.31 74.6076 249.513 75.4551 248.927 75.9361C248.327 76.4125 247.947 76.559 247.947 76.559L247.937 76.5545Z" fill="white"/>
</g>
<path d="M24.8897 64.7266C24.8897 64.7266 24.6515 64.4472 24.2256 63.9433C23.8043 63.4394 23.1448 62.7476 22.238 62.0055C20.4382 60.5076 17.498 58.9592 13.9899 58.2354C10.4726 57.5117 7.19352 57.5712 4.84411 57.6491C3.66711 57.6949 2.71452 57.7499 2.05504 57.7865C1.39556 57.8232 1.02917 57.8323 1.02917 57.814C1.02917 57.8049 1.11619 57.7865 1.29022 57.7636C1.49631 57.7407 1.7482 57.7087 2.04588 57.672C2.70079 57.6033 3.65337 57.5163 4.83495 57.443C7.18436 57.3101 10.4909 57.2139 14.0494 57.9469C17.6079 58.6798 20.5847 60.2831 22.3708 61.8452C23.273 62.6194 23.9188 63.3386 24.3126 63.87C24.5233 64.1265 24.6515 64.351 24.7523 64.493C24.8485 64.6395 24.8943 64.7174 24.8851 64.722L24.8897 64.7266Z" fill="#263238"/>
<path d="M24.7614 49.4722C24.7614 49.5546 19.8702 49.5501 13.8387 49.463C7.80713 49.376 2.91596 49.2386 2.92054 49.1607C2.92054 49.0782 7.81171 49.0828 13.8432 49.1698C19.8748 49.2569 24.7614 49.3943 24.7614 49.4722Z" fill="#263238"/>
<g opacity="0.5">
<path d="M80.1993 75.5421C80.1993 75.5421 80.1901 75.4459 80.181 75.2627C80.1764 75.0657 80.1718 74.7908 80.1626 74.4381C80.1626 74.0762 80.1397 73.6319 80.1077 73.1005C80.0894 72.5737 80.0436 71.9644 79.9749 71.2819C79.7367 68.5516 79.1001 64.6029 77.4835 59.967C76.6775 57.6537 75.6058 55.18 74.2319 52.6513C72.8579 50.1227 71.2047 47.4978 69.0384 45.0974C66.8859 42.6879 64.0923 40.6402 60.8407 39.298C57.6028 37.9283 53.971 37.2091 50.2431 37.1175C48.3792 37.09 46.5381 37.2458 44.7383 37.516C42.9476 37.8275 41.2073 38.2581 39.5402 38.8216C37.8869 39.4217 36.2795 40.0676 34.8048 40.8967L34.246 41.1899L33.7056 41.5152C33.3484 41.7305 32.9912 41.9503 32.6385 42.1656C32.2996 42.3993 31.9607 42.6375 31.6218 42.8711L31.1181 43.2193L30.6418 43.5949C28.0863 45.5784 25.9796 47.8643 24.3721 50.2509C22.7509 52.6284 21.5739 55.0609 20.7495 57.3651C19.9206 59.6693 19.4397 61.8452 19.1603 63.7692C19.055 64.7358 18.9359 65.6336 18.9176 66.4719C18.8535 67.3056 18.8764 68.0661 18.881 68.7532C18.8672 69.4403 18.9542 70.045 18.9771 70.5718C19 71.0986 19.0687 71.543 19.1145 71.9003C19.1603 72.2484 19.1924 72.5187 19.2153 72.7157C19.2382 72.8989 19.2382 72.9951 19.2382 72.9951C19.2382 72.9951 19.2153 72.9035 19.1832 72.7203C19.1512 72.5233 19.11 72.253 19.0504 71.9094C18.9955 71.5521 18.9176 71.1078 18.881 70.581C18.8489 70.0542 18.7527 69.4449 18.7573 68.7578C18.7436 68.0706 18.7115 67.3056 18.7665 66.4673C18.7802 65.629 18.8901 64.7266 18.9863 63.7509C19.2519 61.8131 19.7191 59.6235 20.5434 57.301C21.3632 54.9784 22.5356 52.5231 24.1614 50.1227C25.7689 47.7131 27.8893 45.3952 30.4632 43.3933L30.944 43.0131L31.4524 42.6604C31.7913 42.4268 32.1302 42.1886 32.4737 41.9503C32.8309 41.735 33.1881 41.5152 33.5499 41.2953L34.0949 40.9655L34.6582 40.6677C36.1466 39.8248 37.7679 39.1697 39.4349 38.5651C41.1157 37.9924 42.8743 37.5573 44.6787 37.2458C46.4923 36.9755 48.3517 36.8197 50.234 36.8426C53.9939 36.9343 57.6623 37.6626 60.9368 39.0506C64.2251 40.4066 67.06 42.4955 69.2262 44.9325C71.4062 47.365 73.0595 50.0081 74.4334 52.5551C75.8073 55.1021 76.8744 57.5896 77.6667 59.9212C79.265 64.5846 79.8741 68.5562 80.0756 71.2956C80.2817 74.0396 80.1855 75.5604 80.1855 75.5604L80.1993 75.5421Z" fill="white"/>
</g>
<path d="M240.395 25.7706C240.395 25.7706 240.395 25.876 240.376 26.0729C240.344 26.302 240.308 26.5814 240.266 26.925C240.17 27.6625 240.014 28.7299 239.918 30.0537C239.827 31.373 239.795 32.9672 240.129 34.685C240.463 36.3937 241.297 38.1894 242.707 39.6278C244.109 41.0754 245.808 42.0557 247.415 42.7199C249.037 43.3842 250.584 43.7461 251.881 44.0163C253.186 44.2774 254.248 44.4378 254.986 44.5569C255.325 44.6119 255.604 44.6622 255.833 44.6989C256.025 44.7355 256.126 44.7584 256.126 44.7676C256.126 44.7768 256.021 44.7722 255.824 44.7584C255.595 44.7355 255.315 44.7081 254.967 44.6714C254.225 44.5844 253.154 44.4561 251.839 44.2179C250.53 43.9751 248.963 43.6315 247.31 42.9719C245.666 42.3122 243.93 41.3182 242.492 39.834C241.04 38.3589 240.188 36.4899 239.863 34.74C239.534 32.9855 239.588 31.3685 239.712 30.04C239.836 28.707 240.024 27.6442 240.156 26.9067C240.225 26.5402 240.28 26.2562 240.321 26.0638C240.362 25.8714 240.39 25.7706 240.399 25.7752L240.395 25.7706Z" fill="#263238"/>
<path d="M136.31 36.9846C136.31 36.9846 136.397 36.9663 136.562 36.9617C136.727 36.9617 136.974 36.9526 137.29 36.9984C137.602 37.0396 138.019 37.1999 138.284 37.603C138.555 37.9787 138.674 38.5879 138.403 39.1331C138.147 39.6736 137.588 40.0996 136.924 40.2829C136.26 40.4707 135.527 40.4295 134.79 40.3882C133.306 40.3058 131.68 40.2096 129.972 40.1134C129.542 40.0859 129.097 40.0447 128.685 39.8706C128.278 39.6965 127.902 39.385 127.755 38.9407C127.604 38.4963 127.751 38.0245 127.994 37.6901C128.236 37.3465 128.598 37.1037 128.965 36.98C129.711 36.7235 130.439 36.7785 131.094 36.7647C131.758 36.7647 132.372 36.7876 132.931 36.8106C134.016 36.8564 134.909 36.8976 135.582 36.9251C136.21 36.948 136.553 36.9571 136.558 36.9755C136.558 36.9846 136.471 36.9984 136.306 37.0075C136.141 37.0213 135.898 37.0304 135.582 37.035C134.955 37.0488 134.043 37.035 132.926 37.0121C132.367 37.003 131.754 36.9938 131.094 37.0029C130.439 37.0259 129.72 36.9892 129.056 37.2274C128.722 37.3419 128.429 37.5527 128.223 37.8458C128.012 38.1344 127.911 38.5101 128.026 38.8399C128.136 39.1743 128.442 39.4446 128.795 39.5912C129.152 39.7423 129.564 39.7836 129.986 39.811C131.689 39.9164 133.315 40.0172 134.799 40.1088C135.536 40.1592 136.237 40.2004 136.855 40.0401C137.465 39.8843 137.977 39.5041 138.211 39.0369C138.458 38.565 138.371 38.0382 138.138 37.6855C137.913 37.319 137.556 37.1633 137.258 37.1037C136.654 36.9938 136.297 37.0075 136.297 36.98L136.31 36.9846Z" fill="#263238"/>
<path d="M201.1 36.4487C201.1 36.4487 201.187 36.4304 201.352 36.4258C201.517 36.4258 201.764 36.4166 202.08 36.4624C202.392 36.5036 202.808 36.664 203.074 37.0671C203.344 37.4427 203.463 38.052 203.193 38.5971C202.937 39.1377 202.378 39.5637 201.714 39.7469C201.05 39.9347 200.317 39.8935 199.58 39.8523C198.096 39.7698 196.47 39.6736 194.762 39.5774C194.336 39.5499 193.887 39.5087 193.475 39.3346C193.067 39.1606 192.692 38.8491 192.545 38.4047C192.394 37.9604 192.541 37.4885 192.783 37.1541C193.026 36.8106 193.388 36.5678 193.754 36.4441C194.501 36.1876 195.229 36.2425 195.884 36.2288C196.548 36.2288 197.162 36.2517 197.72 36.2746C198.801 36.3204 199.699 36.3616 200.372 36.3891C200.999 36.412 201.343 36.4212 201.348 36.4395C201.348 36.4487 201.261 36.4624 201.096 36.4716C200.931 36.4853 200.688 36.4945 200.372 36.4991C199.745 36.5128 198.833 36.4991 197.716 36.4762C197.157 36.467 196.543 36.4578 195.884 36.467C195.229 36.4899 194.51 36.4533 193.846 36.6915C193.512 36.806 193.218 37.0167 193.012 37.3099C192.802 37.5985 192.701 37.9741 192.815 38.3039C192.925 38.6383 193.232 38.9086 193.585 39.0552C193.942 39.2064 194.354 39.2476 194.776 39.2751C196.479 39.3805 198.105 39.4812 199.589 39.5729C200.326 39.6232 201.027 39.6645 201.645 39.5041C202.254 39.3484 202.767 38.9682 203.001 38.5009C203.248 38.0291 203.161 37.5023 202.928 37.1496C202.699 36.7831 202.346 36.6273 202.048 36.5678C201.444 36.4578 201.086 36.4716 201.086 36.4441L201.1 36.4487Z" fill="#263238"/>
<path d="M210.864 26.7967C210.864 26.7967 210.846 26.8838 210.8 27.0578C210.754 27.2319 210.686 27.4884 210.594 27.8183C210.406 28.4917 210.132 29.4857 209.774 30.7821C209.046 33.3795 207.984 37.177 206.628 42.0007L206.619 42.0282L206.591 42.042C204.503 43.0177 202.328 44.392 200.29 46.2472C199.255 47.1543 198.293 48.2262 197.354 49.3714C196.429 50.5304 195.577 51.8085 194.785 53.1781C193.223 55.9267 191.982 59.0783 191.107 62.4957C190.251 65.913 189.692 69.6098 189.688 73.4532V73.5632H189.582C176.022 73.5632 160.308 73.5723 143.638 73.5769C121.335 73.5677 100.744 73.5586 84.3761 73.554H84.2937L84.2845 73.4715C82.7961 61.3184 81.8572 51.3137 81.2939 44.3462C81.01 40.8647 80.8131 38.1436 80.6894 36.2929C80.6299 35.3722 80.5841 34.6667 80.552 34.1857C80.5245 33.7093 80.5154 33.4619 80.5154 33.4619C80.5154 33.4619 80.5429 33.7047 80.5795 34.1811C80.6161 34.6621 80.6711 35.3676 80.7444 36.2884C80.8955 38.1436 81.1199 40.8601 81.4039 44.337C82.0038 51.2954 82.9701 61.3001 84.4769 73.444L84.3807 73.3616C100.753 73.357 121.339 73.3478 143.643 73.3387C160.313 73.3433 176.026 73.3478 189.587 73.3524L189.481 73.4624C189.486 69.5824 190.054 65.8856 190.924 62.4499C191.808 59.0188 193.058 55.8534 194.638 53.0911C195.44 51.7168 196.296 50.4296 197.23 49.2706C198.178 48.1208 199.145 47.0489 200.189 46.1373C202.245 44.2774 204.434 42.9032 206.536 41.932L206.5 41.9733C207.878 37.1541 208.964 33.3612 209.701 30.7684C210.072 29.4811 210.361 28.4871 210.553 27.8137C210.649 27.4839 210.722 27.2319 210.777 27.0578C210.828 26.8883 210.86 26.8013 210.86 26.8013L210.864 26.7967Z" fill="#263238"/>
<path d="M144.82 29.1192C144.82 29.1192 144.82 29.1605 144.82 29.2338C144.811 29.3254 144.797 29.4353 144.783 29.5682C144.746 29.8797 144.691 30.3103 144.623 30.8508C144.549 31.4097 144.458 32.0877 144.38 32.8847C144.298 33.6772 144.183 34.5797 144.101 35.5829C144.009 36.5815 143.908 37.6764 143.84 38.8582C143.748 40.0355 143.702 41.2953 143.643 42.6237C143.556 45.2761 143.533 48.1987 143.629 51.2587C143.739 54.3234 143.959 57.2322 144.224 59.8754C144.375 61.1947 144.504 62.4499 144.678 63.618C144.824 64.7907 144.998 65.8764 145.159 66.8659C145.305 67.8599 145.479 68.7532 145.617 69.5365C145.749 70.3245 145.887 70.9978 145.997 71.5476C146.102 72.0835 146.184 72.5095 146.244 72.8165C146.267 72.9493 146.285 73.0593 146.303 73.1463C146.317 73.2196 146.317 73.2608 146.317 73.2608C146.317 73.2608 146.304 73.2242 146.281 73.1509C146.258 73.0638 146.23 72.9585 146.198 72.8256C146.129 72.5187 146.029 72.0973 145.91 71.5659C145.781 71.0162 145.635 70.3474 145.488 69.5594C145.337 68.7761 145.149 67.8828 144.994 66.8888C144.824 65.8993 144.641 64.8091 144.485 63.6409C144.307 62.4728 144.169 61.213 144.009 59.8937C143.73 57.2506 143.501 54.3325 143.391 51.2633C143.295 48.1941 143.322 45.2715 143.423 42.61C143.492 41.2815 143.542 40.0172 143.643 38.8399C143.721 37.658 143.83 36.5632 143.931 35.5646C144.023 34.5613 144.146 33.6635 144.243 32.8664C144.334 32.0739 144.44 31.3914 144.527 30.8371C144.614 30.2965 144.682 29.8705 144.733 29.559C144.756 29.4262 144.774 29.3162 144.792 29.2292C144.806 29.1559 144.815 29.1147 144.82 29.1192Z" fill="#263238"/>
<path d="M81.0558 27.8137C79.5857 28.9131 77.4011 29.188 75.6059 28.8215C73.806 28.455 72.3954 27.6167 71.4703 26.0317L75.5005 25.8531L81.0512 27.8183L81.0558 27.8137Z" fill="#263238"/>
<path d="M75.5051 25.8485C75.5051 25.8485 79.5674 28.3267 80.7535 27.9878C81.9351 27.6488 100.891 12.6601 112.331 6.87437C112.331 6.87437 110.824 6.26511 108.855 6.08646C108.855 6.08646 103.533 8.78003 96.8926 12.7792C91.8411 15.8209 86.7026 19.0092 84.2983 20.4751C79.0453 23.6863 75.5051 25.8485 75.5051 25.8485Z" fill="#455A64"/>
<path d="M88.5116 29.0276C88.5116 29.0276 88.4704 29.0597 88.3788 29.1101C88.2826 29.1651 88.1498 29.2429 87.9804 29.3437C87.6186 29.5498 87.0965 29.8476 86.4233 30.2278C85.0493 30.9974 83.0571 32.1152 80.552 33.5215L80.5337 33.5306H80.5108C76.8287 33.3978 72.1024 33.3016 66.6891 33.5215C63.9825 33.636 61.1064 33.833 58.1066 34.1353C55.1115 34.4468 51.9927 34.8683 48.8006 35.3768C43.2087 36.2517 37.9328 37.3511 33.1103 38.2352C28.2787 39.101 23.8776 39.5866 20.1725 39.7882C16.4675 40.0035 13.4586 39.9485 11.3886 39.8844C10.3535 39.8523 9.54751 39.8111 9.00252 39.779C8.73689 39.7607 8.53081 39.7515 8.38425 39.7378C8.24686 39.7286 8.17358 39.7149 8.17358 39.7149C8.17358 39.7149 8.24686 39.7103 8.38425 39.7149C8.53539 39.7149 8.74147 39.724 9.0071 39.7286C9.55209 39.7469 10.3581 39.7744 11.3932 39.7927C13.4632 39.8248 16.4675 39.8523 20.1634 39.6187C23.8592 39.3988 28.2512 38.8949 33.0737 38.0199C37.8916 37.1221 43.1721 36.0135 48.7685 35.1431C51.9652 34.6346 55.084 34.2132 58.0883 33.9063C61.0926 33.6039 63.9733 33.4161 66.6845 33.3062C72.1069 33.1 76.8378 33.2191 80.52 33.3795L80.4787 33.3886C83.0022 32.0052 85.0035 30.9104 86.3866 30.1545C87.0644 29.7881 87.5957 29.504 87.962 29.3025C88.1361 29.2109 88.2689 29.1421 88.3697 29.0872C88.4612 29.0414 88.5116 29.0185 88.5116 29.0185V29.0276Z" fill="#263238"/>
<path d="M92.8302 29.4994C121.628 28.2122 179.717 27.1449 208.515 25.8576C208.515 25.8576 209.467 22.6922 206.756 20.7179C205.767 19.9987 199.79 15.4727 192.806 12.8066C181.847 8.62428 170.672 6.95683 166.202 6.59035C161.073 6.16891 151.689 5.79327 151.689 5.79327C151.689 5.79327 134.511 6.48041 129.716 6.91102C122.654 7.54776 116.723 9.47174 112.331 11.6431C106.327 14.6161 95.8803 23.3656 95.8803 23.3656L88.5344 29.4949H92.8302V29.4994Z" fill="#455A64"/>
<path d="M145.827 4.94122L140.267 28.7115L150.347 28.3909L152.349 4.94122H145.827Z" fill="#263238"/>
<path d="M189.394 10.6949L188.419 26.7967H189.82L190.764 11.1987L189.394 10.6949Z" fill="#263238"/>
<path d="M93.9203 24.0482C94.3645 24.6437 96.92 30.3973 96.92 30.3973L87.1926 29.7605L93.9157 24.0482H93.9203Z" fill="#263238"/>
<path d="M103.043 29.8201L95.6285 30.0263C94.6485 30.0125 93.8836 28.2763 93.9111 26.1462C93.9386 24.2406 94.6027 22.6327 95.4682 22.3578L102.507 20.1223L103.039 29.8247L103.043 29.8201Z" fill="#01B9C1"/>
<path d="M148.983 4.67096C149.047 4.68012 148.264 10.0993 147.229 16.7691C146.194 23.4435 145.305 28.8444 145.241 28.8352C145.177 28.8261 145.96 23.4068 146.995 16.7325C148.03 10.0627 148.919 4.65721 148.983 4.67096Z" fill="#455A64"/>
<path d="M94.2088 23.6954C94.2638 23.7183 93.8562 24.8636 93.073 26.1416C92.2945 27.4243 91.4655 28.313 91.4197 28.2717C91.3648 28.2259 92.1067 27.2823 92.8715 26.0179C93.6409 24.7582 94.1447 23.6679 94.2088 23.6954Z" fill="#455A64"/>
<path d="M135.312 9.26559C135.312 9.26559 135.28 9.33889 135.207 9.46258C135.111 9.60917 135.001 9.78324 134.863 9.99854C134.538 10.4887 134.098 11.1483 133.567 11.95C132.468 13.5945 130.952 15.8667 129.299 18.3953C127.646 20.924 126.175 23.2236 125.108 24.8911C124.591 25.7019 124.16 26.3661 123.844 26.8608C123.702 27.0716 123.588 27.2456 123.492 27.3922C123.409 27.5113 123.363 27.5755 123.354 27.5709C123.345 27.5709 123.382 27.4976 123.45 27.3693C123.537 27.2182 123.638 27.0349 123.766 26.815C124.041 26.334 124.453 25.6469 124.966 24.804C125.997 23.1137 127.449 20.7957 129.097 18.2671C130.751 15.7384 132.289 13.48 133.425 11.8584C133.993 11.0476 134.46 10.3971 134.785 9.94815C134.936 9.74659 135.065 9.5771 135.165 9.43967C135.257 9.32515 135.303 9.2656 135.312 9.27018V9.26559Z" fill="#EBEBEB"/>
<path d="M131.085 12.8616C131.14 12.8983 130.123 14.4145 128.818 16.2423C127.513 18.0701 126.414 19.5222 126.359 19.4856C126.304 19.4489 127.32 17.9327 128.626 16.1049C129.931 14.2771 131.03 12.825 131.085 12.8616Z" fill="#EBEBEB"/>
<path d="M277.271 42.2389C277.271 42.2389 274.88 42.3901 273.08 41.6159C270.218 40.3837 268.844 36.9892 270.209 34.1857C270.218 34.1674 270.227 34.1491 270.236 34.1353C271.088 32.4175 272.86 31.1898 274.775 31.2035H275.773C275.773 31.2035 276.217 31.9136 276.423 33.5856C276.694 35.7753 277.101 39.0873 277.271 42.2389Z" fill="#F5F5F5"/>
<path d="M171.483 10.0352C171.538 10.0718 169.34 13.6312 166.573 17.9876C163.807 22.3441 161.517 25.8439 161.462 25.8118C161.407 25.7752 163.606 22.2158 166.372 17.8594C169.138 13.5029 171.428 10.0031 171.483 10.0352Z" fill="#EBEBEB"/>
<path d="M170.736 14.5291C170.791 14.5657 170.059 15.8025 169.097 17.2913C168.135 18.7801 167.311 19.962 167.256 19.9254C167.201 19.8887 167.934 18.6519 168.895 17.1631C169.857 15.6743 170.681 14.4924 170.736 14.5291Z" fill="#EBEBEB"/>
<path d="M101.344 21.5012C101.367 21.5607 100.14 22.1013 98.5503 22.564C96.9612 23.0312 95.6376 23.2328 95.6239 23.1732C95.6101 23.1045 96.9062 22.7976 98.4816 22.3349C100.057 21.8768 101.317 21.4371 101.339 21.5012H101.344Z" fill="#EBEBEB"/>
<path d="M141.211 31.57C141.211 31.6341 129.125 31.6891 114.222 31.6891C99.3198 31.6891 87.2292 31.6341 87.2292 31.57C87.2292 31.5059 99.3106 31.4509 114.222 31.4509C129.134 31.4509 141.211 31.5059 141.211 31.57Z" fill="#EBEBEB"/>
<path d="M137.245 36.3662C137.245 36.4304 135.491 36.4853 133.324 36.4853C131.158 36.4853 129.404 36.4304 129.404 36.3662C129.404 36.3021 131.158 36.2471 133.324 36.2471C135.491 36.2471 137.245 36.3021 137.245 36.3662Z" fill="#EBEBEB"/>
<path d="M49.4875 41.8083C49.4875 41.8083 49.3822 41.8175 49.1899 41.8175C48.9929 41.8175 48.7044 41.7992 48.3334 41.8083C47.5915 41.8083 46.5153 41.8404 45.2009 42.0007C42.5767 42.3031 38.9541 43.2467 35.4918 45.3585C32.0295 47.4703 29.5381 50.2647 28.068 52.4589C27.3261 53.5583 26.7995 54.4974 26.4651 55.1571C26.2865 55.4823 26.172 55.748 26.0804 55.9221C25.9934 56.0962 25.943 56.1878 25.9339 56.1832C25.9247 56.1832 25.9614 56.0824 26.0346 55.9037C26.1125 55.7251 26.2132 55.4502 26.3781 55.1158C26.6895 54.4379 27.1933 53.4805 27.9261 52.3627C29.3687 50.1318 31.8692 47.2871 35.3682 45.1524C38.8625 43.0177 42.5355 42.0923 45.178 41.8266C46.5061 41.6892 47.5869 41.6755 48.3334 41.7075C48.7044 41.7121 48.9929 41.7488 49.1899 41.7625C49.3868 41.7808 49.4875 41.7946 49.4875 41.7992V41.8083Z" fill="#EBEBEB"/>
<path d="M187.53 30.2965C187.53 30.3607 179.53 30.4156 169.66 30.4156C159.791 30.4156 151.79 30.3607 151.79 30.2965C151.79 30.2324 159.791 30.1774 169.66 30.1774C179.53 30.1774 187.53 30.2324 187.53 30.2965Z" fill="#EBEBEB"/>
<path d="M203.202 35.6653C203.202 35.6974 202.708 35.6928 201.911 35.6745C201.114 35.6562 200.015 35.6287 198.801 35.6241C197.588 35.6195 196.488 35.6333 195.692 35.6424C194.895 35.6516 194.4 35.6562 194.4 35.6195C194.4 35.5874 194.89 35.5279 195.687 35.4729C196.484 35.418 197.588 35.3767 198.806 35.3859C200.024 35.3905 201.128 35.4454 201.92 35.5096C202.717 35.5737 203.207 35.6378 203.202 35.6699V35.6653Z" fill="#EBEBEB"/>
</svg>
