<svg width="297" height="131" viewBox="0 0 297 131" fill="none" xmlns="http://www.w3.org/2000/svg">
<path d="M94.148 102.67H21.3613C21.3613 102.67 29.3362 68.661 57.7547 68.661C86.1732 68.661 92.8959 95.0733 94.148 102.67Z" fill="#7BDADB"/>
<path opacity="0.2" d="M94.148 102.67H21.3613C21.3613 102.67 29.3362 68.661 57.7547 68.661C86.1732 68.661 92.8959 95.0733 94.148 102.67Z" fill="black"/>
<path d="M288.365 98.9964H215.584C215.584 98.9964 223.559 64.9873 251.977 64.9873C280.396 64.9873 287.118 91.3996 288.371 98.9964H288.365Z" fill="#7BDADB"/>
<path opacity="0.2" d="M288.365 98.9964H215.584C215.584 98.9964 223.559 64.9873 251.977 64.9873C280.396 64.9873 287.118 91.3996 288.371 98.9964H288.365Z" fill="black"/>
<path d="M285.783 36.7252C287.342 39.2037 293.992 66.754 294.153 67.7101C294.314 68.6662 296.584 72.8491 296.621 73.6442C296.662 74.4392 297.218 86.749 296.901 87.544C296.584 88.339 294.792 91.2489 294.392 91.7269C293.992 92.205 292.755 101.085 291.602 101.205C290.449 101.324 286.017 101.402 285.814 101.205C285.617 101.007 284.38 68.1466 252.008 68.1466C219.636 68.1466 219.995 103.034 219.397 103.153C218.8 103.273 90.9113 106.578 90.9113 106.578C90.9113 101.241 90.4957 69.4612 58.7366 69.4612C38.0487 69.4612 27.5957 86.5152 27.2372 99.09C27.0866 104.328 27.9646 110.08 27.6736 110.08C26.7177 110.08 23.455 110.319 22.8939 110.08C22.338 109.841 15.5685 105.383 15.0074 105.221C14.4515 105.06 12.815 104.982 11.859 104.743C10.9031 104.504 4.2115 98.6483 4.09201 98.4093C3.97251 98.1702 3.77509 95.8579 3.73353 95.6605C3.69196 95.463 1.46316 87.1751 1.14625 86.2605C0.829332 85.346 0.709839 77.7751 0.709839 77.0217C0.709839 76.2682 8.47687 58.014 11.3447 55.8628C14.2125 53.7115 32.3702 44.8416 38.3449 43.766C44.3195 42.6904 77.1696 37.7904 78.3646 36.9538C79.5595 36.1172 135.628 3.95271 145.384 1.58843C153.271 -0.323768 227.518 2.30552 232.297 2.54454C237.077 2.78357 265.267 7.10161 266.145 7.49652C267.023 7.89663 266.145 11.3989 265.028 12.038C265.028 12.038 283.076 32.4123 285.783 36.7148V36.7252Z" fill="#7BDADB"/>
<path opacity="0.1" d="M67.5063 70.3965C90.5684 75.6707 90.9061 101.792 90.9061 106.583C90.9061 106.583 218.8 103.278 219.392 103.153C219.875 103.055 219.73 80.181 236.828 71.4617C229.149 75.2654 219.304 84.4626 215.573 97.9C215.173 99.329 211.085 101.579 175.013 102.727C138.932 103.87 107.583 103.153 101.634 102.317C95.6858 101.475 88.7033 70.2978 67.5011 70.3913L67.5063 70.3965Z" fill="black"/>
<path d="M262.882 34.5115C261.324 39.1154 89.5553 47.7151 88.5163 45.4859C87.7526 43.8335 104.643 30.2714 112.529 25.8495C120.416 21.4275 142.989 8.64484 154.102 7.3302C165.21 6.01556 187.747 6.12988 207.38 6.49361C226.853 6.85215 232.77 7.3302 240.896 10.7961C248.024 13.8358 264.119 30.8534 262.882 34.5115Z" fill="#263238"/>
<path d="M257.624 31.8303C257.146 33.5554 232.474 37.1928 183.612 39.4635C134.755 41.7343 110.622 42.9398 110.025 42.7008C109.427 42.4617 111.698 29.44 112.534 28.3644C113.371 27.2888 148.372 9.36712 153.868 8.88907C159.365 8.41102 189.046 8.68643 204.04 8.59289C222.613 8.47338 233.253 10.6246 238.568 12.7758C243.244 14.6672 258.097 30.1 257.619 31.8355L257.624 31.8303Z" fill="#37474F"/>
<g opacity="0.1">
<path d="M211.916 8.6864L238.677 35.452C244.719 34.7661 249.317 34.0906 252.471 33.4827L229.3 10.3076C224.837 9.51779 219.117 8.90984 211.916 8.6864Z" fill="white"/>
<path d="M110.025 42.7008C110.28 42.8047 114.924 42.6384 124.047 42.2279L111.932 30.1104C110.939 33.9348 109.542 42.5085 110.025 42.7008Z" fill="white"/>
<path d="M190.257 8.60327L218.956 37.3071L225.361 36.7719L226.229 36.6991L198.138 8.60327C195.67 8.60847 193.01 8.60847 190.257 8.60327Z" fill="white"/>
<path d="M123.517 22.3732L142.527 41.3861C144.901 41.2718 147.416 41.1523 150.06 41.0328L128.754 19.7335C126.941 20.6377 125.175 21.521 123.517 22.3732Z" fill="white"/>
<path d="M235.68 11.7678L256.424 32.5214C257.167 32.2668 257.573 32.033 257.625 31.8304C257.651 31.742 257.63 31.6017 257.567 31.4354L239.228 13.0877C238.989 12.9577 238.771 12.8486 238.568 12.7707C237.742 12.4381 236.776 12.1004 235.674 11.773L235.68 11.7678Z" fill="white"/>
<path d="M118.992 24.7167L135.955 41.6927C136.651 41.6564 137.368 41.6252 138.095 41.5888L120.462 23.9425C119.959 24.2075 119.47 24.4621 118.997 24.7115L118.992 24.7167Z" fill="white"/>
<path d="M148.138 10.7493L177.138 39.7649C176.416 39.8012 175.71 39.8324 174.998 39.8688L146.543 11.4092L148.133 10.7493H148.138Z" fill="white"/>
</g>
<path d="M205.619 9.34632C205.318 10.292 204.824 38.0449 204.824 38.9387C204.824 39.8324 205.837 40.0455 205.837 40.0455L190.064 40.7781C190.064 40.7781 191.088 40.4924 191.264 40.0143C191.441 39.5362 196.403 9.60613 196.371 9.21641C196.34 8.8267 195.566 8.45776 195.566 8.45776H206.554C206.554 8.45776 205.806 8.73836 205.614 9.34632H205.619Z" fill="#263238"/>
<path d="M37.2331 52.6361C36.0382 55.6291 24.9513 62.2751 20.6496 63.7092C17.9428 64.6082 8.39896 66.7022 7.75993 66.2553C7.12091 65.8085 10.7421 58.3155 12.8981 56.2994C15.0542 54.2833 26.4424 48.2193 30.1051 47.8504C33.7678 47.4815 38.4384 49.6171 37.2331 52.6361Z" fill="white"/>
<path d="M7.7601 66.2552C8.39913 66.7021 17.943 64.6132 20.6549 63.7091C24.9567 62.2749 36.0435 55.629 37.2385 52.6308C38.4438 49.617 33.7732 47.4761 30.1105 47.8451C29.8611 47.871 29.5753 47.9178 29.2636 47.9906C32.8484 48.8012 33.9602 51.4928 32.1418 53.3998C30.3079 55.3224 24.2709 60.0353 21.746 61.2149C19.3145 62.3529 10.0564 65.3407 9.13687 64.7847C8.78358 64.5716 8.62253 64.0104 8.56018 63.3973C7.89518 64.9094 7.52631 66.0889 7.7653 66.2552H7.7601Z" fill="#EBEBEB"/>
<g opacity="0.2">
<path d="M197.883 42.7996L198.959 50.438L199.426 54.2676C199.499 54.9067 199.567 55.5458 199.613 56.1954C199.665 56.8449 199.624 57.484 199.634 58.1284L199.494 73.5611L199.369 81.2774L199.307 85.133L199.276 87.0608L199.13 88.9834L198.533 96.679L197.883 104.369L198.273 96.6686L198.72 88.973L198.829 87.0504L198.844 85.1226L198.881 81.267L198.959 73.5611L199.224 58.144C199.224 57.5048 199.281 56.8553 199.239 56.2213C199.203 55.5874 199.146 54.9431 199.089 54.304L198.699 50.4692L197.883 42.7996Z" fill="black"/>
<path d="M92.8129 61.6825C92.8544 66.8787 92.9583 72.0697 93.1038 77.2607C93.1402 78.5598 93.1817 79.8536 93.2389 81.1527C93.2389 82.4673 93.5974 83.756 93.8831 84.9927C94.5013 87.492 95.2027 89.9602 95.9768 92.4076C96.7613 94.8395 97.5822 97.2713 98.6576 99.568L99.0732 100.425C99.2187 100.701 99.385 100.976 99.5408 101.246C99.6863 101.532 99.8681 101.787 100.05 102.041L100.32 102.421C100.533 102.592 100.668 102.551 100.814 102.597C101.946 102.733 103.063 102.748 104.191 102.795C113.163 103.003 122.141 102.909 131.108 102.842C140.08 102.758 149.058 102.613 158.025 102.426C166.992 102.202 175.964 101.948 184.926 101.563C189.389 101.355 193.712 101.376 198.169 100.909V100.503C193.722 100.95 189.384 100.914 184.916 101.111C175.954 101.47 166.987 101.688 158.014 101.88C149.047 102.104 140.08 102.27 131.108 102.384C122.141 102.488 113.168 102.613 104.196 102.431C103.079 102.39 101.951 102.374 100.855 102.244C100.731 102.228 100.559 102.187 100.538 102.182L100.279 101.813C100.102 101.569 99.9253 101.324 99.7798 101.049C99.6343 100.784 99.4733 100.519 99.3278 100.244L98.9174 99.4017C97.8471 97.131 97.0159 94.7148 96.2262 92.2933C95.4573 89.8615 94.7455 87.3985 94.1273 84.9043C93.826 83.652 93.4831 82.4309 93.4831 81.1267L93.3324 77.2399C93.1506 72.0541 93.0051 66.8631 92.9272 61.6721C92.922 61.0278 92.9168 60.3731 92.922 59.7287C92.922 59.4118 92.9739 59.0896 93.0207 58.7674L93.1506 57.8009L93.6857 53.961L94.7507 46.2654L93.6285 53.9454L93.0674 57.7854L92.9324 58.7519C92.8804 59.0688 92.8285 59.3858 92.8285 59.7235C92.8129 60.3679 92.8181 61.0226 92.8181 61.6669L92.8129 61.6825Z" fill="black"/>
<path d="M28.2296 59.4897C29.5388 60.6901 31.0714 61.5994 32.5365 62.5763C34.0224 63.5324 35.5342 64.4417 37.0409 65.3615C38.5683 66.2448 40.0905 67.1437 41.6335 68.0011C43.1765 68.8585 44.73 69.7003 46.3093 70.4901C44.8391 69.508 43.3428 68.5727 41.8414 67.6478L37.3162 64.9042L32.7495 62.2281L30.4636 60.8927C29.705 60.4458 28.9257 60.025 28.2244 59.4897H28.2296Z" fill="black"/>
<path d="M199.645 76.5333L185.311 76.8763L170.982 77.2764L142.324 78.0818L113.667 79.0015L99.3434 79.4588L85.0146 79.9784L99.3486 79.6303L113.677 79.2302L142.335 78.4299L170.992 77.5102L185.316 77.0477L199.645 76.5333Z" fill="black"/>
</g>
<path d="M252.606 130.704C269.231 130.704 282.708 117.224 282.708 100.597C282.708 83.9694 269.231 70.4901 252.606 70.4901C235.981 70.4901 222.504 83.9694 222.504 100.597C222.504 117.224 235.981 130.704 252.606 130.704Z" fill="#263238"/>
<path d="M256.092 122.289C268.079 120.369 276.241 109.093 274.321 97.1035C272.4 85.1143 261.126 76.9519 249.139 78.8722C237.152 80.7926 228.991 92.0686 230.911 104.058C232.831 116.047 244.105 124.209 256.092 122.289Z" fill="#DBDBDB"/>
<path d="M252.606 120.867C263.799 120.867 272.873 111.792 272.873 100.597C272.873 89.4019 263.799 80.3265 252.606 80.3265C241.413 80.3265 232.339 89.4019 232.339 100.597C232.339 111.792 241.413 120.867 252.606 120.867Z" fill="#A6A6A6"/>
<path d="M249.426 95.5151H255.791C253.645 92.4129 261.131 81.5841 261.131 81.5841L257.786 80.4617C255.557 84.2861 254.445 85.4033 252.611 85.4033C250.777 85.4033 249.665 84.2809 247.431 80.4617L244.091 81.5841C244.091 81.5841 251.577 92.4129 249.432 95.5151H249.426Z" fill="#DBDBDB"/>
<path d="M256.321 95.8996L258.29 101.953C260.576 98.9498 273.19 102.727 273.19 102.727L273.221 99.194C268.898 98.2587 267.485 97.5416 266.919 95.8009C266.353 94.0601 267.075 92.652 270.021 89.3472L267.922 86.5153C267.922 86.5153 259.937 96.9804 256.321 95.8996Z" fill="#DBDBDB"/>
<path d="M258.087 102.582L252.938 106.323C256.502 107.57 256.809 120.732 256.809 120.732L260.175 119.672C259.729 115.271 259.973 113.707 261.454 112.631C262.934 111.556 264.498 111.805 268.55 113.587L270.592 110.719C270.592 110.719 258.17 106.36 258.087 102.587V102.582Z" fill="#DBDBDB"/>
<path d="M252.279 106.323L247.13 102.582C247.042 106.354 234.625 110.714 234.625 110.714L236.677 113.587C240.724 111.805 242.283 111.551 243.769 112.631C245.249 113.707 245.493 115.271 245.052 119.677L248.413 120.732C248.413 120.732 248.72 107.57 252.284 106.323H252.279Z" fill="#DBDBDB"/>
<path d="M246.922 101.958L248.891 95.9047C245.275 96.9907 237.29 86.5204 237.29 86.5204L235.191 89.3575C238.137 92.6571 238.859 94.0653 238.293 95.806C237.726 97.5467 236.318 98.2638 231.991 99.2043L232.022 102.727C232.022 102.727 244.631 98.9549 246.922 101.953V101.958Z" fill="#DBDBDB"/>
<path d="M246.725 100.457C246.725 103.704 249.359 106.339 252.606 106.339C255.853 106.339 258.487 103.704 258.487 100.457C258.487 97.2091 255.853 94.5746 252.606 94.5746C249.359 94.5746 246.725 97.2091 246.725 100.457Z" fill="#DBDBDB"/>
<path d="M58.9912 130.704C75.616 130.704 89.093 117.224 89.093 100.597C89.093 83.9694 75.616 70.4901 58.9912 70.4901C42.3664 70.4901 28.8894 83.9694 28.8894 100.597C28.8894 117.224 42.3664 130.704 58.9912 130.704Z" fill="#263238"/>
<path d="M61.1065 122.483C73.19 121.313 82.0372 110.567 80.8673 98.4816C79.6974 86.396 68.9534 77.5473 56.8699 78.7174C44.7864 79.8875 35.9391 90.6333 37.109 102.719C38.2789 114.804 49.0229 123.653 61.1065 122.483Z" fill="#DBDBDB"/>
<path d="M58.9913 120.867C70.1844 120.867 79.2583 111.792 79.2583 100.597C79.2583 89.4019 70.1844 80.3265 58.9913 80.3265C47.7981 80.3265 38.7242 89.4019 38.7242 100.597C38.7242 111.792 47.7981 120.867 58.9913 120.867Z" fill="#A6A6A6"/>
<path d="M55.8064 95.5151H62.1707C60.025 92.4129 67.5115 81.5841 67.5115 81.5841L64.1657 80.4617C61.9369 84.2861 60.8251 85.4033 58.9912 85.4033C57.1572 85.4033 56.0454 84.2809 53.8114 80.4617L50.4708 81.5841C50.4708 81.5841 57.9573 92.4129 55.8116 95.5151H55.8064Z" fill="#DBDBDB"/>
<path d="M62.7058 95.8996L64.6748 101.953C66.9608 98.9498 79.5751 102.727 79.5751 102.727L79.6063 99.194C75.2837 98.2587 73.8706 97.5416 73.3043 95.8009C72.738 94.0601 73.4602 92.652 76.4059 89.3472L74.307 86.5153C74.307 86.5153 66.3218 96.9804 62.7058 95.8996Z" fill="#DBDBDB"/>
<path d="M64.4671 102.582L59.3185 106.323C62.8825 107.57 63.189 120.732 63.189 120.732L66.5556 119.672C66.1088 115.271 66.353 113.707 67.8336 112.631C69.3143 111.556 70.8729 111.805 74.9305 113.587L76.9722 110.719C76.9722 110.719 64.5502 106.36 64.4671 102.587V102.582Z" fill="#DBDBDB"/>
<path d="M58.6586 106.323L53.5101 102.582C53.4217 106.354 41.0049 110.714 41.0049 110.714L43.057 113.587C47.1042 111.805 48.668 111.551 50.1487 112.631C51.6293 113.707 51.8735 115.271 51.4319 119.677L54.7933 120.732C54.7933 120.732 55.0998 107.57 58.6638 106.323H58.6586Z" fill="#DBDBDB"/>
<path d="M53.3075 101.958L55.2765 95.9047C51.6606 96.9907 43.6753 86.5204 43.6753 86.5204L41.5764 89.3575C44.5222 92.6571 45.2443 94.0653 44.678 95.806C44.1117 97.5467 42.7038 98.2638 38.3761 99.2043L38.4073 102.727C38.4073 102.727 51.0164 98.9549 53.3075 101.953V101.958Z" fill="#DBDBDB"/>
<path d="M53.1049 100.457C53.1049 103.704 55.7389 106.339 58.986 106.339C62.2331 106.339 64.8671 103.704 64.8671 100.457C64.8671 97.2091 62.2331 94.5746 58.986 94.5746C55.7389 94.5746 53.1049 97.2091 53.1049 100.457Z" fill="#DBDBDB"/>
<path d="M116.935 31.4666C118.031 32.563 117.932 42.3787 117.132 43.1737C116.337 43.9687 105.427 44.6858 104.549 38.5958C103.671 32.5007 115.22 29.7519 116.935 31.4666Z" fill="#7BDADB"/>
<path d="M77.1177 37.3331H85.9913C109.09 22.0927 140.787 7.0133 140.787 7.0133L135.529 5.74023C116.337 15.031 79.3361 36.2783 78.3698 36.9642C78.2503 37.0525 77.819 37.1721 77.1177 37.3331Z" fill="#37474F"/>
<g opacity="0.5">
<path d="M287.425 80.9344C285.617 77.853 283.258 75.1198 280.676 72.6464C278.068 70.1938 275.154 68.0582 272.005 66.333C265.714 62.8516 258.477 61.1732 251.302 61.2356L248.611 61.3603L247.265 61.4226C246.818 61.4746 246.377 61.5473 245.93 61.6045L243.259 61.9838C242.381 62.1657 241.509 62.3995 240.636 62.6074C237.176 63.5375 233.762 64.8365 230.765 66.8423C227.741 68.7908 225.045 71.2227 222.774 73.9922C220.483 76.7566 218.732 79.9003 217.127 83.0804C218.872 79.9731 220.686 76.8813 223.044 74.2157C225.346 71.5188 228.053 69.1702 231.061 67.3099C237.093 63.5479 244.252 62.015 251.307 61.9474C254.845 61.8747 258.388 62.2904 261.833 63.0802C265.277 63.8908 268.613 65.1587 271.745 66.8111C274.883 68.4583 277.803 70.5212 280.442 72.901C283.087 75.2705 285.487 77.9414 287.43 80.9344H287.425Z" fill="white"/>
<path d="M94.4701 80.9344C92.6621 77.853 90.3035 75.1198 87.7214 72.6464C85.1133 70.1938 82.1987 68.0582 79.0504 66.333C72.7588 62.8516 65.5217 61.1732 58.3469 61.2356L55.6557 61.3603L54.3102 61.4226C53.8634 61.4746 53.4217 61.5473 52.9749 61.6045L50.3045 61.9838C49.4265 62.1657 48.5537 62.3995 47.6809 62.6074C44.2208 63.5375 40.8075 64.8365 37.8098 66.8423C34.7861 68.7908 32.0897 71.2227 29.8193 73.9922C27.5282 76.7566 25.7774 79.9003 24.172 83.0804C25.9176 79.9731 27.7308 76.8813 30.0895 74.2157C32.391 71.5188 35.0978 69.1702 38.1059 67.3099C44.1377 63.5479 51.2969 62.015 58.3521 61.9474C61.8902 61.8747 65.4334 62.2904 68.8779 63.0802C72.3224 63.8908 75.6578 65.1587 78.7906 66.8111C81.9286 68.4583 84.8484 70.5212 87.4876 72.901C90.132 75.2705 92.5323 77.9414 94.4753 80.9344H94.4701Z" fill="white"/>
<path d="M276.775 30.9677C272.083 27.2888 267.324 23.7034 262.534 20.1596C257.734 16.6262 252.902 13.1395 247.92 9.83995C247.286 9.43984 246.657 9.03973 246.003 8.66041C245.68 8.46815 245.348 8.28628 245 8.11481C244.641 7.93814 244.257 7.80304 243.904 7.70431C242.459 7.27822 241.02 6.91449 239.571 6.55075C236.672 5.83887 233.773 5.15298 230.843 4.5814C227.907 3.94746 224.904 3.78118 221.927 3.66686C218.945 3.59931 215.963 3.6097 212.986 3.75C215.963 3.77079 218.945 3.83834 221.912 4.02021C224.878 4.20207 227.845 4.4307 230.728 5.12699C233.627 5.77652 236.531 6.44683 239.41 7.18988C240.849 7.55881 242.293 7.93814 243.701 8.36423C244.065 8.46816 244.382 8.58767 244.688 8.74355C245.01 8.90983 245.327 9.0865 245.644 9.27357C246.278 9.64769 246.901 10.0478 247.525 10.4479C252.512 13.6799 257.339 17.177 262.207 20.6117L276.769 30.9729L276.775 30.9677Z" fill="white"/>
</g>
<path opacity="0.1" d="M3.23995 93.7742C3.52569 94.8498 3.72831 95.6085 3.7387 95.6708C3.78027 95.8683 3.97769 98.1754 4.10237 98.4144C4.22187 98.6534 10.9083 104.51 11.8642 104.749C12.7422 104.962 14.2073 105.05 14.8671 105.195C14.8775 105.195 14.8879 105.195 14.8983 105.195C14.945 105.195 14.9814 105.206 15.0126 105.216C15.3399 105.32 17.6155 106.765 19.6416 108.053C19.865 108.199 20.0884 108.334 20.3014 108.474C20.4157 108.547 20.5196 108.62 20.6287 108.682C20.8366 108.812 21.0392 108.937 21.2262 109.061C21.4184 109.181 21.6003 109.29 21.7613 109.394C21.8497 109.451 21.9276 109.503 22.0055 109.555C22.4679 109.836 22.7848 110.028 22.8887 110.07C23.4394 110.314 26.7125 110.07 27.6684 110.07H27.6788C27.6788 110.07 27.6892 110.059 27.6944 110.049C27.71 110.018 27.7204 109.96 27.7204 109.882C27.7412 109.56 27.684 108.833 27.6061 107.851C27.5905 107.69 27.5749 107.518 27.5593 107.347C27.5437 107.154 27.5282 106.952 27.5126 106.744C27.497 106.557 27.4814 106.354 27.4658 106.157C27.4554 106.042 27.445 105.928 27.4398 105.809C27.4035 105.383 27.3723 104.941 27.3463 104.478C27.3463 104.478 27.3463 104.463 27.3463 104.452C27.2372 102.774 27.1749 100.903 27.2216 99.0899C27.232 98.7937 27.2424 98.4924 27.2684 98.1858C27.284 97.9104 27.3048 97.635 27.3359 97.3544C27.3567 97.1206 27.3827 96.8763 27.4139 96.6425C27.4398 96.4554 27.4658 96.2684 27.497 96.0813C27.5905 95.411 27.7152 94.7355 27.871 94.0548C27.9022 93.8937 27.9386 93.7378 27.9801 93.5767C28.0477 93.2962 28.1204 93.0156 28.188 92.735C28.2503 92.5219 28.3075 92.3089 28.3698 92.0958C28.4893 91.6749 28.6192 91.2644 28.7594 90.8487C28.8374 90.6305 28.9153 90.4071 28.9932 90.1888C29.2374 89.5029 29.5128 88.817 29.8141 88.1363C29.8972 87.9493 29.9804 87.757 30.0687 87.5699C30.2141 87.2582 30.3596 86.9516 30.5207 86.645C30.5778 86.5307 30.635 86.4216 30.6921 86.3021C30.822 86.0526 30.9571 85.8032 31.0974 85.5486C31.2584 85.2524 31.4299 84.9562 31.6013 84.6601C31.7727 84.3639 31.9546 84.0729 32.1416 83.7819C32.3079 83.5169 32.4845 83.2519 32.656 82.9869C32.6767 82.9609 32.6923 82.9349 32.7079 82.9141C32.8846 82.6543 33.0716 82.3945 33.2534 82.1347C33.2898 82.0828 33.321 82.036 33.3573 81.9944C33.5184 81.7762 33.6794 81.5579 33.8405 81.3501C33.8976 81.2721 33.9548 81.1994 34.0067 81.137C34.199 80.8876 34.4016 80.6434 34.6042 80.394C35.0458 79.8744 35.4978 79.3599 35.9758 78.8663C36.0173 78.8143 36.0641 78.7676 36.1057 78.726C36.2875 78.5389 36.4745 78.3519 36.6616 78.17C36.7343 78.0921 36.807 78.0193 36.8798 77.957C37.1032 77.7439 37.3318 77.5257 37.5604 77.3178C37.5759 77.3022 37.5967 77.2867 37.6123 77.2763C37.8721 77.0372 38.1318 76.8034 38.4072 76.58C38.6462 76.3773 38.8956 76.1747 39.1501 75.9772C39.1917 75.9408 39.2333 75.9097 39.2748 75.8785C39.5034 75.7018 39.7424 75.52 39.9814 75.3485C40.0853 75.2705 40.1892 75.1926 40.2983 75.1198C40.3243 75.0991 40.3503 75.0835 40.3762 75.0627C40.5996 74.9016 40.8334 74.7405 41.0672 74.5846C41.3581 74.3924 41.6491 74.2001 41.9504 74.0183C41.992 73.9923 42.0387 73.9611 42.0855 73.9351C42.3816 73.7532 42.6882 73.5714 42.9947 73.3999C43.322 73.2232 43.6493 73.0414 43.9818 72.8751C43.9922 72.8751 43.9974 72.8647 44.0078 72.8595C38.0643 74.1222 28.1568 82.2335 24.1564 90.5993C20.1508 98.9652 21.1795 99.5836 20.2443 100.592C19.3195 101.594 16.2127 99.5628 14.7788 99.199C13.3397 98.8457 8.68466 98.7262 6.89227 98.3676C5.10508 98.0091 4.80375 94.7823 3.57765 94.0652C3.46335 93.9976 3.34905 93.8989 3.22437 93.7638L3.23995 93.7742Z" fill="black"/>
<g opacity="0.3">
<path d="M259.136 47.658C259.095 53.3894 266.051 56.2681 270.073 52.2306C272.488 49.8768 272.535 45.7094 270.161 43.3088C266.223 39.1882 259.209 41.9318 259.136 47.6632V47.658ZM259.136 47.658C259.147 41.8227 266.332 38.8712 270.478 42.997C273.101 45.5535 273.055 50.0379 270.384 52.5476C266.15 56.5799 259.032 53.4985 259.136 47.658Z" fill="black"/>
</g>
<path opacity="0.3" d="M272.218 47.0968C272.234 46.8526 272.27 46.6135 272.307 46.3745C272.27 46.6135 272.239 46.8526 272.218 47.0968Z" fill="black"/>
<path d="M291.077 54.5117C291.077 54.5117 289.763 57.1514 289.856 57.9048C289.95 58.6583 290.895 66.676 291.462 67.0553C292.028 67.4347 293.306 68.1102 294.413 67.9127C295.519 67.7153 291.077 54.5117 291.077 54.5117Z" fill="#EBEBEB"/>
<path d="M265.028 12.0483C265.028 12.0483 274.296 23.5267 274.909 24.4673C275.522 25.413 282.739 34.9636 282.739 34.9636L284.838 35.3741L271.99 18.528L265.033 12.0483H265.028Z" fill="#37474F"/>
<path opacity="0.3" d="M181.357 56.2109H184.749C186.778 56.2109 188.423 54.5662 188.423 52.5372V51.0199C188.423 48.991 186.778 47.3462 184.749 47.3462H181.357C179.328 47.3462 177.684 48.991 177.684 51.0199V52.5372C177.684 54.5662 179.328 56.2109 181.357 56.2109Z" fill="black"/>
<path d="M175.699 53.6075H191.862C192.149 53.6075 192.381 53.3749 192.381 53.0879V51.103C192.381 50.816 192.149 50.5834 191.862 50.5834H175.699C175.412 50.5834 175.18 50.816 175.18 51.103V53.0879C175.18 53.3749 175.412 53.6075 175.699 53.6075Z" fill="#7BDADB"/>
<path opacity="0.1" d="M175.699 53.6075H191.862C192.149 53.6075 192.381 53.3749 192.381 53.0879V51.103C192.381 50.816 192.149 50.5834 191.862 50.5834H175.699C175.412 50.5834 175.18 50.816 175.18 51.103V53.0879C175.18 53.3749 175.412 53.6075 175.699 53.6075Z" fill="black"/>
</svg>
