<svg width="73" height="189" viewBox="0 0 73 189" fill="none" xmlns="http://www.w3.org/2000/svg">
<path d="M47.916 168.62C47.1523 172.185 46.4042 175.926 46.4198 176.747C46.4665 178.394 48.5135 181.216 49.5162 180.52C50.5241 179.829 70.4586 153.344 70.5729 151.863C70.5781 151.852 70.5729 151.842 70.5729 151.821C70.5573 151.65 70.2664 151.286 69.7573 150.782C69.7573 150.771 69.7469 150.766 69.7417 150.761C68.661 149.675 66.6141 147.94 64.1463 145.939C63.58 145.471 62.9825 144.998 62.3747 144.505C62.3643 144.5 45.5054 130.87 45.5054 130.87L32.7509 147.763L49.4746 161.543C49.4746 161.543 48.6901 164.983 47.9108 168.61V168.62H47.916Z" fill="#EB9481"/>
<path d="M47.9161 168.62C47.1524 172.185 46.4042 175.926 46.4198 176.747C46.4614 178.394 48.5083 181.216 49.5162 180.52C50.5241 179.829 70.4535 153.344 70.5729 151.863C70.5729 151.852 70.5729 151.837 70.5729 151.821C70.5574 151.65 70.2664 151.286 69.7573 150.787C69.7573 150.771 69.7469 150.766 69.7417 150.761C68.6611 149.675 66.6141 147.94 64.1463 145.939C63.58 145.471 62.9826 144.993 62.3747 144.505C62.3747 144.5 60.9824 143.377 58.9977 141.777L45.8899 158.592L49.4747 161.543C49.4747 161.543 48.6902 164.983 47.9161 168.61V168.62V168.62Z" fill="#EBEBEB"/>
<path d="M49.2616 180.405C50.2799 179.704 70.3079 152.855 70.4222 151.353C70.4742 150.782 66.7335 147.633 62.1045 143.959C62.0577 143.923 62.0058 143.881 61.959 143.845L48.8408 161.018L49.1421 161.231C49.1421 161.231 46.0717 174.939 46.1184 176.607C46.1704 178.265 48.2485 181.107 49.2616 180.405V180.405Z" fill="#263238"/>
<path d="M48.4459 179.325C51.7138 174.716 65.3204 156.435 68.9 152.128C68.9312 152.091 68.9519 152.112 68.926 152.149C65.788 156.789 52.0359 174.955 48.5187 179.377C48.4459 179.47 48.3784 179.418 48.4459 179.319V179.325Z" fill="white"/>
<path d="M48.1083 162.728C49.1058 160.702 51.0021 158.727 53.2881 158.311C53.3764 158.296 53.3972 158.42 53.3348 158.467C51.4697 159.813 49.8903 161.185 48.3369 162.889C48.2278 163.009 48.0356 162.874 48.1083 162.728Z" fill="white"/>
<path d="M47.9213 164.594C48.9188 162.567 50.8151 160.592 53.1011 160.177C53.1894 160.161 53.2102 160.286 53.1478 160.333C51.2827 161.678 49.7033 163.05 48.1499 164.755C48.0408 164.874 47.8486 164.739 47.9213 164.594Z" fill="white"/>
<path d="M47.7394 166.459C48.7369 164.432 50.6332 162.458 52.9192 162.042C53.0075 162.027 53.0283 162.151 52.9659 162.198C51.1008 163.544 49.5214 164.916 47.968 166.62C47.8589 166.739 47.6667 166.604 47.7394 166.459Z" fill="white"/>
<path d="M47.994 180.099C47.8225 180.717 49.511 181.819 49.9007 181.569C50.2903 181.32 72.0017 151.951 72.2614 151.369C72.5212 150.787 70.5989 149.639 70.0794 150.148C69.5547 150.657 47.994 180.099 47.994 180.099V180.099Z" fill="#7BDADB"/>
<path opacity="0.3" d="M47.994 180.099C47.8225 180.717 49.511 181.819 49.9007 181.569C50.2903 181.32 72.0017 151.951 72.2614 151.369C72.5212 150.787 70.5989 149.639 70.0794 150.148C69.5547 150.657 47.994 180.099 47.994 180.099V180.099Z" fill="black"/>
<path d="M61.6577 150.522C62.1356 147.851 66.2919 148.589 65.8087 151.265C65.3308 153.936 61.1745 153.198 61.6577 150.522Z" fill="white"/>
<path d="M36.3875 114.627C37.5825 120.524 62.0577 144.068 62.0577 144.068L44.9962 163.767C44.9962 163.767 10.2498 129.077 12.063 116.04C13.6423 104.702 30.6155 59.1001 30.6155 59.1001H50.1968C50.1968 59.1001 35.2186 108.823 36.3927 114.622L36.3875 114.627Z" fill="#263238"/>
<path d="M36.3875 114.627C37.5825 120.524 62.0577 144.068 62.0577 144.068L44.9962 163.767C44.9962 163.767 10.2498 129.077 12.063 116.04C13.6423 104.702 30.6155 59.1001 30.6155 59.1001H50.1968C50.1968 59.1001 35.2186 108.823 36.3927 114.622L36.3875 114.627Z" fill="#455A64"/>
<path d="M43.0479 159.085C45.3131 156.264 44.6221 157.043 46.9237 154.243C48.051 152.876 55.4492 143.887 56.7221 142.795C56.748 142.769 56.8 142.811 56.7792 142.842C55.9272 144.287 48.368 153.146 47.2198 154.492C44.8663 157.246 45.5157 156.43 43.1311 159.153C43.0843 159.205 43.0064 159.137 43.0479 159.085Z" fill="#263238"/>
<path d="M33.9561 111.753C34.2367 110.283 34.5536 108.812 34.8653 107.347C35.5043 104.354 36.1745 101.366 36.8863 98.3834C38.2942 92.4754 39.8216 86.5985 41.4842 80.7579C43.1519 74.8966 44.9183 69.0457 46.9497 63.2987C47.199 62.5868 47.4588 61.8801 47.7186 61.1734C47.7393 61.1215 47.8225 61.1423 47.8017 61.1994C46.0405 66.9568 44.2273 72.6986 42.5804 78.4872C40.9386 84.255 39.4164 90.0487 37.9825 95.8737C37.2603 98.7991 36.5953 101.73 35.9355 104.671C35.6134 106.115 35.3017 107.56 34.9952 109.004C34.6835 110.47 34.2678 111.972 34.1743 113.473C34.086 114.949 34.564 116.253 35.3277 117.5C36.0602 118.701 36.9278 119.833 37.7591 120.966C39.432 123.237 55.3713 140.997 55.8856 141.481C55.9272 141.517 55.8649 141.574 55.8233 141.538C53.6828 139.615 40.1594 124.978 38.4449 122.712C37.5929 121.59 36.7668 120.452 35.9563 119.309C35.1978 118.233 34.4341 117.137 34.0133 115.879C33.5613 114.528 33.6963 113.13 33.9613 111.753H33.9561Z" fill="#263238"/>
<path d="M33.9925 59.1053L37.5461 105.767C40.9387 89.7941 50.1812 59.1053 50.1812 59.1053H33.9873H33.9925Z" fill="#263238"/>
<path d="M42.2271 155.183C42.2271 155.183 37.9981 175.77 37.9981 175.786C37.941 179.933 37.8163 183.565 37.5773 185.441C37.5773 185.451 37.5773 185.461 37.5773 185.472C37.489 186.178 37.3799 186.631 37.2552 186.75C37.2448 186.76 37.2396 186.771 37.2292 186.776C35.9823 187.597 2.84645 188.111 1.68269 187.737C0.513743 187.374 1.48527 184.027 2.75813 182.978C4.03619 181.933 16.6349 176.056 16.6349 176.056L21.0665 155.484L42.2271 155.183V155.183Z" fill="#EB9481"/>
<path d="M1.6827 187.732C2.84645 188.106 35.9875 187.587 37.2344 186.771C37.2344 186.771 37.2448 186.755 37.2552 186.745C37.3851 186.625 37.489 186.173 37.5773 185.467C37.5773 185.456 37.5773 185.446 37.5773 185.435C37.8163 183.565 37.941 179.927 37.9981 175.786C37.9981 175.781 38.367 173.973 38.8865 171.426H17.6272L16.6297 176.056C16.6297 176.056 4.03618 181.928 2.75294 182.972C1.48527 184.022 0.51374 187.368 1.6775 187.732H1.6827Z" fill="#EBEBEB"/>
<path d="M1.47494 187.763C2.64909 188.137 36.1382 187.618 37.4007 186.792C37.8839 186.485 38.0969 181.601 38.1748 175.687C38.1748 175.625 38.1748 175.563 38.1748 175.5L16.5674 175.594L16.583 175.963C16.583 175.963 3.8544 181.897 2.56076 182.957C1.27752 184.012 0.295598 187.394 1.47494 187.763V187.763Z" fill="#263238"/>
<path d="M1.83339 186.459C7.47553 186.23 30.2571 185.851 35.8525 186.059C35.8992 186.059 35.8992 186.09 35.8525 186.095C30.2623 186.443 7.48073 186.636 1.83339 186.553C1.7139 186.553 1.7139 186.464 1.83339 186.459Z" fill="white"/>
<path d="M14.7698 176.056C16.983 175.609 19.7054 175.906 21.4302 177.464C21.4978 177.527 21.4095 177.62 21.3367 177.6C19.1339 176.945 17.0817 176.529 14.7854 176.342C14.6243 176.326 14.614 176.093 14.7698 176.061V176.056Z" fill="white"/>
<path d="M13.18 177.049C15.3933 176.602 18.1156 176.898 19.8405 178.457C19.908 178.519 19.8197 178.613 19.7469 178.592C17.5441 177.937 15.492 177.522 13.1904 177.334C13.0294 177.319 13.019 177.085 13.1748 177.054L13.18 177.049Z" fill="white"/>
<path d="M11.5903 178.036C13.8035 177.589 16.5258 177.885 18.2507 179.444C18.3182 179.506 18.2299 179.6 18.1572 179.579C15.9543 178.925 13.9022 178.509 11.6058 178.322C11.4448 178.306 11.4344 178.072 11.5903 178.041V178.036Z" fill="white"/>
<path d="M0.944958 186.568C0.347494 186.807 0.50855 188.818 0.944958 188.974C1.38137 189.13 37.8942 188.402 38.5124 188.252C39.1307 188.101 38.8657 185.877 38.1436 185.778C37.4214 185.674 0.944958 186.568 0.944958 186.568V186.568Z" fill="#7BDADB"/>
<path opacity="0.3" d="M0.944958 186.568C0.347494 186.807 0.50855 188.818 0.944958 188.974C1.38137 189.13 37.8942 188.402 38.5124 188.252C39.1307 188.101 38.8657 185.877 38.1436 185.778C37.4214 185.674 0.944958 186.568 0.944958 186.568V186.568Z" fill="black"/>
<path d="M32.7093 179.34C35.1199 178.088 37.0682 181.829 34.6524 183.087C32.2417 184.339 30.2935 180.598 32.7093 179.34Z" fill="white"/>
<path d="M32.33 59.1053C32.3508 59.5158 33.447 63.2675 34.0133 68.8794C34.4238 72.9792 34.9329 76.6061 35.4784 77.053C36.0967 77.5622 39.1931 79.5524 40.2321 80.1863C40.2321 80.1863 30.5844 109.441 28.0906 119.189C24.4799 133.328 15.8348 175.739 15.8348 175.739H38.871C38.871 175.739 45.8743 135.36 48.9395 121.901C51.5632 110.366 61.1434 77.8688 61.1434 77.8688C64.8009 68.869 58.8886 59.1053 58.8886 59.1053C58.8886 59.1053 32.3248 59.0897 32.33 59.1053V59.1053Z" fill="#455A64"/>
<path d="M17.8766 171.276C21.29 171.255 20.3133 171.208 23.7266 171.229C25.3995 171.239 36.3825 171.307 37.9411 171.603C37.9774 171.608 37.9722 171.671 37.9411 171.676C36.3773 171.925 25.3943 171.655 23.7266 171.613C20.3133 171.525 21.2952 171.51 17.8818 171.385C17.8195 171.385 17.8195 171.281 17.8818 171.281L17.8766 171.276Z" fill="#263238"/>
<path d="M33.8471 75.8995C36.0915 77.0842 38.2007 78.5963 40.201 80.1552C40.2789 80.2176 40.201 80.3423 40.1178 80.2851C37.9618 78.9341 35.7589 77.6195 33.6808 76.1541C33.5198 76.0398 33.6756 75.806 33.8471 75.8995Z" fill="#263238"/>
<path d="M35.5979 60.3525C35.6187 60.2745 35.759 60.2797 35.7434 60.3629C35.3018 63.1013 35.1095 65.1642 34.9433 67.7623C34.8654 68.9678 34.803 75.6865 36.9383 75.5254C37.2968 75.4994 37.5254 75.1876 37.6605 74.6732C37.8215 74.06 37.7072 73.2546 37.702 72.6155C37.6864 71.2021 37.7176 69.794 37.8163 68.391C37.9982 65.7617 38.3878 63.1688 39.1048 60.6331C39.1255 60.5499 39.2502 60.5759 39.2346 60.659C38.6735 64.2496 38.2112 67.8454 38.1956 71.4827C38.1904 73.2339 38.6476 75.9359 36.824 75.9255C34.9641 75.9099 34.4549 71.4204 34.4134 70.2045C34.3043 66.8165 34.8186 63.6365 35.5979 60.3473V60.3525Z" fill="#263238"/>
<path d="M36.8552 75.6968C36.9747 76.1645 37.0526 76.6477 37.1098 77.131C37.1513 77.5051 37.2293 77.9104 37.1306 78.2793C37.1098 78.3521 37.0163 78.3417 36.9851 78.2897C36.7929 77.9468 36.7565 77.5103 36.6734 77.1258C36.5799 76.6789 36.4811 76.2372 36.4032 75.7904C36.3513 75.4942 36.7877 75.411 36.8604 75.702L36.8552 75.6968Z" fill="#263238"/>
<path d="M41.557 158.566C41.6193 158.031 41.6921 157.501 41.7648 156.971C41.9103 155.947 42.0817 154.934 42.2376 153.915C42.5545 151.868 42.9026 149.826 43.2663 147.784C43.9884 143.715 44.8249 139.662 45.7029 135.625C46.2016 133.343 46.7783 131.088 47.3914 128.833C47.4329 128.677 47.6563 128.75 47.6303 128.906C47.2615 130.969 46.903 133.032 46.4822 135.089C46.0613 137.137 45.6405 139.184 45.2353 141.236C44.43 145.29 43.6819 149.353 42.8818 153.406C42.6532 154.549 42.4506 155.698 42.2272 156.841C42.1181 157.412 41.9986 157.984 41.8791 158.55C41.7544 159.117 41.5778 159.673 41.4843 160.249C41.4739 160.301 41.3959 160.281 41.4011 160.223C41.4894 159.678 41.4999 159.117 41.5622 158.571L41.557 158.566Z" fill="#263238"/>
<path d="M25.6749 127.955C26.4438 124.131 27.4776 120.358 28.5167 116.601C30.6104 109.041 33.073 101.59 35.5304 94.1434C36.237 91.9973 36.9435 89.8513 37.6553 87.7053C38.0086 86.6349 39.7438 80.8463 39.962 80.3007C39.9828 80.2435 40.066 80.2695 40.0504 80.3267C39.5516 82.296 38.871 85.1695 38.2943 87.1233C37.728 89.0511 37.1046 90.9633 36.5071 92.8859C35.333 96.6583 34.1329 100.426 32.9899 104.203C30.7299 111.681 28.4907 119.153 26.6568 126.744C26.1424 128.87 25.6333 130.995 25.1657 133.13C24.6981 135.266 24.2981 137.412 23.8513 139.548C23.8409 139.605 23.7422 139.589 23.7474 139.532C24.1318 135.635 24.9059 131.785 25.6749 127.95V127.955Z" fill="#263238"/>
<path d="M39.8997 148.475C41.131 141.356 42.6065 134.279 44.2378 127.243C45.8796 120.171 47.7083 113.146 49.7189 106.178C51.7347 99.2044 53.9635 92.2987 56.3586 85.4501C57.4963 82.2025 58.6497 78.9549 59.3926 75.5877C60.1304 72.2621 60.7746 66.8477 57.3041 59.9212C57.2781 59.8692 57.4652 59.838 57.4963 59.89C62.0578 67.7466 59.9953 75.9566 57.9483 82.1713C56.8261 85.5748 55.6312 88.9523 54.5246 92.361C53.3868 95.8581 52.301 99.3759 51.2619 102.904C49.1994 109.898 47.2823 116.934 45.5678 124.021C43.8534 131.109 42.3259 138.238 40.9804 145.404C39.6296 152.595 38.497 159.818 37.3436 167.046C37.193 167.987 37.0735 168.932 36.954 169.873C36.9488 169.925 36.8656 169.925 36.8708 169.873C37.7333 162.712 38.6684 155.583 39.8945 148.475H39.8997Z" fill="#263238"/>
<path d="M54.9818 69.5705C54.5194 69.3938 53.9999 69.3522 53.5219 69.2223C53.018 69.082 52.5244 68.9209 52.0412 68.7131C51.1373 68.3234 50.2489 67.8245 49.4799 67.2062C48.6851 66.5671 48.2071 65.7409 47.807 64.8159C47.594 64.3223 46.6693 61.7138 46.6641 61.6982C46.6329 61.6359 46.5134 61.6619 46.5186 61.7242C46.5394 62.0775 47.0693 64.3067 47.2459 64.8679C47.5836 65.9227 48.072 66.8944 48.9292 67.6219C49.7657 68.3338 50.7528 68.8586 51.7867 69.2223C52.3166 69.4094 52.8673 69.5601 53.4232 69.6536C53.9272 69.7368 54.483 69.8407 54.9922 69.7316C55.0805 69.7108 55.0545 69.5965 54.987 69.5757L54.9818 69.5705Z" fill="#263238"/>
<path d="M29.109 67.861C29.3636 67.7155 29.6337 67.6999 29.8935 67.5908C30.1636 67.4817 30.4338 67.3517 30.6988 67.1803C31.1975 66.8529 31.6963 66.4268 32.1431 65.8864C32.6055 65.3304 32.9172 64.5822 33.1977 63.7508C33.3484 63.3039 33.7484 60.9085 33.7536 60.8877C33.7744 60.8305 33.8367 60.8565 33.8264 60.9189C33.79 61.241 33.7224 62.961 33.4835 63.8131C33.2133 64.7692 32.8964 65.6474 32.3976 66.2865C31.9093 66.9101 31.3586 67.3569 30.7923 67.6531C30.5013 67.8038 30.2052 67.9233 29.9091 67.9857C29.6441 68.0428 29.3428 68.1156 29.0882 68.0013C29.0415 67.9805 29.0674 67.8766 29.1038 67.8558L29.109 67.861Z" fill="#263238"/>
<path d="M35.7018 25.2313C24.4747 35.842 14.8113 47.9179 14.1152 53.7169C13.1488 61.745 18.1208 63.8495 20.3288 63.8183C26.3346 63.7352 37.5565 39.5676 41.1361 30.1885C44.6066 21.0796 38.1696 22.8982 35.707 25.2261L35.7018 25.2313Z" fill="#C7C7C7"/>
<path d="M62.1668 64.6081C62.0941 64.6809 29.3998 63.0805 29.1401 62.7687C29.0621 62.6752 28.3711 59.2976 28.8855 56.9645C30.8129 48.2453 38.6371 25.2469 41.1205 22.1915C41.7959 21.3654 43.9416 21.1887 45.7599 21.4693C46.2639 21.542 46.7367 21.6563 47.1523 21.7966C47.1627 21.7966 47.1783 21.807 47.199 21.8122C47.6199 21.9629 47.9732 22.1448 48.2173 22.3474C53.1685 26.5356 61.8447 55.0939 62.385 57.8063C62.8578 60.155 62.2811 64.4938 62.1668 64.6185V64.6081Z" fill="#C7C7C7"/>
<path opacity="0.1" d="M50.1137 61.3917L48.0667 56.3982L48.1498 56.4449C47.3186 56.5541 46.4821 56.3462 45.7704 55.9253C45.0534 55.5044 44.4975 54.8497 44.0923 54.143L43.9312 53.878C43.8845 53.7845 43.8481 53.6909 43.8013 53.5974L43.5467 53.0362C43.4221 52.6465 43.2818 52.262 43.1779 51.8671C43.0948 51.467 42.9908 51.0721 42.9285 50.672L42.7674 49.4612L42.9181 49.6067L35.2394 49.1754L35.4316 49.0092C35.3641 49.6535 35.2498 50.2718 35.0939 50.8902C34.9381 51.5085 34.7407 52.1165 34.4757 52.7037C34.2107 53.2856 33.899 53.8624 33.4574 54.3457C33.0262 54.8341 32.4807 55.2394 31.852 55.4732L31.9715 55.3433L30.6883 60.2797L30.5272 60.0615C33.7691 60.2537 37.0006 60.4772 40.2581 60.7058L50.1033 61.3917H50.1137ZM50.1137 61.3917L40.3724 60.9241C37.0993 60.7682 33.8055 60.6071 30.5168 60.4148L30.3038 60.4044L30.3558 60.1966L31.6131 55.2498L31.639 55.1563L31.7378 55.1199C32.2937 54.9121 32.7768 54.5483 33.1769 54.0963C33.5821 53.6494 33.8782 53.1038 34.1328 52.5478C34.3874 51.9918 34.5848 51.3994 34.7355 50.8019C34.8861 50.2043 35.0056 49.5859 35.0732 48.9832L35.0939 48.8065L35.2706 48.8169L42.9493 49.2898L43.0844 49.3002L43.1 49.4353L43.2402 50.6252C43.2922 51.0201 43.3961 51.4098 43.4688 51.7995C43.5623 52.1892 43.6922 52.5634 43.8117 52.9427L44.0455 53.4883C44.0871 53.5766 44.1234 53.6702 44.165 53.7585L44.3157 54.0131C44.6949 54.7042 45.2145 55.3329 45.8898 55.7434C46.5549 56.1488 47.3601 56.3774 48.1342 56.289H48.1966L48.2174 56.3358L50.124 61.3865L50.1137 61.3917Z" fill="black"/>
<path d="M51.7917 25.5795C61.5538 35.2132 70.443 50.9577 69.6013 59.1054C68.7701 67.1491 66.0581 66.0527 65.2684 65.9124C60.4524 65.0446 51.5527 41.3915 49.1057 31.8825C46.6743 22.441 49.3759 23.1996 51.7917 25.5795V25.5795Z" fill="#C7C7C7"/>
<path d="M59.5276 58.9079C59.0808 57.8322 58.6132 56.767 58.182 55.681L56.8572 52.4542C55.9844 50.2978 55.0908 48.1465 54.2543 45.9797C53.3711 43.8285 52.5399 41.6565 51.719 39.4793C51.3034 38.3933 50.8981 37.3021 50.5137 36.2057C50.1084 35.1145 49.75 34.0077 49.3811 32.9009C49.8695 35.182 50.5708 37.4112 51.3086 39.6248C52.0515 41.8383 52.888 44.0104 53.7296 46.1876C54.6128 48.344 55.5012 50.5004 56.4572 52.6257C57.4183 54.7509 58.4106 56.8606 59.5276 58.9079V58.9079Z" fill="#263238"/>
<path d="M50.2071 35.7224C50.0513 35.3223 49.859 34.9585 49.6668 34.6C49.5629 34.4233 49.4694 34.2415 49.3603 34.0648C49.2512 33.8881 49.1525 33.7063 49.0226 33.5348C49.059 33.9661 49.22 34.3662 49.4226 34.7351C49.6304 35.0988 49.8798 35.447 50.2123 35.7224H50.2071Z" fill="#263238"/>
<path d="M41.8791 29.8352C41.8791 29.8352 47.0121 24.4883 50.4462 24.4987L53.4387 26.9929C53.4387 26.9929 54.4051 27.2787 54.6804 26.6603C55.3662 25.1378 55.3974 21.5109 52.2074 19.2557C49.2877 17.1928 43.4429 17.8164 39.5724 18.9647C35.8577 20.0715 33.8627 22.3371 35.0888 24.7429C36.3149 27.1488 41.8739 29.83 41.8739 29.83L41.8791 29.8352Z" fill="#C7C7C7"/>
<path opacity="0.1" d="M41.4687 28.7023C41.4687 28.7023 37.0786 25.7717 36.5747 23.9634C36.0759 22.1551 39.6607 20.3053 41.9882 19.5518C45.5938 18.3827 48.0772 18.5386 50.1813 20.4196C52.2802 22.2954 41.4687 28.7023 41.4687 28.7023Z" fill="black"/>
<path d="M41.4687 28.7024C43.2039 28.7855 46.3056 26.1822 47.0485 23.5893C47.1004 23.4126 46.477 21.7966 45.8172 19.7961C45.4223 18.5802 45.0119 17.2188 44.721 15.9509C44.6638 15.6911 37.1981 19.6818 37.1981 19.6818C37.1981 19.6818 38.5801 22.1655 39.0632 24.3843C39.0996 24.5714 39.1204 24.748 39.1256 24.9195C39.1256 24.9455 39.1256 24.9767 39.136 25.0079C39.1983 26.0315 39.6088 28.6192 41.4635 28.7076L41.4687 28.7024Z" fill="#AD6359"/>
<path d="M39.1308 24.9143C39.1308 24.9143 39.136 24.9715 39.1412 25.0027C39.3958 24.9819 39.6712 24.9351 39.9673 24.8624C44.6275 23.7036 44.5444 17.5565 44.4457 16.0184C43.0793 16.5381 37.2034 19.6818 37.2034 19.6818C37.2034 19.6818 38.5853 22.1707 39.0737 24.3843C39.1101 24.5714 39.1308 24.7481 39.1308 24.9143Z" fill="#263238"/>
<path d="M46.5185 11.8043C46.5185 11.8043 46.8146 13.7737 47.1211 14.4128C47.4277 15.0571 49.0902 15.4676 49.0902 15.4676C49.0902 15.4676 47.4744 16.4185 46.9601 16.3978C46.4457 16.377 45.4015 15.2702 45.4015 15.2702C45.4015 15.2702 46.5289 17.1512 47.251 17.12C47.703 17.0993 46.1964 17.411 46.1964 17.411C46.1964 17.411 45.3859 17.5357 44.7573 17.0577C44.1286 16.5744 46.5237 11.8095 46.5237 11.8095L46.5185 11.8043Z" fill="#263238"/>
<path d="M44.2325 5.73517C45.7132 8.37484 45.9989 16.8654 44.3884 19.1258C42.0505 22.3994 37.3331 23.6932 34.325 20.6794C31.4104 17.7592 31.2286 6.68088 33.1145 4.54004C35.8888 1.38075 42.0453 1.83802 44.2325 5.73517V5.73517Z" fill="#AD6359"/>
<path d="M37.5411 12.9423C37.5411 12.9423 37.5878 12.9683 37.5878 12.9891C37.5878 13.5607 37.6917 14.2154 38.2165 14.3869C38.2321 14.3921 38.2321 14.4232 38.2165 14.4181C37.5826 14.3557 37.4579 13.4827 37.5463 12.9371L37.5411 12.9423Z" fill="#263238"/>
<path d="M38.0242 12.3239C38.9386 12.22 39.0841 14.0595 38.2372 14.1582C37.4008 14.2569 37.2553 12.4123 38.0242 12.3239Z" fill="#263238"/>
<path d="M34.3355 13.2436C34.3355 13.2436 34.2939 13.2748 34.2939 13.2956C34.3563 13.8671 34.3303 14.5271 33.8316 14.7557C33.816 14.7609 33.8212 14.7921 33.8367 14.7869C34.4602 14.6466 34.481 13.7684 34.3303 13.2384L34.3355 13.2436Z" fill="#263238"/>
<path d="M33.7796 12.6876C32.8548 12.6876 32.9276 14.5375 33.7796 14.5323C34.6213 14.5323 34.5485 12.6824 33.7796 12.6876Z" fill="#263238"/>
<path d="M38.6891 11.425C38.4346 11.3834 38.206 11.3003 37.9566 11.2276C37.6761 11.1496 37.4475 11.1184 37.2448 10.8846C37.1409 10.7599 37.1617 10.5209 37.2708 10.4066C37.5306 10.1416 37.8943 10.1519 38.2372 10.2299C38.606 10.3182 38.871 10.4793 39.1048 10.7807C39.3282 11.0717 39.0268 11.477 38.6891 11.4198V11.425Z" fill="#263238"/>
<path d="M32.9379 11.2067C33.1925 11.1444 33.4107 11.0456 33.6549 10.9573C33.9303 10.8586 34.1588 10.8118 34.3407 10.5676C34.4394 10.4377 34.3978 10.1987 34.2835 10.0947C34.0082 9.84532 33.6445 9.88169 33.3068 9.99081C32.9431 10.1051 32.6938 10.2818 32.4808 10.5988C32.2781 10.9053 32.6054 11.2899 32.9379 11.2067V11.2067Z" fill="#263238"/>
<path d="M38.6996 18.0085C38.5749 18.154 38.4502 18.3463 38.2476 18.3827C38.0502 18.4139 37.8112 18.3411 37.6242 18.2891C37.6034 18.2839 37.5878 18.3047 37.6034 18.3203C37.7696 18.5282 38.0917 18.6425 38.3515 18.5749C38.6061 18.5074 38.7152 18.2788 38.7619 18.0345C38.7671 17.9982 38.7256 17.993 38.7048 18.0137L38.6996 18.0085Z" fill="#263238"/>
<path d="M37.967 16.3458C37.6864 16.8654 37.2396 17.172 36.7357 17.3123C36.5123 17.3746 36.2733 17.4006 36.0395 17.4006C35.9928 17.4006 35.946 17.4006 35.9044 17.4006C35.8629 17.4006 35.8265 17.4006 35.7798 17.3902C35.7122 17.3902 35.6706 17.333 35.6551 17.2707C35.6551 17.2707 35.6551 17.2291 35.6551 17.2083V17.1564C35.6083 16.7199 35.5979 16.0444 35.5979 16.0444C35.4421 16.1379 34.6524 16.5692 34.6472 16.3406C34.6108 14.4336 34.5744 12.3083 34.9433 10.4013C34.9537 10.3389 35.0472 10.3441 35.0472 10.4065C35.1511 12.2408 34.9381 14.0802 35.0108 15.9249C35.2654 15.8054 35.6758 15.5871 35.9044 15.5767C35.9668 15.5923 35.9044 16.8758 35.9356 17.068C35.9356 17.068 35.9356 17.0784 35.9408 17.0888C36.6837 17.1252 37.2241 16.8602 37.9046 16.3094C37.9462 16.273 37.993 16.3094 37.9618 16.3562L37.967 16.3458Z" fill="#263238"/>
<path d="M36.2838 17.1563C36.2838 17.1563 36.715 17.65 37.2605 17.8007C37.4631 17.8578 37.6761 17.8682 37.8943 17.7903C38.3411 17.6344 38.3203 17.2135 38.206 16.8653C38.1177 16.5744 37.9567 16.3353 37.9567 16.3353C37.9567 16.3353 37.3384 17.0108 36.2786 17.1615L36.2838 17.1563Z" fill="#263238"/>
<path d="M37.2605 17.7954C37.4631 17.8526 37.6761 17.863 37.8943 17.785C38.3411 17.6291 38.3204 17.2083 38.2061 16.8601C37.7229 16.9484 37.2657 17.3174 37.2605 17.7954V17.7954Z" fill="#FF9BBC"/>
<path d="M45.4431 12.8228C43.8793 12.7189 42.0609 7.93317 42.0609 7.93317L42.3622 10.7131C42.3622 10.7131 41.027 10.0428 40.2322 8.93603C39.6659 8.14621 39.5204 6.90432 39.5308 6.27558C39.5308 6.27558 38.2683 8.34367 36.4915 9.24781C35.8369 9.58036 30.7247 10.656 30.6571 10.339C30.4545 9.3933 31.7378 5.57929 32.834 4.42573C34.0965 3.1007 35.998 1.67175 39.3022 2.18097C42.6064 2.6902 43.8273 4.48289 44.6066 5.90665C45.3859 7.33041 46.0146 12.8644 45.4379 12.8228H45.4431Z" fill="#263238"/>
<path d="M43.6404 12.9371C43.6404 12.9371 44.9704 9.91809 46.3056 10.3442C47.6408 10.7703 47.0017 14.8857 45.6925 15.6911C44.3833 16.4965 43.6144 15.2962 43.6144 15.2962L43.6404 12.9371Z" fill="#AD6359"/>
<path d="M46.0925 11.5186C46.0925 11.5186 46.1237 11.5445 46.1081 11.5549C45.1989 12.1525 44.856 13.1709 44.6794 14.1998C44.9028 13.7737 45.2612 13.4931 45.8223 13.7477C45.8535 13.7633 45.8327 13.8049 45.8068 13.8049C45.3859 13.7997 45.1054 13.9244 44.8976 14.3037C44.7469 14.5739 44.6742 14.8909 44.5858 15.1819C44.5547 15.2806 44.3884 15.265 44.404 15.1559C44.404 15.1455 44.404 15.1403 44.404 15.1299C44.1286 13.8724 44.7625 11.9083 46.0925 11.5186V11.5186Z" fill="#263238"/>
<path d="M35.2914 2.50833C36.1174 1.91596 37.1201 1.26644 38.3514 0.840347C39.5827 0.414258 43.6351 -0.126146 44.7625 0.471417C45.8899 1.06898 46.9393 4.77387 47.0796 5.31428C47.2199 5.85988 47.6823 9.23221 46.6484 10.2922C45.6145 11.3471 44.3001 5.72997 42.0037 4.25945C39.7074 2.78892 35.2914 2.50833 35.2914 2.50833V2.50833Z" fill="#7BDADB"/>
<path opacity="0.1" d="M35.2914 2.51359C35.2914 2.51359 39.7074 2.79418 42.0038 4.26471C44.3001 5.73003 45.6145 11.3523 46.6484 10.2975C47.1056 9.82984 47.251 9.25306 47.2822 8.32294C46.6796 6.7277 45.4691 4.31147 43.7182 2.83055C42.0765 1.44317 39.6866 1.07424 37.2552 1.30807C36.5071 1.677 35.8577 2.10828 35.2914 2.51359V2.51359Z" fill="black"/>
<path d="M47.0328 13.7165C46.6068 12.2356 44.2222 8.53068 42.1284 6.56652C40.0347 4.59716 35.0316 4.25421 34.3822 4.43088C32.8028 4.86216 32.3612 5.46492 32.0754 5.37659C31.7897 5.28825 33.182 3.73459 33.5769 3.36566C33.9717 3.00192 35.0472 2.10818 35.7486 1.97308C36.4499 1.84317 40.8296 1.35473 42.7778 2.85643C44.7261 4.35293 48.0199 9.01393 47.8952 10.4169C47.8641 10.7547 47.49 11.0456 47.4485 11.5185C47.3965 12.142 47.4173 12.8487 47.329 13.2956C47.2562 13.6541 47.0692 13.8464 47.0328 13.7165V13.7165Z" fill="#7BDADB"/>
<path d="M41.5362 5.60518C41.8583 5.29861 42.1493 4.97644 42.4142 4.6231C42.674 4.26976 42.9286 3.89044 43.1 3.48513C43.1104 3.45396 43.1572 3.46954 43.1468 3.50072C43.0065 3.9424 42.8351 4.3581 42.5649 4.73742C42.3051 5.10115 41.9622 5.43371 41.583 5.67793C41.5414 5.70391 41.4999 5.64156 41.531 5.61038L41.5362 5.60518Z" fill="#263238"/>
<path d="M46.7263 12.2095C46.7471 12.09 46.7939 11.9809 46.8251 11.8665C46.8562 11.7366 46.8822 11.6015 46.8874 11.4664C46.8978 11.2066 46.8355 10.9572 46.903 10.6974C46.955 10.4947 47.0537 10.3077 47.1472 10.1206C47.2563 9.90757 47.3602 9.68933 47.3134 9.44511C47.3082 9.41393 47.355 9.40354 47.3654 9.43472C47.4641 9.89198 47.2251 10.2817 47.1056 10.7078C47.0277 10.978 47.0952 11.2586 47.0641 11.534C47.0381 11.7678 46.9757 12.0744 46.7991 12.2459C46.7731 12.2718 46.716 12.2511 46.7212 12.2095H46.7263Z" fill="#263238"/>
<path d="M45.8639 10.6922C45.9678 10.4896 46.0924 10.3025 46.1756 10.0895C46.2587 9.88681 46.3262 9.67377 46.3782 9.45553C46.4302 9.24248 46.4717 9.02944 46.5185 8.81639C46.5756 8.56698 46.6691 8.31756 46.7159 8.06814C46.7211 8.03696 46.773 8.05255 46.7627 8.08373C46.7159 8.34354 46.7107 8.61894 46.6691 8.87875C46.6328 9.10738 46.5756 9.33082 46.5133 9.55426C46.4509 9.7673 46.373 9.97515 46.2743 10.1726C46.1808 10.3597 46.0457 10.5727 45.8795 10.7026C45.8691 10.713 45.8483 10.7026 45.8587 10.687L45.8639 10.6922Z" fill="#263238"/>
<path d="M45.0015 9.34121C45.256 9.00865 45.4742 8.63453 45.6249 8.24481C45.7704 7.86029 45.895 7.46538 46.0145 7.07047C46.0249 7.04449 46.0665 7.04968 46.0665 7.08086C46.0093 7.50695 45.9522 7.92784 45.7911 8.33314C45.7132 8.5254 45.6301 8.72286 45.5106 8.88914C45.3807 9.07101 45.2197 9.23209 45.0482 9.37758C45.0274 9.39837 44.9859 9.36719 45.0066 9.3464L45.0015 9.34121Z" fill="#263238"/>
<path d="M44.1079 8.05779C44.2585 7.92269 44.3365 7.75122 44.4196 7.56935C44.5131 7.37189 44.6014 7.17444 44.6898 6.97179C44.7677 6.77953 44.856 6.58727 44.9339 6.39501C45.0119 6.20275 45.095 6.0001 45.0846 5.78705C45.0846 5.75588 45.1314 5.75588 45.1365 5.78705C45.1729 6.0001 45.1365 6.20275 45.0898 6.4106C45.0378 6.63923 44.9651 6.85747 44.8768 7.07052C44.7833 7.27836 44.6846 7.48621 44.5651 7.68367C44.4612 7.85514 44.3365 8.03701 44.1494 8.12015C44.1131 8.13574 44.0767 8.09417 44.1079 8.06299V8.05779Z" fill="#263238"/>
<path d="M43.3026 6.36378C43.4117 6.1975 43.5208 6.03122 43.6195 5.85455C43.7182 5.68308 43.8066 5.50121 43.8897 5.32454C43.978 5.13747 44.0715 4.95041 44.1495 4.75296C44.1598 4.72178 44.2066 4.73737 44.1962 4.76854C44.1547 4.97639 44.1079 5.17385 44.0352 5.3765C43.9624 5.56876 43.8741 5.75582 43.7754 5.93769C43.6767 6.11436 43.5728 6.29623 43.4533 6.45731C43.339 6.61839 43.2091 6.80026 43.0377 6.90418C43.0117 6.91977 42.9753 6.89379 42.9857 6.86261C43.0584 6.68075 43.1935 6.52486 43.3026 6.36378V6.36378Z" fill="#263238"/>
<path d="M40.2009 4.99718C40.31 4.77894 40.4139 4.57109 40.5438 4.36324C40.6737 4.15539 40.8192 3.95274 40.975 3.76048C41.2764 3.38116 41.5985 3.02782 41.9725 2.72644C41.9933 2.71085 42.0297 2.73164 42.0141 2.75762C41.4322 3.51626 40.8192 4.25412 40.2425 5.02316C40.2217 5.04914 40.1853 5.02316 40.2009 4.99718V4.99718Z" fill="#263238"/>
<path d="M39.0216 3.90084C39.1359 3.68779 39.271 3.49034 39.4269 3.30847C39.7594 2.92915 40.1594 2.61737 40.5647 2.31599C40.5906 2.29521 40.6218 2.32639 40.601 2.35237C40.2685 2.69532 39.9256 3.03307 39.6087 3.39161C39.4529 3.56828 39.297 3.75015 39.1671 3.9476C39.032 4.14506 38.9437 4.3633 38.8138 4.56075C38.8034 4.57634 38.7775 4.57115 38.7775 4.55036C38.7982 4.32693 38.9125 4.09829 39.0216 3.90084V3.90084Z" fill="#263238"/>
<path d="M37.6396 3.57866C37.7436 3.37081 37.8682 3.17855 38.0085 2.99668C38.2787 2.64854 38.6008 2.35755 38.9697 2.11852C38.9956 2.10293 39.0216 2.13931 39.0008 2.16009C38.6839 2.45628 38.3878 2.78364 38.1228 3.13178C37.9929 3.30845 37.8683 3.49032 37.7436 3.66699C37.6189 3.84366 37.5254 4.05671 37.3851 4.22298C37.3747 4.23857 37.3539 4.22299 37.3591 4.2074C37.4162 3.99435 37.5461 3.78131 37.6448 3.58385L37.6396 3.57866Z" fill="#263238"/>
<path d="M36.5799 3.02268C36.7097 2.8616 36.85 2.70571 36.9903 2.54983C37.1306 2.39914 37.2708 2.24845 37.4527 2.14452C37.4787 2.12894 37.4994 2.16531 37.4839 2.18609C37.2293 2.49787 36.9799 2.81483 36.7305 3.12661C36.4967 3.42279 36.3721 3.77094 36.2006 4.10349C36.1954 4.11908 36.1694 4.10869 36.1694 4.0931C36.2058 3.69819 36.3305 3.32926 36.5851 3.01749L36.5799 3.02268Z" fill="#263238"/>
<path d="M35.3953 3.01749C35.6239 2.66934 35.9304 2.41473 36.2681 2.1809C36.2889 2.16531 36.3201 2.20169 36.2993 2.22247C35.9928 2.4615 35.7486 2.78366 35.5304 3.10063C35.307 3.42799 35.146 3.78133 35.0005 4.14506C34.9953 4.16065 34.9641 4.16065 34.9641 4.13987C35.0109 3.73976 35.1771 3.35524 35.3953 3.01749Z" fill="#263238"/>
<path d="M34.0601 4.00478C34.0809 3.91645 34.1069 3.83331 34.138 3.75017C34.2004 3.58389 34.2887 3.42281 34.3874 3.27212C34.5848 2.96035 34.8446 2.70054 35.0992 2.43553C35.1199 2.40955 35.1563 2.45112 35.1355 2.4719C34.8809 2.72652 34.6679 3.01231 34.4809 3.31889C34.3874 3.46958 34.3147 3.62546 34.2419 3.78654C34.2107 3.86449 34.1796 3.94762 34.1536 4.02557C34.1276 4.10351 34.112 4.19704 34.0757 4.26459C34.0653 4.28538 34.0341 4.28018 34.0289 4.2594C34.0133 4.18145 34.0393 4.08792 34.0601 4.00998V4.00478Z" fill="#263238"/>
<path d="M33.1769 4.28019C33.2392 4.14509 33.3067 4.00999 33.3795 3.88528C33.4574 3.75537 33.5353 3.63586 33.6288 3.51635C33.7224 3.39684 33.8211 3.28252 33.9094 3.15781C33.9302 3.12663 33.9717 3.15781 33.951 3.18899C33.8522 3.3085 33.7743 3.43841 33.7016 3.57351C33.6289 3.69822 33.5561 3.82293 33.4886 3.94763C33.4158 4.07234 33.3431 4.19705 33.2756 4.32176C33.2028 4.44647 33.1457 4.59196 33.0626 4.70628C33.047 4.72706 33.021 4.71148 33.0262 4.69069C33.0522 4.55039 33.1249 4.4101 33.1821 4.28019H33.1769Z" fill="#263238"/>
<path d="M41.4686 28.7024C41.4686 28.7024 45.4898 21.381 50.7683 20.5028L50.4462 24.4987C50.4462 24.4987 47.2822 24.6078 41.8791 29.8352L41.4686 28.6972V28.7024Z" fill="#C7C7C7"/>
<path d="M51.8801 24.5298C50.9034 24.4415 49.9475 24.6857 49.0487 25.0027C48.1395 25.3249 47.2926 25.7821 46.4822 26.3017C45.6665 26.811 44.9028 27.4033 44.1599 28.0165L43.0792 28.983L42.0454 29.9962L41.9311 30.1106L41.796 30.0482C40.7829 29.5701 39.8165 29.0245 38.8866 28.4166C38.4242 28.11 37.9618 27.7982 37.5358 27.4345C37.1098 27.076 36.6942 26.7018 36.3461 26.2706C37.1565 27.0292 38.0969 27.606 39.0425 28.162C39.5152 28.4374 40.0036 28.692 40.4971 28.9362C40.9907 29.1804 41.4843 29.4247 41.983 29.6429L41.7336 29.6949L42.7675 28.6452C43.126 28.3075 43.4949 27.9853 43.8637 27.6579C44.2534 27.3514 44.6326 27.0396 45.0327 26.7538C45.4431 26.4784 45.8379 26.1874 46.2744 25.9484C47.116 25.434 48.0304 25.0339 48.9759 24.7533C49.2097 24.6805 49.4539 24.6286 49.6929 24.5714C49.9371 24.535 50.1813 24.4883 50.4254 24.4675C50.9138 24.4207 51.4177 24.4207 51.8905 24.535L51.8801 24.5298Z" fill="#263238"/>
<path d="M53.4439 26.9928C52.888 26.6499 52.3737 26.2498 51.8697 25.8393C51.3762 25.4184 50.8878 24.9871 50.4514 24.4987C51.0125 24.8416 51.5217 25.2417 52.0256 25.6522C52.5192 26.0731 53.0075 26.5044 53.4439 26.9928Z" fill="#263238"/>
<path d="M43.6507 26.9253C43.6507 26.9253 44.3365 28.9102 44.7625 31.8513C44.9288 33.0152 44.9911 37.2553 43.6767 37.2605C42.3623 37.2657 44.1443 34.3091 44.243 32.0539C44.3469 29.7676 43.5572 28.2555 43.313 26.9461L43.6455 26.9253H43.6507Z" fill="#7BDADB"/>
<g opacity="0.1">
<path d="M43.6507 26.9253C43.6507 26.9253 44.3365 28.9102 44.7625 31.8513C44.9288 33.0152 44.9911 37.2553 43.6767 37.2605C42.3623 37.2657 44.1443 34.3091 44.243 32.0539C44.3469 29.7676 43.5572 28.2555 43.313 26.9461L43.6455 26.9253H43.6507Z" fill="black"/>
</g>
<path d="M38.8762 27.2371C38.8762 27.2371 38.4917 29.1025 38.4554 31.7942C38.4398 32.8594 38.8814 36.6786 40.0659 36.5331C41.2504 36.3876 39.3022 33.935 38.9437 31.9189C38.5852 29.8768 39.1152 28.4218 39.1775 27.2163L38.8762 27.2371V27.2371Z" fill="#7BDADB"/>
<g opacity="0.1">
<path d="M38.8762 27.2371C38.8762 27.2371 38.4917 29.1025 38.4554 31.7942C38.4398 32.8594 38.8814 36.6786 40.0659 36.5331C41.2504 36.3876 39.3022 33.935 38.9437 31.9189C38.5852 29.8768 39.1152 28.4218 39.1775 27.2163L38.8762 27.2371V27.2371Z" fill="black"/>
</g>
<path d="M17.0817 41.7708C17.5181 37.9568 18.4688 32.6307 19.7988 31.4875C21.1964 30.2872 26.2826 26.2706 27.7633 25.7198C29.244 25.169 35.8524 22.4721 37.0941 23.1528C38.0864 23.6984 36.985 26.3017 33.847 27.6112C31.0831 28.7647 29.6752 29.8092 28.8855 30.1729C28.0802 30.5418 26.1891 33.2231 26.7502 34.3766C27.0827 35.0573 29.0985 35.816 30.3246 35.2236C31.5507 34.6313 31.8053 32.1683 33.1924 30.9731C34.5848 29.778 37.0889 29.8611 37.25 30.5366C37.411 31.207 36.5902 31.5447 35.3641 33.8726C34.5744 35.3691 34.6055 38.9181 32.7976 41.5006C31.8884 42.7997 30.335 46.2396 30.335 46.2396L17.0869 41.776L17.0817 41.7708Z" fill="#AD6359"/>
<path d="M34.4912 29.8871C34.9276 29.778 35.4004 29.6325 35.7173 29.2947C35.8524 29.1544 35.9563 28.9777 35.9875 28.7803C36.0031 28.6764 36.0031 28.5672 35.9875 28.4633C35.9719 28.3698 35.9407 28.2191 35.8576 28.1619C35.8316 28.1463 35.868 28.1152 35.8836 28.1359C35.9147 28.1931 35.9667 28.2347 36.0031 28.2866C36.0342 28.3282 36.0602 28.3802 36.0758 28.4269C36.1174 28.5257 36.1382 28.6296 36.1382 28.7335C36.1382 28.9673 36.0498 29.1908 35.9044 29.3726C35.5615 29.8039 35.016 29.9286 34.4912 29.9182C34.4704 29.9182 34.4652 29.8871 34.4912 29.8819V29.8871Z" fill="#263238"/>
<path d="M19.7988 31.4875C20.9626 29.5597 23.9707 26.0679 27.0048 24.8208C29.0569 23.979 36.2577 27.2734 36.0862 28.64C35.9096 30.0066 34.6939 30.0378 32.8911 29.8715C32.2313 29.8091 28.7348 28.6452 28.1581 29.3882C27.3321 30.4535 26.3398 34.0596 26.3398 34.0596L19.804 31.4927L19.7988 31.4875Z" fill="#AD6359"/>
<path d="M35.8939 28.1099C34.9795 26.6758 33.0261 25.9431 31.0882 25.3767C31.0571 25.3663 31.0415 25.4131 31.0727 25.4235C31.5662 25.569 34.7354 26.9356 35.8731 28.1359C35.8835 28.1515 35.9043 28.1255 35.8939 28.1099V28.1099Z" fill="#263238"/>
<path d="M19.7988 31.4875C20.9626 29.5597 23.9707 26.0678 27.0048 24.8208C29.0569 23.979 34.7978 28.2814 34.6211 29.648C34.4445 31.0146 32.6989 31.1653 30.7558 30.5366C30.1272 30.3339 27.9971 28.9102 27.4256 29.6532C26.5995 30.7184 24.5889 33.3685 24.5889 33.3685L19.804 31.4875H19.7988Z" fill="#AD6359"/>
<path d="M25.7371 31.7265C25.9241 31.4251 25.9865 31.316 26.1787 31.0146C26.3709 30.7132 26.5683 30.417 26.7813 30.1312C26.9632 29.887 27.145 29.6116 27.4048 29.4401C27.6542 29.2739 27.9607 29.2323 28.2568 29.2531C28.927 29.2999 29.5453 29.7104 30.1167 30.0221C30.761 30.3703 32.091 30.9315 33.0937 30.7964C33.369 30.76 33.6444 30.708 33.8834 30.5625C34.0392 30.469 34.2522 30.3495 34.351 30.1728C34.7718 29.4194 34.2055 28.588 33.6288 28.0008C32.5638 26.9096 31.1454 26.1302 29.7687 25.5014C29.431 25.3455 29.0881 25.2001 28.7504 25.0546C28.3607 24.8883 27.9555 24.7272 27.5191 24.7324C26.8177 24.7428 25.6903 25.4806 25.337 25.7093C25.3111 25.7249 25.2903 25.6833 25.3163 25.6677C25.7423 25.3871 26.7865 24.4882 27.9191 24.5193C28.3348 24.5297 28.7244 24.7324 29.1037 24.8883C29.5037 25.0494 29.8933 25.2208 30.283 25.4027C31.0363 25.756 31.7741 26.1562 32.465 26.6238C33.1197 27.0655 33.8158 27.5851 34.2678 28.245C34.6575 28.8166 34.7926 29.6376 34.4393 30.256C34.1431 30.7756 33.4885 30.9159 33.1872 30.9626C32.8859 31.0094 32.6001 31.0094 32.2936 30.9782C31.9819 30.9419 30.8285 30.6405 30.3453 30.4586C29.7271 30.23 29.166 29.8299 28.5322 29.6532C28.2308 29.5701 27.8983 29.5753 27.6178 29.7363C27.358 29.887 27.1502 30.1572 26.9476 30.3755C26.5008 30.8691 26.2047 31.1913 25.841 31.7577C25.7527 31.8928 25.6591 31.8564 25.7371 31.7265V31.7265Z" fill="#263238"/>
<path d="M18.9417 33.1607C19.3625 32.2461 20.0223 28.5101 20.7133 27.3513C21.4042 26.1926 24.5838 22.1707 26.1216 22.3058C28.0491 22.4721 26.132 25.9899 25.1553 27.4397C24.1837 28.8894 24.4123 31.3108 24.4123 31.3108L18.9417 33.1555V33.1607Z" fill="#AD6359"/>
<path d="M26.5009 25.0442C26.1528 25.5066 25.8463 26.0159 25.5502 26.5043C25.2644 26.972 24.9371 27.4344 24.7241 27.9385C24.5111 28.4477 24.4228 28.9881 24.3864 29.5337C24.3656 29.8039 24.3656 30.0689 24.3708 30.3391C24.376 30.6301 24.4072 30.9263 24.4072 31.2225C24.4072 31.2536 24.4539 31.2588 24.4539 31.2225C24.4643 30.6924 24.5475 30.1468 24.6254 29.622C24.7085 29.0764 24.8592 28.5308 25.067 28.0216C25.493 27.0031 26.1268 26.0886 26.5632 25.0754C26.5788 25.0338 26.5217 25.0078 26.4957 25.0442H26.5009Z" fill="#263238"/>
<path d="M24.4435 31.7213C24.3448 32.6462 24.641 33.5712 24.9994 34.4129C25.1865 34.839 25.3995 35.2495 25.6437 35.6444C25.893 36.0394 26.184 36.4135 26.4697 36.7616C27.0412 37.4579 27.5452 38.1698 27.9244 38.9752C28.3037 39.7754 28.5478 40.638 28.7245 41.5369C28.7557 40.6276 28.6466 39.6923 28.3192 38.8141C28.0075 37.9308 27.4828 37.1306 26.9113 36.4187C26.3242 35.7172 25.8463 35.0105 25.4151 34.2155C25.0046 33.4309 24.5838 32.6306 24.4435 31.7265V31.7213Z" fill="#263238"/>
<path d="M20.8691 63.5221C24.5993 62.8882 26.8333 56.5332 30.7298 45.3614C31.4156 43.4024 21.212 31.8461 19.9391 33.6647C18.339 35.9562 14.2502 48.5622 13.8918 51.9709C13.1852 58.6896 16.5102 64.2599 20.8639 63.5169L20.8691 63.5221Z" fill="#AD6359"/>
<path d="M28.6881 51.5916L16.2037 40.269C16.2037 40.269 13.1228 50.49 13.5904 54.7145C14.058 58.939 15.6997 63.7143 20.8068 63.8026C24.6305 63.8702 28.6881 51.5916 28.6881 51.5916V51.5916Z" fill="#C7C7C7"/>
<path d="M25.0618 59.8535C25.4774 59.2196 25.8411 58.5597 26.1995 57.8945C26.558 57.2294 26.8853 56.5487 27.2022 55.868C27.5088 55.1821 27.8101 54.4858 28.0647 53.774C28.3192 53.0621 28.5634 52.3398 28.6881 51.5916C28.392 52.2878 28.0802 52.9685 27.7633 53.6492L26.8178 55.6914C26.5113 56.3772 26.1995 57.058 25.9086 57.7542C25.6125 58.4453 25.3215 59.1416 25.0618 59.8535V59.8535Z" fill="#263238"/>
<path d="M26.158 53.7272C25.5501 53.1036 24.8851 52.5321 24.2409 51.9449C23.5967 51.3577 22.9472 50.7757 22.2874 50.2042C20.973 49.061 19.6534 47.923 18.313 46.8058C17.9493 46.4993 17.5805 46.1927 17.2116 45.8965C16.8167 45.5743 16.3751 45.3041 15.9855 44.982C15.9543 44.956 15.9179 45.0028 15.9439 45.0287C16.2608 45.3145 16.5414 45.6471 16.8531 45.9433C17.1752 46.2499 17.5077 46.546 17.8402 46.837C18.4896 47.4138 19.1443 47.9906 19.8041 48.5622C21.1185 49.7053 22.4381 50.8485 23.7889 51.9501C24.5526 52.5736 25.3007 53.2231 26.1008 53.7999C26.1476 53.8363 26.1995 53.774 26.158 53.7324V53.7272Z" fill="#263238"/>
<path d="M39.1359 27.5592L42.4194 43.8077C42.57 44.2858 42.3155 44.6599 41.8531 44.6391L33.5665 44.2442C33.1041 44.2234 32.6054 43.8129 32.4599 43.3349L29.1764 27.0864C29.0258 26.6083 29.2804 26.2342 29.7427 26.255L38.0293 26.6499C38.4917 26.6707 38.9904 27.076 39.1359 27.5592Z" fill="#37474F"/>
<path d="M38.154 27.5021L41.4374 43.7506C41.5881 44.2287 41.3335 44.6028 40.8711 44.582L32.5845 44.1871C32.1222 44.1663 31.6234 43.7558 31.478 43.2778L28.1945 27.0292C28.0438 26.5512 28.2984 26.1771 28.7608 26.1978L37.0474 26.5928C37.5097 26.6135 38.0085 27.0188 38.1592 27.5021H38.154Z" fill="#455A64"/>
<path d="M35.8473 28.1309C35.8369 28.5206 36.1434 28.8427 36.5331 28.8531C36.9227 28.8635 37.2448 28.5569 37.2552 28.1672C37.2656 27.7775 36.9591 27.4554 36.5694 27.445C36.1798 27.4346 35.8577 27.7411 35.8473 28.1309Z" fill="#263238"/>
<path d="M66.3854 66.0215C62.7382 66.1098 58.5768 62.8102 47.9315 53.0206C46.456 51.6644 53.2204 38.6947 54.8673 40.0613C56.9454 41.7812 64.6241 48.9052 65.1229 49.4976C69.3051 54.4911 68.8635 65.9643 66.3905 66.0215H66.3854Z" fill="#AD6359"/>
<path d="M58.5456 44.634C58.5456 44.634 55.7661 39.6196 53.4906 37.4372C50.4409 34.517 46.6067 33.2491 44.9702 32.8126C41.5517 31.9085 32.6521 32.08 32.2572 34.6521C31.8987 36.98 40.9854 36.3408 40.9854 36.3408C40.9854 36.3408 31.613 35.4627 31.6961 38.3466C31.7792 41.2305 42.2842 39.8898 42.2842 39.8898C42.2842 39.8898 32.6365 39.2039 33.1924 42.1606C33.6132 44.395 43.1934 43.7194 43.1934 43.7194C43.1934 43.7194 34.8964 43.1842 35.2289 45.5069C35.5978 48.0687 44.4818 47.9959 44.4818 47.9959C46.321 53.7481 49.6668 55.6863 52.1294 56.8295C52.7268 57.1049 58.5508 44.634 58.5508 44.634H58.5456Z" fill="#AD6359"/>
<path d="M44.2428 36.4396C43.1466 36.2941 42.0348 36.1434 40.9282 36.1018C39.8216 36.055 38.715 36.0498 37.6084 36.107C34.8964 36.2473 33.2235 36.7617 33.3275 36.7409C35.8576 36.2577 39.8164 36.3564 40.923 36.4032C42.0244 36.4499 43.1311 36.4396 44.2377 36.4811C44.2636 36.4811 44.2636 36.4448 44.2377 36.4396H44.2428Z" fill="#263238"/>
<path d="M44.1494 40.4354C42.7414 40.3159 41.3491 40.1392 39.9308 40.0821C38.5228 40.0249 37.1824 40.0873 35.7745 40.1288C35.6654 40.1288 35.7018 40.1912 35.8109 40.1912C37.2188 40.212 38.5176 40.3367 39.9256 40.3731C41.3283 40.4094 42.7414 40.3887 44.1442 40.477C44.165 40.477 44.165 40.4458 44.1442 40.4406L44.1494 40.4354Z" fill="#263238"/>
<path d="M44.6897 43.8805C42.544 43.5843 40.3516 43.683 38.2007 43.8337C38.0916 43.8389 38.1488 43.9117 38.2579 43.9065C40.4139 43.8805 42.1076 43.8493 44.6793 43.9532C44.7209 43.9532 44.7365 43.8857 44.6897 43.8805Z" fill="#263238"/>
<path d="M58.7535 42.7893L52.2905 58.9391C52.2905 58.9391 63.7462 67.5544 66.6712 65.954C69.5962 64.3483 68.9156 54.5223 66.2608 50.5057C65.1542 48.8325 58.7483 42.7893 58.7483 42.7893H58.7535Z" fill="#C7C7C7"/>
<path d="M58.5404 43.3245L58.7846 42.7997L58.7378 42.8101C59.7873 43.8857 60.8471 44.9562 61.8862 46.0474C62.9305 47.123 63.9695 48.2142 64.9463 49.3469C65.4294 49.9133 65.9282 50.4797 66.3282 51.0929C66.7334 51.7112 67.066 52.3763 67.3569 53.057C67.9284 54.4288 68.2453 55.9097 68.3648 57.4062C68.4167 55.8994 68.1829 54.3717 67.6582 52.9375C67.4036 52.2204 67.0608 51.5293 66.6555 50.8798C66.2451 50.2251 65.7567 49.6483 65.2684 49.0612C64.2709 47.9232 63.211 46.8476 62.1356 45.7927C61.0445 44.7535 59.938 43.7298 58.7846 42.7582L58.7534 42.7322L58.7378 42.7686L58.5508 43.3193L58.5404 43.3245Z" fill="#263238"/>
<path d="M60.9771 47.2321C60.6031 48.0168 60.2965 48.843 59.9692 49.6484C59.6419 50.459 59.325 51.2696 59.0185 52.0854C58.4054 53.717 57.7976 55.3486 57.2105 56.9906C57.0494 57.4375 56.8936 57.8896 56.7377 58.3416C56.5767 58.8249 56.4728 59.3289 56.3065 59.8121C56.2909 59.8485 56.3481 59.8693 56.3637 59.8329C56.5195 59.438 56.7377 59.0587 56.904 58.6638C57.0754 58.2533 57.2417 57.8428 57.4027 57.4271C57.7196 56.6165 58.0314 55.8007 58.3379 54.9849C58.9561 53.3533 59.564 51.7217 60.1303 50.0745C60.4472 49.1443 60.7953 48.2142 61.0602 47.2633C61.0758 47.2062 61.0031 47.1802 60.9771 47.2321V47.2321Z" fill="#263238"/>
<path d="M64.0008 65.8085C62.8474 65.7981 61.772 65.2318 60.7433 64.7641C58.6807 63.7612 56.774 62.483 54.9245 61.1372C53.9789 60.4461 53.0698 59.7082 52.1658 58.9703L52.1969 58.9028C52.4203 58.4351 52.6334 57.9675 52.8671 57.505C52.7165 58.0038 52.5502 58.4923 52.3892 58.9807L52.3528 58.8612C54.0257 59.9784 56.3636 61.5684 58.0261 62.6492C59.9484 63.7976 61.8031 65.2681 64.0008 65.8085V65.8085Z" fill="#263238"/>
</svg>
