<svg width="72" height="123" viewBox="0 0 72 123" fill="none" xmlns="http://www.w3.org/2000/svg">
<path d="M45.2013 23.1441C43.4427 23.1441 42.0138 21.7148 42.023 19.9512L42.0367 16.2819C42.0367 16.2819 39.3988 15.8742 39.3667 13.2356C39.3347 10.6016 39.7926 4.5456 39.7926 4.5456C42.8427 3.23546 46.3646 3.67523 48.9979 5.70457L48.3751 20.1894C48.256 21.8523 46.8729 23.1441 45.2059 23.1441H45.2013Z" fill="#B78876"/>
<path d="M42.0321 16.2498C42.0321 16.2498 43.6991 16.3872 45.4669 15.2741C45.4669 15.2741 44.6563 17.1706 42.0229 16.9324V16.2498H42.0321Z" fill="#AA6550"/>
<path d="M48.7002 8.74171C48.746 8.72339 50.5092 8.20574 50.4543 10.006C50.3947 11.8063 48.5995 11.3803 48.5995 11.3253C48.5995 11.2749 48.7002 8.73713 48.7002 8.73713V8.74171Z" fill="#B78876"/>
<path d="M49.1719 10.6611C49.1719 10.6611 49.204 10.684 49.2544 10.7115C49.3047 10.739 49.3917 10.7573 49.4879 10.7252C49.6803 10.6611 49.8497 10.3634 49.868 10.0381C49.8772 9.87319 49.8497 9.71745 49.7948 9.5846C49.7444 9.45175 49.6619 9.35555 49.5658 9.33723C49.4696 9.31433 49.4009 9.3693 49.378 9.41969C49.3505 9.47008 49.3643 9.50672 49.3551 9.50672C49.3505 9.50672 49.3185 9.47466 49.3322 9.40136C49.3414 9.36471 49.3643 9.32349 49.4055 9.29142C49.4513 9.25936 49.5154 9.24103 49.5795 9.25019C49.7169 9.26393 49.8406 9.39678 49.9001 9.53879C49.9688 9.68538 50.0054 9.85945 49.9917 10.0427C49.9688 10.4046 49.7719 10.739 49.5108 10.8077C49.3826 10.8352 49.2772 10.794 49.2269 10.7527C49.1719 10.7069 49.1628 10.6657 49.1719 10.6611Z" fill="#AA6550"/>
<path d="M40.7452 8.63635C40.7361 8.83333 40.901 9.00282 41.1071 9.01656C41.3131 9.02573 41.4872 8.87456 41.4963 8.67758C41.5055 8.4806 41.3406 8.30652 41.1345 8.29736C40.9284 8.2882 40.7544 8.43937 40.7452 8.63635Z" fill="#263238"/>
<path d="M40.2872 8.26072C40.333 8.31111 40.617 8.10038 41.0246 8.10038C41.4276 8.0958 41.7253 8.30195 41.7711 8.25614C41.794 8.23323 41.7436 8.1462 41.6154 8.05C41.4871 7.95838 41.2719 7.86676 41.02 7.86676C40.7681 7.86676 40.5574 7.96296 40.4338 8.05458C40.3101 8.15077 40.2689 8.23781 40.2918 8.26072H40.2872Z" fill="#263238"/>
<path d="M44.7113 8.63635C44.7021 8.83333 44.867 9.00282 45.0731 9.01656C45.2792 9.02573 45.4532 8.87456 45.4624 8.67758C45.4715 8.4806 45.3067 8.30652 45.1006 8.29736C44.8945 8.2882 44.7205 8.43937 44.7113 8.63635Z" fill="#263238"/>
<path d="M44.2716 8.33402C44.3174 8.38441 44.6059 8.17369 45.0089 8.17369C45.4119 8.16911 45.7096 8.37525 45.7554 8.32944C45.7783 8.30653 45.728 8.2195 45.5997 8.1233C45.4715 8.03168 45.2563 7.94006 45.0044 7.94006C44.7525 7.94006 44.5418 8.03626 44.4181 8.12788C44.2945 8.22408 44.2533 8.31112 44.2762 8.33402H44.2716Z" fill="#263238"/>
<path d="M42.8016 11.3391C42.8016 11.3162 42.5497 11.2704 42.1421 11.22C42.0367 11.2108 41.9406 11.1879 41.9222 11.1192C41.8993 11.0459 41.9406 10.9314 41.9909 10.8123C42.0871 10.5603 42.1879 10.2992 42.2978 10.0244C42.7237 8.90204 43.0305 7.98128 42.9847 7.96295C42.9389 7.94463 42.5588 8.84248 42.1329 9.9648C42.0322 10.2397 41.9314 10.5054 41.8398 10.7573C41.7986 10.8764 41.7345 11.0093 41.7848 11.165C41.8123 11.2429 41.8902 11.2978 41.9543 11.3162C42.0184 11.3345 42.078 11.3391 42.1283 11.3391C42.5405 11.362 42.7924 11.362 42.797 11.3391H42.8016Z" fill="#263238"/>
<path d="M43.9922 11.6185C43.9281 11.6185 43.9235 12.0537 43.5479 12.3652C43.1724 12.6767 42.7053 12.6309 42.7007 12.6904C42.6961 12.7179 42.806 12.7775 43.003 12.7821C43.1953 12.7866 43.4793 12.7271 43.7083 12.5347C43.9372 12.3423 44.038 12.0858 44.0517 11.9071C44.0701 11.7239 44.0197 11.6139 43.9876 11.6185H43.9922Z" fill="#263238"/>
<path d="M44.1663 6.74903C44.2075 6.85897 44.6106 6.80858 45.0869 6.86355C45.5632 6.90936 45.9479 7.05137 46.0074 6.95059C46.0349 6.90478 45.9707 6.79941 45.815 6.69405C45.6593 6.58869 45.4166 6.48791 45.1326 6.45585C44.8487 6.42378 44.5877 6.46959 44.4136 6.5383C44.2396 6.60702 44.1526 6.69405 44.1663 6.74903Z" fill="#263238"/>
<path d="M40.4383 7.08801C40.5116 7.17963 40.7864 7.08801 41.1253 7.07885C41.4596 7.06053 41.7436 7.1384 41.8123 7.0422C41.8398 6.99639 41.794 6.90478 41.6703 6.81774C41.5466 6.7307 41.3452 6.66199 41.1116 6.66657C40.8826 6.67573 40.6811 6.75819 40.5666 6.8498C40.4475 6.946 40.4109 7.03762 40.4383 7.08343V7.08801Z" fill="#263238"/>
<path d="M38.5057 2.88731C38.4782 2.56206 38.5973 2.20933 38.8629 2.01694C39.1285 1.82454 39.5407 1.83828 39.7559 2.08565C39.6323 1.64588 39.9941 1.1374 40.4475 1.10992C40.878 1.08243 41.2444 1.40768 41.6611 1.5222C42.0687 1.63214 42.5038 1.53594 42.8931 1.38019C43.2823 1.22444 43.6487 1.00456 44.0426 0.86255C44.8669 0.56021 45.8058 0.601439 46.6027 0.96333C47.3996 1.3298 48.0407 2.01694 48.3522 2.8415C48.9292 2.66284 49.5841 2.95602 49.9367 3.4416C50.2939 3.93175 50.3855 4.57308 50.3123 5.17318C50.2665 5.5763 50.1474 5.97025 50.01 6.35505C50.01 6.38712 50.01 6.42377 50.01 6.45583C49.9825 7.9034 49.8177 9.60749 49.1994 9.61665C48.1232 9.63498 48.3796 7.60106 48.3796 7.60106C47.0561 7.088 47.5507 5.10905 47.2209 4.80671C46.8912 4.50437 46.1997 3.80807 43.4289 5.22357C42.3527 5.77328 40.9238 5.75495 40.1452 5.58088C40.1223 5.5763 40.0994 5.57172 40.0765 5.56714C40.072 5.56714 40.0674 5.56714 40.0628 5.56714C40.0536 5.56714 40.049 5.56256 40.0399 5.55797C39.7926 5.49384 39.5499 5.39764 39.33 5.25563C39.0781 5.0953 38.8491 4.88 38.7438 4.60515C38.6385 4.32571 38.6751 3.98214 38.895 3.78058C38.6889 3.52405 38.5286 3.22171 38.5011 2.89189L38.5057 2.88731Z" fill="#263238"/>
<path d="M71.0816 20.7116C71.0129 20.8215 70.2664 22.2325 70.2664 22.2325C70.2664 22.2325 70.8617 19.9191 70.8846 19.8366C71.077 19.0808 70.6098 19.1587 70.4725 19.4289C70.3305 19.7084 69.4878 21.9805 69.4878 21.9805C70.2801 19.0075 70.0328 18.7464 69.8084 18.7006C69.584 18.6548 68.8833 21.3712 68.8833 21.3712C68.8833 21.3712 68.6314 20.9086 68.1642 20.5879C67.4452 20.0932 66.2499 20.5879 66.195 20.9269C66.1354 21.2659 66.5659 21.3575 66.5659 21.3575C67.4635 20.7757 68.3887 21.4812 68.2925 22.3378C68.1963 23.1944 67.1109 23.0753 66.9781 22.4661C66.6804 21.1239 66.2178 21.5636 66.2178 21.5636L66.6804 24.5183L66.1904 26.0071L63.5158 33.2587L58.4048 27.9357C58.4048 27.9357 55.6707 33.9779 55.6066 34.1795C55.5653 34.3169 58.1667 37.0242 59.8795 38.7878C60.8046 39.7407 62.0869 40.2721 63.415 40.2491C65.6362 40.2171 67.546 38.6779 68.0543 36.5157L70.074 26.1033L71.022 22.6905C71.022 22.6905 71.3655 21.3025 71.4434 20.9819C71.5487 20.5513 71.251 20.4184 71.0724 20.7116H71.0816Z" fill="#B78876"/>
<path d="M25.6778 41.0508C27.2029 41.3211 28.9524 40.2217 29.8912 38.9894L33.697 33.9733L29.2226 29.9833L25.2153 34.9903L10.1662 34.1932L6.61232 32.2005C6.36959 32.0631 6.08565 32.0127 5.81086 32.0539L0.919678 33.4328L5.5086 34.8437L13.5186 37.8579L25.6824 41.0508H25.6778Z" fill="#B78876"/>
<path d="M59.7878 114.826L60.4198 117.474C60.4198 117.474 64.7523 123.104 66.0896 122.829C66.9643 122.65 65.8881 121.18 64.2394 116.906L63.8959 115.142L59.7924 114.831L59.7878 114.826Z" fill="#DBDBDB"/>
<path d="M66.2637 122C66.2637 122 66.2637 122.032 66.2316 122.078C66.2041 122.124 66.1446 122.197 66.0484 122.247C65.9522 122.302 65.8194 122.339 65.6637 122.33C65.508 122.321 65.334 122.256 65.1737 122.151C64.56 121.684 63.7997 120.955 62.9891 120.117C62.1831 119.274 61.5145 118.454 61.0519 117.85C60.8229 117.547 60.6397 117.295 60.5206 117.121C60.4703 117.048 60.4245 116.984 60.3832 116.92C60.3512 116.874 60.3375 116.846 60.342 116.846C60.342 116.846 60.3649 116.865 60.4016 116.911C60.4474 116.97 60.4977 117.034 60.5527 117.103C60.713 117.309 60.8962 117.547 61.1069 117.818C61.5832 118.413 62.2564 119.224 63.0578 120.067C63.8593 120.901 64.6241 121.643 65.2103 122.11C65.5172 122.334 65.8561 122.33 66.0393 122.224C66.227 122.128 66.2637 121.995 66.2728 122.005L66.2637 122Z" fill="#263238"/>
<path d="M65.6499 120.19C65.6499 120.19 65.5125 120.177 65.3018 120.209C65.0912 120.236 64.8027 120.332 64.5233 120.507C64.2393 120.676 64.0378 120.901 63.9371 121.093C63.8363 121.281 63.8043 121.418 63.7905 121.414C63.7814 121.414 63.7905 121.272 63.8821 121.065C63.9737 120.859 64.1844 120.612 64.4775 120.438C64.766 120.259 65.0729 120.168 65.2973 120.154C65.5217 120.14 65.6591 120.186 65.6545 120.195L65.6499 120.19Z" fill="#263238"/>
<path d="M61.5511 118.871C61.5511 118.871 61.5969 118.683 61.6289 118.372C61.6656 118.065 61.6289 117.63 61.4137 117.213C61.203 116.791 60.8595 116.512 60.5847 116.375C60.31 116.237 60.113 116.219 60.113 116.205C60.113 116.201 60.1634 116.201 60.2504 116.214C60.3374 116.228 60.4657 116.26 60.6076 116.324C60.8962 116.448 61.2626 116.736 61.487 117.176C61.7114 117.611 61.7434 118.074 61.6885 118.386C61.6656 118.541 61.6289 118.665 61.6015 118.747C61.574 118.83 61.5557 118.876 61.5465 118.876L61.5511 118.871Z" fill="#263238"/>
<path d="M60.0672 115.28C60.0901 115.271 60.2275 115.637 60.3053 116.109C60.3832 116.581 60.4702 116.952 60.4519 116.956C60.4244 116.966 60.3007 116.594 60.2229 116.123C60.1404 115.655 60.0443 115.284 60.0672 115.275V115.28Z" fill="#263238"/>
<path d="M64.3172 117.282C64.3172 117.309 64.0699 117.3 63.7814 117.369C63.4929 117.433 63.273 117.547 63.2593 117.524C63.2456 117.506 63.4562 117.355 63.7585 117.282C64.0653 117.208 64.3172 117.259 64.3126 117.282H64.3172Z" fill="#263238"/>
<path d="M64.4043 117.735C64.4043 117.758 64.1936 117.735 63.9555 117.799C63.7127 117.854 63.5387 117.964 63.525 117.946C63.5112 117.932 63.6715 117.776 63.9326 117.717C64.1936 117.653 64.4089 117.717 64.3997 117.735H64.4043Z" fill="#263238"/>
<path d="M64.7523 118.303C64.7432 118.326 64.5371 118.262 64.2852 118.321C64.0333 118.376 63.873 118.528 63.8547 118.509C63.8364 118.5 63.9829 118.303 64.2623 118.239C64.5417 118.175 64.7615 118.285 64.7477 118.303H64.7523Z" fill="#263238"/>
<path d="M64.0195 117.089C64.0195 117.089 63.9646 117.089 63.873 117.071C63.7814 117.053 63.6486 117.02 63.4883 116.966C63.328 116.911 63.1448 116.833 62.9479 116.727C62.8517 116.672 62.7509 116.613 62.6502 116.544C62.554 116.471 62.4349 116.375 62.4349 116.21C62.4441 116.036 62.641 115.967 62.7647 116.004C62.8975 116.036 62.9891 116.132 63.0669 116.205C63.2272 116.361 63.36 116.507 63.4654 116.64C63.5707 116.769 63.6531 116.878 63.7035 116.956C63.7539 117.034 63.7814 117.08 63.7768 117.085C63.7676 117.094 63.644 116.929 63.4196 116.681C63.3097 116.558 63.1723 116.416 63.012 116.265C62.9341 116.191 62.8471 116.113 62.7464 116.086C62.6502 116.063 62.522 116.113 62.522 116.214C62.522 116.315 62.6135 116.411 62.7005 116.475C62.7967 116.544 62.8929 116.604 62.9891 116.659C63.1768 116.769 63.3555 116.851 63.5112 116.911C63.818 117.03 64.0241 117.071 64.0195 117.085V117.089Z" fill="#263238"/>
<path d="M63.7905 117.034C63.7905 117.034 63.7814 116.988 63.7859 116.901C63.7859 116.814 63.7951 116.695 63.8134 116.539C63.8317 116.388 63.8684 116.205 63.9508 116.017C63.9921 115.921 64.0424 115.829 64.1203 115.738C64.189 115.66 64.3218 115.555 64.4684 115.628C64.6012 115.71 64.6011 115.866 64.5874 115.971C64.5691 116.086 64.537 116.187 64.4912 116.283C64.4042 116.471 64.2897 116.617 64.1798 116.727C64.0699 116.837 63.9737 116.915 63.905 116.961C63.8363 117.011 63.7905 117.03 63.7905 117.025C63.7814 117.011 63.9371 116.906 64.1386 116.681C64.2348 116.567 64.3447 116.425 64.4225 116.246C64.4592 116.159 64.4912 116.058 64.505 115.958C64.5187 115.861 64.505 115.738 64.4271 115.697C64.3493 115.651 64.2485 115.715 64.1844 115.788C64.1157 115.862 64.0653 115.958 64.0241 116.045C63.9417 116.223 63.905 116.397 63.8776 116.544C63.8272 116.842 63.8089 117.03 63.7951 117.03L63.7905 117.034Z" fill="#263238"/>
<g opacity="0.4">
<path d="M60.4199 117.479L60.113 116.205C60.113 116.205 61.1755 116.402 61.4503 117.195C61.7251 117.992 61.6564 118.555 61.6564 118.555L63.9646 121.043C63.9646 121.043 64.5416 119.911 65.5904 120.181C65.5904 120.181 66.4148 121.995 66.3919 122.449C66.3644 122.948 65.8377 122.847 65.6499 122.765C65.5629 122.728 64.5691 122.156 63.5845 121.134C62.3617 119.865 61.0107 118.257 60.4199 117.479Z" fill="black"/>
</g>
<path d="M38.2541 116.168L38.2358 112.637L44.8536 112.554L44.936 117.721L44.5238 117.753C42.7011 117.877 35.2361 118.253 34.0133 117.895C32.6486 117.497 38.2541 116.164 38.2541 116.164V116.168Z" fill="#DBDBDB"/>
<g opacity="0.4">
<path d="M42.536 117.698C42.623 117.144 42.9253 116.627 43.3649 116.278C43.8046 115.93 44.345 115.742 44.9037 115.779L44.9266 117.63L42.536 117.703V117.698Z" fill="black"/>
</g>
<g opacity="0.4">
<path d="M35.5152 116.915C35.5152 116.915 33.5504 117.506 33.8023 117.831C34.0542 118.152 41.6062 118.056 44.9357 117.721L44.922 117.575L36.1105 117.763C36.1105 117.763 35.8999 116.929 35.5152 116.92V116.915Z" fill="black"/>
</g>
<path d="M45.0273 117.57C45.0273 117.57 44.9861 117.579 44.9129 117.584C44.8167 117.593 44.7068 117.598 44.5877 117.607C44.2625 117.625 43.8595 117.648 43.3878 117.676C42.3711 117.726 40.9697 117.776 39.4172 117.795C37.8646 117.818 36.4632 117.804 35.4465 117.781C34.9702 117.767 34.5718 117.753 34.242 117.744C34.123 117.74 34.013 117.735 33.9169 117.731C33.8436 117.731 33.8024 117.721 33.8024 117.721C33.8024 117.721 33.8436 117.721 33.9169 117.717C34.013 117.717 34.123 117.717 34.242 117.717C34.5672 117.717 34.9702 117.721 35.4465 117.726C36.4632 117.735 37.8646 117.735 39.4172 117.717C40.9651 117.694 42.3711 117.653 43.3878 117.621C43.8641 117.602 44.2625 117.589 44.5923 117.579C44.7159 117.579 44.8213 117.575 44.9174 117.57C44.9907 117.57 45.0319 117.57 45.0319 117.57H45.0273Z" fill="#263238"/>
<path d="M36.1151 117.863C36.0922 117.863 36.0693 117.579 35.8815 117.291C35.7029 116.998 35.451 116.856 35.4648 116.837C35.4648 116.819 35.7533 116.938 35.9502 117.25C36.1472 117.556 36.1334 117.868 36.1151 117.863Z" fill="#263238"/>
<path d="M38.0523 116.851C38.0523 116.851 37.9378 116.75 37.8417 116.599C37.7455 116.448 37.6768 116.315 37.6951 116.306C37.7134 116.292 37.8096 116.407 37.9058 116.558C38.002 116.709 38.0706 116.842 38.0523 116.851Z" fill="#263238"/>
<path d="M38.5836 116.558C38.5836 116.558 38.4645 116.507 38.35 116.407C38.2355 116.306 38.153 116.21 38.1668 116.191C38.1805 116.173 38.2859 116.242 38.4004 116.343C38.5148 116.443 38.5973 116.539 38.5836 116.558Z" fill="#263238"/>
<path d="M38.9179 115.93C38.9179 115.93 38.7622 115.976 38.5744 115.981C38.382 115.985 38.2263 115.971 38.2263 115.949C38.2263 115.926 38.382 115.903 38.5698 115.898C38.7621 115.898 38.9179 115.907 38.9179 115.93Z" fill="#263238"/>
<path d="M39.0278 115.49C39.0278 115.49 38.8676 115.587 38.6432 115.61C38.4187 115.628 38.2401 115.582 38.2447 115.564C38.2447 115.541 38.4233 115.55 38.634 115.532C38.8447 115.513 39.0187 115.472 39.0233 115.495L39.0278 115.49Z" fill="#263238"/>
<path d="M37.8234 116.274C37.8234 116.274 37.6631 116.306 37.3975 116.274C37.2647 116.26 37.109 116.233 36.9441 116.178C36.8617 116.15 36.7746 116.127 36.683 116.072C36.6418 116.045 36.5915 116.008 36.5777 115.939C36.5594 115.875 36.5915 115.802 36.6418 115.77C37.0449 115.555 37.457 115.779 37.6082 115.985C37.6906 116.091 37.7318 116.196 37.7501 116.269C37.7685 116.342 37.7685 116.384 37.7639 116.384C37.7501 116.388 37.7318 116.219 37.5669 116.022C37.4845 115.926 37.3608 115.834 37.2006 115.788C37.0494 115.747 36.8342 115.738 36.6922 115.829C36.6235 115.88 36.651 115.958 36.7289 116.004C36.7976 116.049 36.8891 116.072 36.967 116.104C37.1273 116.159 37.2784 116.191 37.4067 116.214C37.6631 116.255 37.8234 116.255 37.8234 116.269V116.274Z" fill="#263238"/>
<path d="M37.7134 116.297C37.7134 116.297 37.6447 116.191 37.6584 116.004C37.6676 115.907 37.6996 115.797 37.7683 115.692C37.8416 115.596 37.9378 115.468 38.121 115.472C38.2217 115.481 38.2675 115.596 38.2538 115.669C38.2492 115.742 38.2126 115.807 38.1851 115.862C38.121 115.967 38.0523 116.054 37.9882 116.123C37.8554 116.255 37.75 116.306 37.7454 116.297C37.7363 116.288 37.8279 116.219 37.947 116.081C38.0065 116.013 38.066 115.926 38.121 115.825C38.1805 115.733 38.2172 115.573 38.1073 115.555C38.0019 115.545 37.892 115.651 37.8279 115.738C37.7638 115.829 37.7271 115.93 37.7134 116.017C37.6813 116.191 37.7225 116.301 37.7134 116.306V116.297Z" fill="#263238"/>
<path d="M44.8671 115.761C44.8671 115.761 44.6793 115.747 44.377 115.784C44.0793 115.82 43.6718 115.949 43.3145 116.237C42.9619 116.526 42.7558 116.906 42.6596 117.19C42.5634 117.474 42.5543 117.666 42.5406 117.662C42.536 117.662 42.5314 117.616 42.5406 117.529C42.5451 117.442 42.5634 117.318 42.6092 117.172C42.6917 116.878 42.8978 116.48 43.2687 116.178C43.6397 115.875 44.0702 115.752 44.3725 115.729C44.5282 115.715 44.6518 115.724 44.7343 115.733C44.8213 115.742 44.8671 115.756 44.8625 115.761H44.8671Z" fill="#263238"/>
<path d="M44.148 113.017C44.148 113.017 44.203 113.626 44.2213 114.377C44.2396 115.129 44.2396 115.738 44.2167 115.738C44.1938 115.738 44.1618 115.129 44.1435 114.377C44.1252 113.626 44.1251 113.017 44.148 113.017Z" fill="#263238"/>
<path d="M41.6932 117.066C41.6932 117.066 41.2673 117.162 40.7269 117.176C40.1911 117.19 39.756 117.13 39.756 117.112C39.756 117.089 40.1911 117.112 40.7223 117.098C41.2536 117.089 41.684 117.048 41.6886 117.071L41.6932 117.066Z" fill="#263238"/>
<path d="M42.9893 117.048C42.9893 117.048 42.9573 117.14 42.9115 117.24C42.8657 117.341 42.8473 117.428 42.8244 117.428C42.8016 117.428 42.7878 117.323 42.8382 117.208C42.8886 117.094 42.9756 117.034 42.9893 117.048Z" fill="#263238"/>
<path d="M43.4702 116.434C43.4702 116.434 43.4427 116.521 43.3786 116.59C43.3099 116.659 43.2412 116.704 43.2275 116.691C43.2138 116.677 43.255 116.608 43.3191 116.535C43.3878 116.466 43.4565 116.42 43.4702 116.434Z" fill="#263238"/>
<path d="M44.1663 116.146C44.1663 116.146 44.0747 116.168 43.9785 116.205C43.8823 116.237 43.8136 116.292 43.7953 116.278C43.777 116.265 43.8319 116.173 43.951 116.127C44.0701 116.086 44.1754 116.127 44.1663 116.146Z" fill="#263238"/>
<path d="M44.661 116.008C44.661 116.008 44.6335 116.063 44.5785 116.086C44.5236 116.109 44.4732 116.109 44.464 116.086C44.4549 116.068 44.4916 116.031 44.5465 116.008C44.6015 115.985 44.6518 115.985 44.661 116.008Z" fill="#263238"/>
<path d="M66.8178 115.298L53.7335 45.989L35.5472 48.7605L36.8387 114.643L47.1432 114.863L45.4304 57.3863L57.0217 115.298H66.8178Z" fill="#455A64"/>
<path d="M55.7439 52.6176L34.9519 51.8434L35.5426 32.8647L32.8177 35.9706L27.2625 31.1561L33.3764 22.8234C34.961 20.6795 37.3517 19.2686 39.9942 18.9067C40.7682 18.8014 41.3589 18.751 41.7436 18.7006C44.006 19.3969 46.2639 19.3969 48.5263 18.7006C49.575 18.7464 50.4818 18.9296 51.3336 19.2411C53.0922 19.8779 54.5624 20.8399 55.8172 22.1408L62.6365 31.3622L56.8064 36.4058L53.4861 33.4832L55.7439 52.6176Z" fill="#263238"/>
<path d="M35.854 25.7002C35.9182 25.7002 35.854 28.861 35.7121 32.7502C35.5655 36.644 35.3961 39.7956 35.3274 39.7911C35.2633 39.7911 35.3274 36.6302 35.4694 32.741C35.6159 28.8519 35.7853 25.6956 35.854 25.7002Z" fill="#455A64"/>
<path d="M52.7487 26.9462C52.8128 26.9416 53.0464 28.7648 53.2617 31.0232C53.4815 33.2816 53.6051 35.1185 53.5364 35.1231C53.4723 35.1277 53.2387 33.3045 53.0235 31.0461C52.8037 28.7877 52.68 26.9508 52.7487 26.9462Z" fill="#455A64"/>
<path d="M42.5726 18.9159C42.6138 18.9663 42.4581 19.1587 42.2199 19.3419C41.9864 19.5252 41.7619 19.6305 41.7207 19.5801C41.6795 19.5297 41.8352 19.3373 42.0734 19.1541C42.3069 18.9709 42.5314 18.8655 42.5726 18.9159Z" fill="#455A64"/>
<path d="M43.516 19.1175C43.5755 19.1495 43.5297 19.3373 43.4701 19.5572C43.406 19.7771 43.3465 19.9603 43.2778 19.9558C43.2137 19.9558 43.1679 19.7405 43.2412 19.4885C43.3099 19.2366 43.461 19.0808 43.516 19.1129V19.1175Z" fill="#455A64"/>
<path d="M44.5923 19.2549C44.6564 19.2549 44.7205 19.429 44.7297 19.6534C44.7388 19.8779 44.6976 20.0611 44.6289 20.0657C44.5648 20.0657 44.5007 19.8916 44.4915 19.6672C44.4823 19.4427 44.5236 19.2595 44.5923 19.2549Z" fill="#455A64"/>
<path d="M45.9753 19.1541C46.044 19.1541 46.0989 19.3465 46.163 19.5756C46.2226 19.8046 46.2729 19.997 46.2134 20.0336C46.1584 20.0657 46.0027 19.9008 45.934 19.6397C45.8653 19.3786 45.9157 19.1587 45.9798 19.1587L45.9753 19.1541Z" fill="#455A64"/>
<path d="M47.5186 18.9846C47.5828 18.9617 47.6881 19.0991 47.8117 19.2594C47.9354 19.4244 48.0362 19.5618 47.9995 19.6168C47.9629 19.6717 47.7705 19.5984 47.624 19.4015C47.4774 19.2091 47.4591 19.0029 47.5232 18.98L47.5186 18.9846Z" fill="#455A64"/>
<path d="M48.3293 18.751C48.366 18.696 48.5217 18.7327 48.682 18.838C48.8377 18.9388 48.9384 19.0671 48.9018 19.122C48.8651 19.177 48.7095 19.1404 48.5492 19.035C48.3934 18.9342 48.2927 18.8059 48.3293 18.751Z" fill="#455A64"/>
<path d="M53.1838 31.4538C53.1838 31.5179 49.2865 31.5775 44.4777 31.5775C39.669 31.5775 35.7716 31.5317 35.7716 31.463C35.7716 31.3943 39.669 31.3393 44.4777 31.3393C49.2865 31.3393 53.1838 31.3851 53.1838 31.4538Z" fill="#FAFAFA"/>
<path d="M53.335 32.741C53.335 32.8052 49.4376 32.8647 44.6288 32.8647C39.8201 32.8647 35.9227 32.8189 35.9227 32.7502C35.9227 32.6815 39.8201 32.6265 44.6288 32.6265C49.4376 32.6265 53.335 32.6723 53.335 32.741Z" fill="#FAFAFA"/>
<path d="M53.4861 34.0329C53.4861 34.097 49.4834 34.1886 44.5419 34.2298C39.6003 34.2757 35.593 34.2573 35.593 34.1886C35.593 34.1245 39.5957 34.0329 44.5373 33.9916C49.4788 33.9458 53.4815 33.9642 53.4861 34.0329Z" fill="#FAFAFA"/>
<path d="M59.133 26.4973C59.1559 26.5202 58.8719 26.8363 58.3865 27.3173C57.901 27.7983 57.2095 28.4396 56.4126 29.113C55.6157 29.7864 54.8692 30.3636 54.3151 30.7621C53.7609 31.1607 53.4037 31.3851 53.3854 31.3622C53.3671 31.3347 53.6877 31.0645 54.2143 30.6293C54.8051 30.1391 55.4966 29.5665 56.2615 28.9298C57.0125 28.2838 57.6949 27.6975 58.2766 27.1936C58.7895 26.7447 59.1147 26.4744 59.1376 26.4973H59.133Z" fill="#FAFAFA"/>
<path d="M60.1908 27.6471C60.2137 27.67 59.8794 28.009 59.3069 28.5175C58.739 29.0259 57.9284 29.7085 57.0033 30.4185C56.0782 31.1286 55.2126 31.7378 54.576 32.1547C53.9394 32.5761 53.5273 32.8098 53.5089 32.7823C53.4906 32.7548 53.8662 32.4708 54.4799 32.0127C55.0936 31.5592 55.9362 30.9316 56.8613 30.2261C57.7819 29.5161 58.6062 28.861 59.2016 28.3846C59.797 27.9082 60.1679 27.6196 60.1908 27.6425V27.6471Z" fill="#FAFAFA"/>
<path d="M60.7221 28.7374C60.7633 28.7878 59.3711 30.0475 57.6079 31.5546C55.8447 33.0617 54.3837 34.239 54.3379 34.1932C54.2967 34.1428 55.689 32.8831 57.4522 31.376C59.2154 29.8688 60.6763 28.6916 60.7175 28.7419L60.7221 28.7374Z" fill="#FAFAFA"/>
<path d="M35.6114 31.857C35.5977 31.8844 35.2404 31.7058 34.7275 31.3164C34.2146 30.9316 33.5643 30.3269 32.8956 29.6215C32.227 28.916 31.6362 28.2655 31.2148 27.7891C30.7935 27.3127 30.5462 27.0058 30.5691 26.9829C30.592 26.96 30.8851 27.2257 31.3385 27.6746C31.7919 28.1235 32.401 28.7557 33.0696 29.4566C33.7337 30.162 34.352 30.7759 34.8328 31.1881C35.3091 31.6004 35.6297 31.8295 35.6114 31.857Z" fill="#FAFAFA"/>
<path d="M35.0252 33.4282C35.0068 33.4511 34.6588 33.1992 34.1275 32.7594C33.5963 32.3196 32.8864 31.6829 32.1353 30.9454C31.3843 30.2078 30.7385 29.507 30.2897 28.9847C29.8409 28.4625 29.5798 28.1235 29.6073 28.1006C29.6348 28.0777 29.9325 28.3801 30.4134 28.8702C30.8942 29.3604 31.5583 30.0383 32.3048 30.7713C33.0513 31.5042 33.7428 32.1547 34.242 32.6265C34.7412 33.0984 35.0481 33.3961 35.0252 33.419V33.4282Z" fill="#FAFAFA"/>
<path d="M34.3839 34.5505C34.3565 34.5734 34.0496 34.2711 33.555 33.7809C33.0604 33.2908 32.3734 32.6128 31.5949 31.889C30.8163 31.1652 30.0927 30.5285 29.566 30.0704C29.0394 29.6123 28.7142 29.3237 28.7371 29.2962C28.7554 29.2733 29.1172 29.5115 29.6714 29.9376C30.2255 30.3636 30.972 30.982 31.7552 31.7104C32.5383 32.4387 33.2115 33.135 33.6741 33.6572C34.1412 34.1795 34.4068 34.523 34.3839 34.5459V34.5505Z" fill="#FAFAFA"/>
<path d="M55.7027 51.7426C55.7027 51.8068 51.0817 51.7426 45.3845 51.6052C39.6873 51.4632 35.0709 51.2937 35.0709 51.2296C35.0709 51.1654 39.6919 51.2296 45.3891 51.367C51.0863 51.509 55.7027 51.6785 55.7027 51.7426Z" fill="#455A64"/>
</svg>
