<svg width="108" height="203" viewBox="0 0 108 203" fill="none" xmlns="http://www.w3.org/2000/svg">
<path d="M98.5452 0H9.05028C4.05756 0 0 4.12578 0 9.22326V193.486C0 198.573 4.05756 202.709 9.05028 202.709H98.5452C103.548 202.709 107.606 198.573 107.606 193.486V9.22326C107.606 4.12578 103.543 0 98.5452 0ZM101.948 187.786C101.948 192.634 98.3166 196.557 93.8382 196.557H13.7728C9.28407 196.557 5.65253 192.634 5.65253 187.786V16.207C5.65253 6.32897 9.28407 5.84573 13.7728 5.84573H29.8057C30.7356 5.84573 31.4993 6.90575 31.4993 8.21519V8.78158C31.4993 11.8577 33.1826 11.8681 35.2504 11.8681H72.3399C74.4232 11.8681 76.0909 11.8577 76.0909 8.78158V8.21519C76.0909 6.90056 76.8442 5.84573 77.7898 5.84573H93.8278C98.3062 5.84573 101.938 7.16037 101.938 16.207V187.786H101.948Z" fill="#37474F"/>
<path d="M58.858 8.02809H48.7427C48.3998 8.02809 48.1193 7.7475 48.1193 7.40455C48.1193 7.0616 48.3998 6.78101 48.7427 6.78101H58.858C59.2009 6.78101 59.4815 7.0616 59.4815 7.40455C59.4815 7.7475 59.2009 8.02809 58.858 8.02809Z" fill="#263238"/>
<path d="M101.948 16.2069V187.785C101.948 192.634 98.3167 196.557 93.8383 196.557H13.7782C9.28938 196.557 5.65784 192.634 5.65784 187.785V16.2069C5.65784 6.32895 9.28938 5.8457 13.7782 5.8457H29.811C30.7409 5.8457 31.5046 6.90573 31.5046 8.21517V8.78156C31.5046 11.8577 33.1879 11.8681 35.2557 11.8681H72.3452C74.4285 11.8681 76.0962 11.8577 76.0962 8.78156V8.21517C76.0962 6.90053 76.8496 5.8457 77.7951 5.8457H93.8331C98.3115 5.8457 101.943 7.16034 101.943 16.2069H101.948Z" fill="white"/>
<path d="M101.948 16.2069V37.0541H5.65259V16.2069C5.65259 6.32375 9.28932 5.8457 13.7781 5.8457H29.8109C30.7409 5.8457 31.5046 6.90053 31.5046 8.22037V8.78675C31.5046 11.8629 33.1931 11.8733 35.2608 11.8733H72.3451C74.4337 11.8733 76.1014 11.8629 76.1014 8.78675V8.22037C76.1014 6.90573 76.8547 5.8457 77.8002 5.8457H93.8435C98.3218 5.8457 101.953 7.15515 101.953 16.2069H101.948Z" fill="#7BDADB"/>
<path d="M27.0417 9.70133C26.9898 9.75329 26.9378 9.80525 26.8858 9.85721C26.8547 9.88839 26.8287 9.91437 26.7975 9.94555C26.3819 9.54025 25.8831 9.3272 25.3065 9.3272C24.7246 9.3272 24.231 9.54025 23.8102 9.95075C23.7842 9.91957 23.7531 9.89359 23.7271 9.86241C23.6751 9.81045 23.6232 9.75849 23.5764 9.70652C23.5764 9.70652 23.5816 9.69613 23.5868 9.69094C23.6543 9.63378 23.7167 9.57142 23.7842 9.51946C23.9245 9.40514 24.0752 9.31161 24.2362 9.22847C24.4285 9.13494 24.6259 9.06739 24.8389 9.02582C24.9376 9.00504 25.0363 8.99984 25.1402 8.98425C25.1766 8.98425 25.3948 8.98425 25.4052 8.98425C25.4727 8.98425 25.5403 8.99464 25.6078 8.99984C25.7948 9.02063 25.9819 9.06739 26.1585 9.12975C26.2884 9.17651 26.4131 9.23367 26.5326 9.30642C26.6573 9.37916 26.7767 9.4623 26.8858 9.55583C26.943 9.6026 26.9949 9.65456 27.0469 9.70133H27.0417Z" fill="white"/>
<path d="M24.3037 10.4288C24.2206 10.3457 24.1427 10.2677 24.0596 10.1846C24.3401 9.90917 24.6674 9.7377 25.0571 9.68573C25.639 9.60779 26.1325 9.78446 26.5533 10.1846C26.4702 10.2677 26.3871 10.3457 26.3092 10.4288C26.0338 10.1586 25.6961 10.0131 25.3065 10.0131C24.9168 10.0131 24.5843 10.1586 24.3037 10.4288V10.4288Z" fill="white"/>
<path d="M26.065 10.6731C25.9819 10.7562 25.904 10.8342 25.8208 10.9173C25.6806 10.7822 25.5091 10.7043 25.3065 10.7043C25.1039 10.7043 24.9376 10.7822 24.7922 10.9173C24.709 10.8342 24.6311 10.7562 24.548 10.6731C24.9376 10.2678 25.6338 10.2366 26.0598 10.6731H26.065Z" fill="white"/>
<path d="M25.5299 11.1355C25.5299 11.255 25.4312 11.3537 25.3117 11.3537C25.1922 11.3537 25.0935 11.255 25.0935 11.1355C25.0935 11.016 25.1922 10.9172 25.3117 10.9172C25.4312 10.9172 25.5299 11.016 25.5299 11.1355Z" fill="white"/>
<path d="M11.9337 10.169C11.9337 9.8157 12.2195 9.52991 12.5727 9.52991C12.926 9.52991 13.2118 9.8157 13.2118 10.169C13.2118 10.5224 12.926 10.8082 12.5727 10.8082C12.2195 10.8082 11.9337 10.5224 11.9337 10.169Z" fill="white"/>
<path d="M13.9443 10.169C13.9443 9.8157 14.2301 9.52991 14.5834 9.52991C14.9366 9.52991 15.2224 9.8157 15.2224 10.169C15.2224 10.5224 14.9366 10.8082 14.5834 10.8082C14.2301 10.8082 13.9443 10.5224 13.9443 10.169Z" fill="white"/>
<path d="M15.955 10.169C15.955 9.8157 16.2407 9.52991 16.594 9.52991C16.9473 9.52991 17.233 9.8157 17.233 10.169C17.233 10.5224 16.9473 10.8082 16.594 10.8082C16.2407 10.8082 15.955 10.5224 15.955 10.169Z" fill="white"/>
<path d="M17.9655 10.169C17.9655 9.8157 18.2512 9.52991 18.6045 9.52991C18.9578 9.52991 19.2435 9.8157 19.2435 10.169C19.2435 10.5224 18.9578 10.8082 18.6045 10.8082C18.2512 10.8082 17.9655 10.5224 17.9655 10.169Z" fill="white"/>
<path d="M19.9761 10.169C19.9761 9.8157 20.2618 9.52991 20.6151 9.52991C20.9684 9.52991 21.2541 9.8157 21.2541 10.169C21.2541 10.5224 20.9684 10.8082 20.6151 10.8082C20.2618 10.8082 19.9761 10.5224 19.9761 10.169Z" fill="white"/>
<path d="M94.7267 11.5667H89.5261V9.15051H94.7267V11.5667V11.5667ZM89.7963 11.2965H94.4565V9.42591H89.7963V11.2965Z" fill="white"/>
<path d="M93.3135 9.56104H89.9625V11.1511H93.3135V9.56104Z" fill="white"/>
<path d="M95.1891 9.71167H94.7267V11.0003H95.1891V9.71167Z" fill="white"/>
<path d="M74.7817 146.606H32.8293V160.568H74.7817V146.606Z" fill="#455A64"/>
<path d="M45.0124 155.798V151.074C45.0124 150.825 45.215 150.633 45.454 150.633H46.5918C47.4334 150.633 48.114 151.313 48.114 152.155C48.114 152.498 47.9997 152.81 47.8075 153.07C48.2855 153.371 48.618 153.911 48.618 154.519C48.618 155.47 47.8491 156.239 46.9035 156.239H45.4852L45.4748 156.229C45.4592 156.229 45.4592 156.239 45.4488 156.239C45.2098 156.239 45.0072 156.037 45.0072 155.798H45.0124ZM45.9008 152.805H46.5866C46.9399 152.805 47.2204 152.509 47.2204 152.155C47.2204 151.802 46.9399 151.521 46.5866 151.521H45.9008V152.799V152.805ZM45.9008 155.351H46.9035C47.3607 155.34 47.7296 154.982 47.7296 154.519C47.7296 154.057 47.3607 153.704 46.9035 153.693H45.9008V155.351Z" fill="white"/>
<path d="M50.0467 155.652C49.7038 155.299 49.496 154.805 49.496 154.244C49.496 153.683 49.7038 153.226 50.0467 152.841C50.4052 152.467 50.8727 152.233 51.4234 152.233C51.9742 152.233 52.4313 152.467 52.7586 152.841C53.1171 153.226 53.3197 153.698 53.3197 154.244C53.3197 154.79 53.1171 155.299 52.7586 155.652C52.4313 156.032 51.9482 156.26 51.4234 156.26C50.8987 156.26 50.4052 156.026 50.0467 155.652ZM50.3688 154.244C50.3688 154.587 50.4727 154.868 50.6545 155.091C50.8572 155.283 51.1169 155.387 51.4234 155.387C51.704 155.387 51.9586 155.283 52.1612 155.091C52.3638 154.868 52.4729 154.587 52.4729 154.244C52.4729 153.901 52.3586 153.626 52.1612 153.413C51.9586 153.236 51.704 153.106 51.4234 153.106C51.1169 153.106 50.8572 153.236 50.6545 153.413C50.4727 153.631 50.3688 153.917 50.3688 154.244Z" fill="white"/>
<path d="M55.0499 155.652C54.707 155.299 54.4991 154.805 54.4991 154.244C54.4991 153.683 54.707 153.226 55.0499 152.841C55.4083 152.467 55.8759 152.233 56.4266 152.233C56.9773 152.233 57.4345 152.467 57.7618 152.841C58.1203 153.226 58.3229 153.698 58.3229 154.244C58.3229 154.79 58.1203 155.299 57.7618 155.652C57.4345 156.032 56.9513 156.26 56.4266 156.26C55.9019 156.26 55.4083 156.026 55.0499 155.652ZM55.372 154.244C55.372 154.587 55.4759 154.868 55.6577 155.091C55.8603 155.283 56.1201 155.387 56.4266 155.387C56.7072 155.387 56.9617 155.283 57.1644 155.091C57.367 154.868 57.4761 154.587 57.4761 154.244C57.4761 153.901 57.3618 153.626 57.1644 153.413C56.9617 153.236 56.7072 153.106 56.4266 153.106C56.1201 153.106 55.8603 153.236 55.6577 153.413C55.4759 153.631 55.372 153.917 55.372 154.244Z" fill="white"/>
<path d="M59.6892 155.798V151.074C59.6892 150.835 59.8814 150.633 60.1308 150.633C60.3802 150.633 60.5776 150.835 60.5776 151.074V153.844L62.2193 152.202C62.3856 152.036 62.6765 152.036 62.8428 152.202C63.009 152.368 63.0194 152.659 62.8428 152.825L61.6427 154.026L62.8739 155.507C63.0246 155.699 63.0038 155.98 62.8116 156.13C62.7337 156.203 62.6298 156.234 62.5311 156.234C62.4012 156.234 62.2765 156.177 62.1934 156.073L61.0192 154.649L60.5776 155.091V155.798C60.5776 156.037 60.375 156.239 60.1308 156.239C59.8866 156.239 59.6892 156.037 59.6892 155.798V155.798Z" fill="white"/>
<path d="M86.9128 68.0806H20.6879V134.317H86.9128V68.0806Z" fill="#EBEBEB"/>
<path d="M30.8343 50.7928C30.5797 48.2623 28.8341 45.7473 25.774 45.7473C22.714 45.7473 20.9787 48.2623 20.7242 50.7928C20.3449 54.6952 22.9686 58.2338 25.774 61.4606C28.5899 58.2338 31.2239 54.6952 30.8343 50.7928ZM25.774 53.5988C24.2466 53.5988 23.0101 52.3621 23.0101 50.8292C23.0101 49.2963 24.2466 48.0648 25.774 48.0648C27.3015 48.0648 28.5483 49.3015 28.5483 50.8292C28.5483 52.3569 27.3067 53.5988 25.774 53.5988V53.5988Z" fill="#7BDADB"/>
<path d="M86.9128 55.7449H35.5101V56.5555H86.9128V55.7449Z" fill="#EBEBEB"/>
<path d="M67.716 57.974H35.5101V58.7846H67.716V57.974Z" fill="#EBEBEB"/>
<path d="M51.6157 46.3657H35.5101V47.5401H51.6157V46.3657Z" fill="#7BDADB"/>
<path d="M37.1311 49.3848L37.7233 50.2733L38.7468 50.5643L38.0922 51.4009L38.1286 52.4661L37.1311 52.0972L36.1284 52.4661L36.1699 51.4009L35.5101 50.5643L36.5336 50.2733L37.1311 49.3848Z" fill="#7BDADB"/>
<path d="M41.7082 49.3848L42.3005 50.2733L43.324 50.5643L42.6694 51.4009L42.7057 52.4661L41.7082 52.0972L40.7055 52.4661L40.7471 51.4009L40.0873 50.5643L41.1108 50.2733L41.7082 49.3848Z" fill="#7BDADB"/>
<path d="M46.2852 49.3848L46.8775 50.2733L47.901 50.5643L47.2464 51.4009L47.2828 52.4661L46.2852 52.0972L45.2826 52.4661L45.3241 51.4009L44.6643 50.5643L45.693 50.2733L46.2852 49.3848Z" fill="#7BDADB"/>
<path d="M50.8624 49.3848L51.4547 50.2733L52.4782 50.5643L51.8235 51.4009L51.8599 52.4661L50.8624 52.0972L49.8597 52.4661L49.9013 51.4009L49.2415 50.5643L50.2701 50.2733L50.8624 49.3848Z" fill="#7BDADB"/>
<path d="M55.4394 52.0972V49.3848L54.8472 50.2733L53.8185 50.5643L54.4783 51.4009L54.4367 52.4661L55.4394 52.0972Z" fill="#7BDADB"/>
<path d="M55.4394 49.3848L56.0785 50.2421C56.2967 50.2473 56.8682 50.4396 57.2059 50.5123L57.1279 50.6163L56.4889 51.4684L56.5149 51.3957L56.5616 52.4609L56.572 52.6376C56.4941 52.6064 55.507 52.2583 55.3979 52.2167H55.4862C55.3719 52.2583 54.3952 52.6064 54.3121 52.6376L54.3224 52.4609L54.3692 51.3957L54.3952 51.4684C54.3588 51.4269 53.6834 50.5123 53.6782 50.5123L53.8029 50.4812C54.099 50.4188 54.629 50.2369 54.8056 50.2421L55.4446 49.3848H55.4394ZM55.4394 49.3848L54.8887 50.2993C54.5614 50.4448 54.1874 50.5227 53.8445 50.6422L53.886 50.5071L54.5614 51.3281L54.5874 51.3593V51.4009L54.5562 52.4661L54.3952 52.3466L55.3927 51.9725L55.4394 51.9569L55.4862 51.9725L56.4837 52.3466L56.3227 52.4661L56.2915 51.4009V51.3593L56.3175 51.3281L56.998 50.5071L57.0396 50.6422C56.6967 50.5227 56.3226 50.4448 55.9953 50.2993L55.4446 49.3848H55.4394Z" fill="#7BDADB"/>
<path d="M67.2693 111.983H85.188C85.188 111.983 83.2242 103.612 76.2312 103.612C69.2383 103.612 67.581 110.113 67.2745 111.983H67.2693Z" fill="#7BDADB"/>
<path opacity="0.2" d="M67.2693 111.983H85.188C85.188 111.983 83.2242 103.612 76.2312 103.612C69.2383 103.612 67.581 110.113 67.2745 111.983H67.2693Z" fill="black"/>
<path d="M19.4618 111.079H37.3805C37.3805 111.079 35.4167 102.708 28.4238 102.708C21.4308 102.708 19.7735 109.208 19.467 111.079H19.4618Z" fill="#7BDADB"/>
<path opacity="0.2" d="M19.4618 111.079H37.3805C37.3805 111.079 35.4167 102.708 28.4238 102.708C21.4308 102.708 19.7735 109.208 19.467 111.079H19.4618Z" fill="black"/>
<path d="M20.0956 95.7503C19.7111 96.3583 18.0746 103.145 18.0382 103.378C17.9967 103.612 17.4408 104.641 17.4304 104.839C17.42 105.036 17.2849 108.065 17.3628 108.258C17.4408 108.455 17.8824 109.167 17.9811 109.286C18.0798 109.406 18.3863 111.588 18.6669 111.62C18.9526 111.651 20.0436 111.666 20.0904 111.62C20.1372 111.573 20.4437 103.482 28.4133 103.482C36.383 103.482 36.2947 112.072 36.4401 112.098C36.5856 112.129 68.0694 112.939 68.0694 112.939C68.0694 111.625 68.1733 103.804 75.987 103.804C81.0785 103.804 83.6502 108.003 83.7385 111.1C83.7749 112.389 83.5618 113.807 83.6294 113.807C83.8632 113.807 84.6684 113.864 84.8035 113.807C84.9386 113.75 86.6063 112.648 86.7466 112.612C86.8817 112.57 87.2869 112.555 87.5207 112.493C87.7545 112.43 89.4014 110.991 89.4326 110.934C89.4637 110.876 89.5105 110.305 89.5209 110.258C89.5313 110.211 90.082 108.169 90.1599 107.946C90.2379 107.722 90.269 105.857 90.269 105.67C90.269 105.483 88.3571 100.993 87.6506 100.463C86.944 99.9333 82.476 97.7509 81.0057 97.4859C79.5355 97.2209 71.4463 96.0154 71.1554 95.8075C70.8592 95.5997 57.0604 87.6858 54.6602 87.1039C52.7171 86.631 34.4399 87.2805 33.2658 87.3377C32.0916 87.3949 25.1507 88.4601 24.9325 88.5588C24.7143 88.6575 24.9325 89.5201 25.2078 89.676C25.2078 89.676 20.7658 94.6903 20.0956 95.7503V95.7503Z" fill="#7BDADB"/>
<path opacity="0.1" d="M73.8258 104.038C68.1473 105.337 68.0641 111.765 68.0641 112.945C68.0641 112.945 36.5804 112.129 36.4349 112.103C36.3154 112.077 36.3518 106.449 32.1436 104.303C34.0347 105.239 36.4557 107.504 37.3753 110.809C37.474 111.162 38.4819 111.713 47.3607 111.999C56.2447 112.28 63.9598 112.103 65.4249 111.9C66.89 111.692 68.6096 104.018 73.8258 104.044V104.038Z" fill="black"/>
<path d="M25.7326 95.21C26.117 96.3427 68.4019 98.4628 68.6565 97.912C68.8435 97.5067 64.6872 94.1655 62.7442 93.0795C60.8011 91.9935 55.2473 88.8446 52.5094 88.5224C49.7714 88.2003 44.228 88.2263 39.3963 88.3146C34.601 88.4029 33.1463 88.5224 31.1461 89.3746C29.3901 90.1229 25.4313 94.311 25.7326 95.21V95.21Z" fill="#263238"/>
<path d="M27.0262 94.5448C27.1457 94.9709 33.2191 95.8647 45.2463 96.4259C57.2735 96.9871 63.2118 97.2832 63.3624 97.2209C63.5131 97.1585 62.952 93.9577 62.7442 93.6927C62.5364 93.4277 53.9225 89.0161 52.5717 88.8966C51.2209 88.7771 43.9111 88.8446 40.2224 88.8238C35.6505 88.7926 33.0321 89.3227 31.7228 89.8527C30.5695 90.3203 26.9171 94.1187 27.0314 94.5448H27.0262Z" fill="#37474F"/>
<g opacity="0.1">
<path d="M38.2794 88.8497L31.6917 95.4385C30.2058 95.267 29.0732 95.106 28.2939 94.9553L33.9984 89.2498C35.0998 89.0576 36.5026 88.9069 38.2794 88.8497Z" fill="white"/>
<path d="M63.3624 97.2208C63.3001 97.2468 62.1571 97.2053 59.9127 97.1065L62.8948 94.1239C63.139 95.0644 63.4819 97.1741 63.3624 97.2208Z" fill="white"/>
<path d="M43.6098 88.829L36.5442 95.8958L34.97 95.7659L34.757 95.7503L41.672 88.8342C42.2798 88.8342 42.9344 88.8342 43.6098 88.8342V88.829Z" fill="white"/>
<path d="M60.0374 92.2169L55.3564 96.8987C54.7694 96.8727 54.1511 96.8415 53.5017 96.8103L58.7438 91.5674C59.1906 91.7908 59.627 92.0091 60.0322 92.2169H60.0374Z" fill="white"/>
<path d="M32.4294 89.6084L27.3224 94.7163C27.1405 94.6539 27.0418 94.5968 27.0262 94.5448C27.021 94.524 27.0262 94.4876 27.0418 94.4461L31.5566 89.9306C31.6137 89.8994 31.6709 89.8734 31.7176 89.8526C31.9202 89.7695 32.1592 89.6863 32.4294 89.6084Z" fill="white"/>
<path d="M61.1544 92.7937L56.9774 96.9714C56.8059 96.961 56.6293 96.9559 56.4526 96.9455L60.7959 92.6014C60.9206 92.669 61.0401 92.7313 61.1544 92.7937V92.7937Z" fill="white"/>
<path d="M53.9797 89.359L46.8413 96.4986C47.018 96.509 47.1946 96.5142 47.366 96.5246L54.3694 89.5201L53.9797 89.359V89.359Z" fill="white"/>
</g>
<path d="M39.8275 89.0108C39.9003 89.2447 40.025 96.0725 40.025 96.2959C40.025 96.5194 39.7756 96.5661 39.7756 96.5661L43.6565 96.748C43.6565 96.748 43.4071 96.6752 43.3604 96.5609C43.3188 96.4414 42.0979 89.0732 42.1031 88.9797C42.1083 88.8861 42.3005 88.7926 42.3005 88.7926H39.5938C39.5938 88.7926 39.7756 88.8602 39.8275 89.0108V89.0108Z" fill="#263238"/>
<path d="M81.2814 99.6684C81.5775 100.406 84.305 102.043 85.3649 102.396C86.0299 102.62 88.3782 103.134 88.5392 103.02C88.6951 102.911 87.8067 101.066 87.2768 100.567C86.7469 100.068 83.9414 98.5772 83.0426 98.4889C82.1386 98.3953 80.9904 98.9253 81.2866 99.6684H81.2814Z" fill="white"/>
<path d="M88.5338 103.02C88.378 103.129 86.0297 102.615 85.3595 102.391C84.2996 102.038 81.5721 100.401 81.2759 99.6631C80.9798 98.9201 82.128 98.3952 83.032 98.4836C83.0943 98.4888 83.1618 98.5044 83.2398 98.52C82.3566 98.7174 82.0812 99.3825 82.5332 99.8502C82.9852 100.323 84.4711 101.482 85.0945 101.773C85.692 102.053 87.9727 102.791 88.1961 102.651C88.2844 102.599 88.3208 102.459 88.3364 102.308C88.4975 102.682 88.591 102.973 88.5338 103.009V103.02Z" fill="#EBEBEB"/>
<g opacity="0.2">
<path d="M41.7341 97.2469L41.4691 99.1279L41.3548 100.068C41.3393 100.224 41.3185 100.385 41.3081 100.541C41.2977 100.702 41.3081 100.858 41.3081 101.019L41.3445 104.818L41.3756 106.72L41.3912 107.67L41.4016 108.143L41.438 108.616L41.5834 110.508L41.7445 112.399L41.651 110.502L41.5419 108.606L41.5159 108.133V107.66L41.5003 106.709L41.4795 104.813L41.412 101.019C41.412 100.863 41.3964 100.702 41.412 100.546C41.4224 100.391 41.4328 100.235 41.4484 100.074L41.5419 99.1279L41.7445 97.2417L41.7341 97.2469Z" fill="black"/>
<path d="M67.5966 101.897C67.5862 103.176 67.5602 104.454 67.5238 105.732C67.5134 106.054 67.503 106.371 67.4927 106.688C67.4927 107.011 67.4043 107.328 67.3316 107.634C67.1809 108.252 67.0043 108.855 66.8173 109.458C66.625 110.056 66.4224 110.653 66.1574 111.219L66.0535 111.433C66.0172 111.5 65.9756 111.568 65.9392 111.635C65.9029 111.703 65.8561 111.77 65.8146 111.833L65.747 111.926C65.6951 111.968 65.6639 111.957 65.6275 111.968C65.347 111.999 65.0716 112.004 64.7963 112.014C62.5883 112.066 60.3802 112.04 58.1722 112.025C55.9642 112.004 53.7562 111.968 51.5482 111.921C49.3401 111.869 47.1321 111.801 44.9241 111.708C43.8227 111.656 42.7628 111.661 41.6666 111.547V111.448C42.7628 111.557 43.8279 111.547 44.9293 111.599C47.1373 111.687 49.3453 111.739 51.5534 111.791C53.7614 111.843 55.9694 111.89 58.1774 111.916C60.3854 111.942 62.5935 111.973 64.8015 111.926C65.0768 111.916 65.3522 111.911 65.6223 111.879C65.6535 111.879 65.6951 111.864 65.7003 111.864L65.7626 111.775C65.8042 111.713 65.8509 111.656 65.8873 111.588C65.9237 111.521 65.9652 111.458 66.0016 111.391L66.1003 111.183C66.3653 110.627 66.5679 110.03 66.7601 109.432C66.9523 108.834 67.1238 108.226 67.2745 107.613C67.3472 107.307 67.4355 107.005 67.4355 106.683L67.4719 105.727C67.5186 104.449 67.555 103.171 67.5706 101.892C67.5706 101.731 67.5706 101.57 67.5706 101.414C67.5706 101.336 67.5602 101.258 67.5446 101.18L67.5134 100.941L67.3835 99.9957L67.1186 98.1042L67.3939 99.9957L67.5342 100.941L67.5654 101.18C67.5758 101.258 67.5914 101.336 67.5914 101.419C67.5914 101.581 67.5914 101.742 67.5914 101.897H67.5966Z" fill="black"/>
<path d="M83.4943 101.357C83.1722 101.653 82.7929 101.877 82.4344 102.116C82.0708 102.35 81.6967 102.573 81.3278 102.802C80.9538 103.02 80.5797 103.238 80.1952 103.451C79.816 103.659 79.4315 103.867 79.0419 104.064C79.4055 103.825 79.7744 103.591 80.1433 103.363L81.2551 102.687L82.3773 102.027L82.9384 101.7C83.1254 101.591 83.3176 101.487 83.4891 101.357H83.4943Z" fill="black"/>
<path d="M41.2977 105.55L44.8254 105.639L48.353 105.737L55.4083 105.935L62.4635 106.158L65.9912 106.273L69.5188 106.397L65.986 106.314L62.4635 106.216L55.4083 106.018L48.353 105.795L44.8254 105.68L41.2977 105.55Z" fill="black"/>
</g>
<path d="M35.5613 112.747C36.2598 108.714 33.5579 104.879 29.5263 104.181C25.4948 103.482 21.6603 106.184 20.9617 110.217C20.2632 114.249 22.9651 118.084 26.9967 118.783C31.0282 119.481 34.8627 116.779 35.5613 112.747Z" fill="#263238"/>
<path d="M28.2626 116.883C31.2495 116.883 33.6709 114.462 33.6709 111.474C33.6709 108.487 31.2495 106.065 28.2626 106.065C25.2756 106.065 22.8542 108.487 22.8542 111.474C22.8542 114.462 25.2756 116.883 28.2626 116.883Z" fill="#DBDBDB"/>
<path d="M28.2627 116.462C31.0172 116.462 33.2502 114.229 33.2502 111.474C33.2502 108.719 31.0172 106.486 28.2627 106.486C25.5081 106.486 23.2751 108.719 23.2751 111.474C23.2751 114.229 25.5081 116.462 28.2627 116.462Z" fill="#A6A6A6"/>
<path d="M29.0471 110.222H27.4781C28.008 109.458 26.1637 106.792 26.1637 106.792L26.9898 106.517C27.5405 107.457 27.8106 107.733 28.2626 107.733C28.7146 107.733 28.99 107.457 29.5355 106.517L30.3563 106.792C30.3563 106.792 28.512 109.458 29.0419 110.222H29.0471Z" fill="#DBDBDB"/>
<path d="M27.3482 110.321L26.8651 111.812C26.304 111.074 23.1971 112.004 23.1971 112.004V111.136C24.2518 110.908 24.5999 110.731 24.7402 110.3C24.8804 109.868 24.7038 109.526 23.9764 108.71L24.4908 108.013C24.4908 108.013 26.4546 110.591 27.3482 110.326V110.321Z" fill="#DBDBDB"/>
<path d="M26.9118 111.963L28.1794 112.882C27.3014 113.189 27.2287 116.431 27.2287 116.431L26.3974 116.171C26.5065 115.085 26.4494 114.701 26.0805 114.436C25.7168 114.171 25.3324 114.233 24.3349 114.67L23.8309 113.963C23.8309 113.963 26.891 112.887 26.9118 111.963Z" fill="#DBDBDB"/>
<path d="M28.3406 112.888L29.6082 111.968C29.629 112.898 32.6891 113.968 32.6891 113.968L32.1851 114.675C31.1876 114.239 30.8032 114.176 30.4395 114.441C30.0758 114.706 30.0135 115.091 30.1226 116.177L29.2965 116.437C29.2965 116.437 29.2186 113.194 28.3458 112.888H28.3406Z" fill="#DBDBDB"/>
<path d="M29.6602 111.812L29.177 110.321C30.0654 110.586 32.0344 108.008 32.0344 108.008L32.554 108.705C31.8266 109.515 31.65 109.863 31.7903 110.289C31.9305 110.721 32.2786 110.892 33.3437 111.126L33.3333 111.994C33.3333 111.994 30.2265 111.064 29.6654 111.802L29.6602 111.812Z" fill="#DBDBDB"/>
<path d="M29.7121 111.443C29.7121 112.243 29.0627 112.893 28.2626 112.893C27.4625 112.893 26.8131 112.243 26.8131 111.443C26.8131 110.643 27.4625 109.993 28.2626 109.993C29.0627 109.993 29.7121 110.643 29.7121 111.443Z" fill="#DBDBDB"/>
<path d="M81.1645 116.713C84.0577 113.819 84.0577 109.128 81.1645 106.234C78.2713 103.34 73.5805 103.34 70.6872 106.234C67.794 109.128 67.794 113.819 70.6872 116.713C73.5805 119.607 78.2713 119.607 81.1645 116.713Z" fill="#263238"/>
<path d="M75.9247 116.883C78.9117 116.883 81.3331 114.462 81.3331 111.474C81.3331 108.487 78.9117 106.065 75.9247 106.065C72.9378 106.065 70.5164 108.487 70.5164 111.474C70.5164 114.462 72.9378 116.883 75.9247 116.883Z" fill="#DBDBDB"/>
<path d="M75.9248 116.462C78.6793 116.462 80.9123 114.229 80.9123 111.474C80.9123 108.719 78.6793 106.486 75.9248 106.486C73.1702 106.486 70.9373 108.719 70.9373 111.474C70.9373 114.229 73.1702 116.462 75.9248 116.462Z" fill="#A6A6A6"/>
<path d="M76.7092 110.222H75.1402C75.6702 109.458 73.8258 106.792 73.8258 106.792L74.6519 106.517C75.2026 107.457 75.4727 107.733 75.9247 107.733C76.3767 107.733 76.6521 107.457 77.1976 106.517L78.0184 106.792C78.0184 106.792 76.1741 109.458 76.704 110.222H76.7092Z" fill="#DBDBDB"/>
<path d="M75.0103 110.32L74.5272 111.812C73.9661 111.074 70.8593 112.004 70.8593 112.004V111.136C71.9139 110.908 72.262 110.731 72.4023 110.3C72.5425 109.868 72.3659 109.525 71.6386 108.71L72.1529 108.013C72.1529 108.013 74.1167 110.591 75.0103 110.326V110.32Z" fill="#DBDBDB"/>
<path d="M74.5739 111.962L75.8415 112.882C74.9635 113.189 74.8908 116.431 74.8908 116.431L74.0595 116.171C74.1686 115.085 74.1115 114.701 73.7426 114.436C73.379 114.171 72.9945 114.233 71.997 114.67L71.493 113.963C71.493 113.963 74.5531 112.887 74.5739 111.962V111.962Z" fill="#DBDBDB"/>
<path d="M76.0027 112.887L77.2703 111.968C77.2911 112.898 80.3512 113.968 80.3512 113.968L79.8472 114.675C78.8497 114.238 78.4653 114.176 78.1016 114.441C77.7379 114.706 77.6756 115.091 77.7847 116.177L76.9586 116.436C76.9586 116.436 76.8807 113.194 76.0079 112.887H76.0027Z" fill="#DBDBDB"/>
<path d="M77.3223 111.812L76.8391 110.32C77.7275 110.585 79.6965 108.008 79.6965 108.008L80.2161 108.704C79.4887 109.515 79.3121 109.863 79.4524 110.289C79.5926 110.721 79.9407 110.892 81.0058 111.126L80.9954 111.994C80.9954 111.994 77.8886 111.064 77.3275 111.801L77.3223 111.812Z" fill="#DBDBDB"/>
<path d="M77.3742 111.443C77.3742 112.243 76.7248 112.893 75.9247 112.893C75.1246 112.893 74.4752 112.243 74.4752 111.443C74.4752 110.643 75.1246 109.993 75.9247 109.993C76.7248 109.993 77.3742 110.643 77.3742 111.443Z" fill="#DBDBDB"/>
<path d="M61.6583 94.4565C61.3881 94.7267 61.4141 97.143 61.6115 97.3404C61.8089 97.5379 64.4949 97.7146 64.7079 96.2129C64.921 94.7112 62.0791 94.0356 61.6583 94.4565V94.4565Z" fill="#7BDADB"/>
<path d="M71.4619 95.9011H69.2798C63.5961 92.1494 55.7927 88.4393 55.7927 88.4393L57.0864 88.1276C61.8089 90.4139 70.9164 95.6465 71.1553 95.8127C71.1865 95.8335 71.2904 95.8647 71.4619 95.9011V95.9011Z" fill="#37474F"/>
<g opacity="0.5">
<path d="M19.6903 106.636C20.1371 105.878 20.7138 105.202 21.3528 104.594C21.997 103.992 22.714 103.467 23.4881 103.041C25.0363 102.183 26.8183 101.773 28.5847 101.788L29.2497 101.82L29.5822 101.835C29.6913 101.846 29.8004 101.866 29.9095 101.882L30.5642 101.975C30.7824 102.022 30.9954 102.079 31.2084 102.126C32.0604 102.355 32.9021 102.677 33.6398 103.171C34.3827 103.649 35.0477 104.246 35.6088 104.932C36.1699 105.613 36.6063 106.387 37.0012 107.172C36.57 106.408 36.1232 105.644 35.5465 104.989C34.9802 104.324 34.3152 103.747 33.5723 103.29C32.0864 102.365 30.3252 101.986 28.5899 101.97C27.7171 101.949 26.8495 102.053 25.9974 102.251C25.1506 102.448 24.3297 102.76 23.5556 103.171C22.7815 103.576 22.0646 104.085 21.4152 104.667C20.7657 105.249 20.1735 105.909 19.6955 106.642L19.6903 106.636Z" fill="white"/>
<path d="M67.1913 106.636C67.6381 105.878 68.2148 105.202 68.8538 104.594C69.498 103.992 70.215 103.467 70.9891 103.041C72.5373 102.183 74.3193 101.773 76.0857 101.788L76.7507 101.82L77.0832 101.835C77.1923 101.846 77.3014 101.866 77.4105 101.882L78.0651 101.975C78.2833 102.022 78.4963 102.079 78.7093 102.126C79.5614 102.355 80.403 102.677 81.1408 103.171C81.8837 103.649 82.5487 104.246 83.1098 104.932C83.6709 105.613 84.1073 106.387 84.5021 107.172C84.0709 106.408 83.6241 105.644 83.0475 104.989C82.4812 104.324 81.8162 103.747 81.0732 103.29C79.5874 102.365 77.8261 101.986 76.0909 101.97C75.2181 101.949 74.3505 102.053 73.4984 102.251C72.6516 102.448 71.8307 102.76 71.0566 103.171C70.2825 103.576 69.5655 104.085 68.9161 104.667C68.2667 105.249 67.6744 105.909 67.1965 106.642L67.1913 106.636Z" fill="white"/>
<path d="M22.314 94.337C23.4673 93.4328 24.6415 92.5495 25.8208 91.6765C27.0054 90.8088 28.1899 89.9462 29.416 89.1356C29.5719 89.0369 29.7277 88.9381 29.8888 88.8446C29.9667 88.7978 30.0498 88.7511 30.1329 88.7095C30.2213 88.6679 30.3148 88.6316 30.4031 88.6108C30.7564 88.5068 31.1149 88.4185 31.4682 88.325C32.1799 88.1483 32.8969 87.982 33.619 87.8417C34.3412 87.6858 35.0789 87.6443 35.8115 87.6183C36.544 87.6027 37.2817 87.6027 38.0143 87.6391C37.2817 87.6443 36.5492 87.6599 35.8166 87.7066C35.0841 87.7534 34.3568 87.8106 33.645 87.9768C32.9332 88.1379 32.2163 88.3042 31.5097 88.4861C31.1564 88.5796 30.798 88.6679 30.4551 88.7771C30.3667 88.803 30.2888 88.8342 30.2109 88.8706C30.1329 88.9121 30.055 88.9537 29.9771 89.0005C29.8212 89.094 29.6654 89.1927 29.5147 89.2915C28.2886 90.0865 27.0989 90.9491 25.8987 91.7908L22.314 94.3422V94.337Z" fill="white"/>
</g>
<path opacity="0.1" d="M89.6456 109.796C89.5729 110.061 89.5261 110.248 89.5209 110.263C89.5106 110.31 89.4638 110.882 89.4326 110.939C89.4015 110.996 87.7597 112.44 87.5207 112.498C87.3025 112.55 86.9441 112.57 86.783 112.607C86.783 112.607 86.783 112.607 86.7778 112.607C86.7674 112.607 86.757 112.607 86.7518 112.607C86.6687 112.633 86.1128 112.986 85.6141 113.303C85.5569 113.339 85.505 113.371 85.453 113.407C85.427 113.423 85.4011 113.443 85.3699 113.459C85.3179 113.49 85.2712 113.521 85.2244 113.552C85.1776 113.584 85.1309 113.61 85.0945 113.636C85.0737 113.651 85.053 113.662 85.0322 113.677C84.9179 113.745 84.84 113.791 84.814 113.802C84.6789 113.864 83.8736 113.802 83.6398 113.802C83.6398 113.797 83.6346 113.781 83.6346 113.76C83.6346 113.682 83.645 113.501 83.6606 113.261C83.6606 113.22 83.6658 113.178 83.671 113.137C83.671 113.09 83.6762 113.038 83.6814 112.986C83.6814 112.939 83.6866 112.893 83.6918 112.841C83.6918 112.815 83.6918 112.783 83.697 112.757C83.7074 112.654 83.7126 112.544 83.7178 112.43C83.7178 112.43 83.7178 112.43 83.7178 112.425C83.7437 112.014 83.7593 111.552 83.7489 111.105C83.7489 111.032 83.7489 110.96 83.7385 110.882C83.7385 110.814 83.7281 110.747 83.7229 110.679C83.7229 110.622 83.7126 110.559 83.7022 110.502C83.697 110.456 83.6918 110.409 83.6814 110.362C83.6606 110.196 83.6294 110.029 83.5879 109.863C83.5827 109.822 83.5723 109.785 83.5619 109.744C83.5463 109.676 83.5255 109.603 83.5099 109.536C83.4944 109.484 83.4788 109.432 83.4632 109.38C83.432 109.276 83.4008 109.177 83.3697 109.073C83.3489 109.021 83.3333 108.964 83.3125 108.912C83.2502 108.746 83.1826 108.575 83.1099 108.408C83.0891 108.361 83.0683 108.315 83.0476 108.268C83.0112 108.19 82.9748 108.117 82.9385 108.039C82.9229 108.013 82.9125 107.982 82.8969 107.956C82.8657 107.894 82.8294 107.831 82.7982 107.769C82.7566 107.696 82.7151 107.624 82.6735 107.551C82.6319 107.478 82.5852 107.405 82.5384 107.333C82.4969 107.265 82.4553 107.203 82.4137 107.135C82.4137 107.13 82.4033 107.125 82.4033 107.12C82.3618 107.057 82.315 106.99 82.2683 106.927C82.2579 106.917 82.2527 106.901 82.2423 106.891C82.2007 106.839 82.1644 106.782 82.1228 106.73C82.1072 106.709 82.0968 106.693 82.0812 106.678C82.0345 106.616 81.9825 106.553 81.9358 106.496C81.8267 106.366 81.7176 106.241 81.5981 106.122C81.5877 106.112 81.5773 106.096 81.5669 106.086C81.5201 106.039 81.4786 105.992 81.4318 105.95C81.4162 105.93 81.3954 105.914 81.3799 105.898C81.3227 105.847 81.2708 105.795 81.2136 105.743C81.2136 105.743 81.2032 105.737 81.2032 105.732C81.1409 105.675 81.0733 105.618 81.0058 105.561C80.9486 105.509 80.8863 105.462 80.824 105.41C80.8136 105.4 80.8032 105.394 80.7928 105.384C80.7356 105.342 80.6785 105.296 80.6213 105.254C80.5954 105.233 80.5694 105.218 80.5434 105.197C80.5382 105.197 80.533 105.187 80.5226 105.181C80.4655 105.14 80.4083 105.103 80.3512 105.062C80.2784 105.015 80.2057 104.968 80.133 104.922C80.1226 104.916 80.1122 104.906 80.1018 104.901C80.0291 104.854 79.9511 104.812 79.8784 104.771C79.8005 104.729 79.7173 104.683 79.6342 104.641C79.6342 104.641 79.6342 104.641 79.629 104.641C81.0941 104.953 83.5307 106.948 84.5178 109.006C85.505 111.063 85.2504 111.219 85.479 111.464C85.7076 111.708 86.4713 111.209 86.8246 111.121C87.1779 111.032 88.326 111.006 88.7676 110.918C89.2092 110.83 89.282 110.035 89.5833 109.858C89.6093 109.842 89.6404 109.816 89.6716 109.785L89.6456 109.796Z" fill="black"/>
<path opacity="0.3" d="M26.6521 98.4419V98.4731C26.6521 98.8784 26.4858 99.2837 26.2001 99.5747C25.9143 99.8761 25.5039 100.058 25.0779 100.063C24.6571 100.074 24.231 99.9073 23.9245 99.6111C23.618 99.3097 23.4414 98.8888 23.4362 98.4575C23.4362 98.0263 23.618 97.6054 23.9245 97.304C24.231 97.0026 24.6571 96.8415 25.0779 96.8519C25.4987 96.8571 25.9091 97.039 26.2001 97.3404C26.4858 97.6313 26.6521 98.0366 26.6521 98.4419V98.4419Z" fill="black"/>
<path opacity="0.3" d="M22.34 100.001C22.0594 99.9958 21.7841 99.8192 21.5867 99.5334C21.3892 99.2528 21.2801 98.8579 21.2853 98.463C21.2853 98.068 21.3944 97.6731 21.5919 97.3925C21.7841 97.1067 22.0594 96.9301 22.34 96.9249C22.6205 96.9145 22.9115 97.0704 23.1141 97.3614C23.2648 97.5692 23.3687 97.8446 23.4154 98.1356C23.3739 97.8394 23.2752 97.564 23.1245 97.351C22.9219 97.0496 22.6361 96.8677 22.34 96.8625C22.0439 96.8521 21.7477 97.0184 21.5347 97.3146C21.3217 97.616 21.197 98.0369 21.197 98.4681C21.197 98.8994 21.3269 99.3203 21.5399 99.6217C21.7529 99.9231 22.0491 100.084 22.3452 100.074C22.6413 100.069 22.9271 99.8867 23.1297 99.5853C23.3063 99.3255 23.4206 98.9774 23.4414 98.624C23.4154 98.9826 23.3011 99.3255 23.1193 99.5749C22.9167 99.8607 22.6257 100.022 22.3452 100.011L22.34 100.001ZM23.4154 98.1252C23.4258 98.1824 23.4362 98.2447 23.4362 98.3019C23.4362 98.2395 23.4258 98.1824 23.4154 98.1252Z" fill="black"/>
<path opacity="0.3" d="M23.4414 98.4576C23.4414 98.5095 23.4414 98.5615 23.4362 98.6134C23.4102 98.972 23.2959 99.3149 23.1141 99.5644C22.9115 99.8501 22.6205 100.011 22.34 100.001C22.0594 99.9956 21.7841 99.819 21.5867 99.5332C21.3892 99.2526 21.2801 98.8577 21.2853 98.4628C21.2853 98.0679 21.3944 97.6729 21.5919 97.3923C21.7841 97.1065 22.0594 96.9299 22.34 96.9247C22.6205 96.9143 22.9115 97.0702 23.1141 97.3612C23.2959 97.6106 23.4102 97.9535 23.4362 98.3121C23.4362 98.364 23.4414 98.416 23.4414 98.468V98.4576Z" fill="black"/>
<path d="M26.0235 98.442V98.4628C26.0235 98.7174 25.9195 98.9668 25.7429 99.1486C25.5611 99.3357 25.3065 99.45 25.0467 99.45C24.787 99.4552 24.5168 99.3513 24.3298 99.1694C24.1375 98.9824 24.0284 98.7174 24.0284 98.4524C24.0284 98.1822 24.1427 97.9171 24.3298 97.7353C24.522 97.5482 24.787 97.4443 25.0467 97.4547C25.3117 97.4547 25.5663 97.5742 25.7429 97.7561C25.9195 97.9379 26.0235 98.1925 26.0235 98.442V98.442Z" fill="#263238"/>
<path d="M18.7916 100.131C18.7916 100.131 19.1137 100.78 19.0929 100.967C19.0722 101.154 18.8384 103.129 18.6981 103.217C18.5578 103.311 18.2461 103.477 17.9707 103.43C17.7006 103.384 18.7916 100.131 18.7916 100.131V100.131Z" fill="#EBEBEB"/>
<path d="M25.2026 89.676C25.2026 89.676 22.9218 92.5027 22.7712 92.7313C22.6205 92.9652 20.8437 95.3138 20.8437 95.3138L20.3293 95.4126L23.4933 91.266L25.2078 89.6708L25.2026 89.676Z" fill="#37474F"/>
<path opacity="0.3" d="M45.6151 100.546H45.1527C44.55 100.546 44.0616 100.058 44.0616 99.4552C44.0616 98.8525 44.55 98.364 45.1527 98.364H45.6151C46.2177 98.364 46.7061 98.8525 46.7061 99.4552C46.7061 100.058 46.2177 100.546 45.6151 100.546Z" fill="black"/>
<path d="M46.9503 99.9073H43.459C43.2512 99.9073 43.085 99.741 43.085 99.5332C43.085 99.3253 43.2512 99.1591 43.459 99.1591H46.9503C47.1581 99.1591 47.3244 99.3253 47.3244 99.5332C47.3244 99.741 47.1581 99.9073 46.9503 99.9073Z" fill="#7BDADB"/>
<path opacity="0.1" d="M46.9503 99.9073H43.459C43.2512 99.9073 43.085 99.741 43.085 99.5332C43.085 99.3253 43.2512 99.1591 43.459 99.1591H46.9503C47.1581 99.1591 47.3244 99.3253 47.3244 99.5332C47.3244 99.741 47.1581 99.9073 46.9503 99.9073Z" fill="black"/>
<path d="M79.5042 169.183H28.1016V169.994H79.5042V169.183Z" fill="#EBEBEB"/>
<path d="M72.2308 173.631H35.3699V174.442H72.2308V173.631Z" fill="#EBEBEB"/>
<path d="M69.9033 171.407H37.6974V172.218H69.9033V171.407Z" fill="#EBEBEB"/>
</svg>
