<svg width="237" height="65" viewBox="0 0 237 65" fill="none" xmlns="http://www.w3.org/2000/svg">
<g clip-path="url(#clip0_1_41)">
<path d="M81.5519 46.9303V42.1816C81.5545 37.3743 80.0676 32.687 77.3 28.7791C74.5325 24.8712 70.6237 21.9394 66.1235 20.3959C61.6232 18.8523 56.7579 18.7748 52.2119 20.1743C47.6658 21.5737 43.6678 24.3797 40.78 28.1975C37.8907 24.3813 33.8921 21.577 29.3461 20.1786C24.8001 18.7802 19.9353 18.858 15.4353 20.4012C10.9352 21.9443 7.02627 24.8751 4.2577 28.7818C1.48914 32.6885 0.000156964 37.3746 0 42.1816V59.7109C0 60.9703 0.49454 62.1782 1.37481 63.0688C2.25508 63.9593 3.44897 64.4596 4.69386 64.4596C5.93875 64.4596 7.13264 63.9593 8.01291 63.0688C8.89318 62.1782 9.38772 60.9703 9.38772 59.7109V42.1816C9.33835 38.5988 10.6979 35.1428 13.1672 32.574C15.6365 30.0052 19.0133 28.534 22.5548 28.484C26.0964 28.4341 29.5124 29.8095 32.0515 32.3077C34.5907 34.8058 36.0449 38.2221 36.0942 41.805C36.0942 41.936 36.0942 42.0588 36.0942 42.1816V59.7109C36.0942 60.9703 36.5888 62.1782 37.469 63.0688C38.3493 63.9593 39.5432 64.4596 40.7881 64.4596C42.033 64.4596 43.2269 63.9593 44.1072 63.0688C44.9875 62.1782 45.482 60.9703 45.482 59.7109V42.4682C45.482 42.3781 45.482 42.2799 45.482 42.1816C45.482 42.0834 45.482 41.936 45.482 41.805C45.5314 38.2221 46.9855 34.8058 49.5247 32.3077C52.0638 29.8095 55.4799 28.4341 59.0214 28.484C62.5629 28.534 65.9397 30.0052 68.409 32.574C70.8783 35.1428 72.2379 38.5988 72.1885 42.1816V46.9303C72.1622 47.57 72.264 48.2084 72.4879 48.8072C72.7117 49.4061 73.053 49.9529 73.491 50.4149C73.9291 50.8769 74.455 51.2445 75.0371 51.4956C75.6192 51.7467 76.2455 51.8762 76.8783 51.8762C77.5111 51.8762 78.1374 51.7467 78.7195 51.4956C79.3016 51.2445 79.8275 50.8769 80.2656 50.4149C80.7036 49.9529 81.0448 49.4061 81.2687 48.8072C81.4925 48.2084 81.5944 47.57 81.5681 46.9303H81.5519ZM134.746 42.0179V24.464C134.696 23.2398 134.18 22.0826 133.306 21.2343C132.432 20.3861 131.268 19.9125 130.057 19.9125C128.845 19.9125 127.681 20.3861 126.807 21.2343C125.933 22.0826 125.417 23.2398 125.367 24.464V41.9933C125.246 45.4948 123.787 48.8122 121.296 51.2461C118.805 53.68 115.477 55.0404 112.014 55.0404C108.55 55.0404 105.223 53.68 102.732 51.2461C100.24 48.8122 98.7808 45.4948 98.6603 41.9933V24.464C98.6603 23.2046 98.1657 21.9968 97.2855 21.1062C96.4052 20.2157 95.2113 19.7153 93.9664 19.7153C92.7215 19.7153 91.5276 20.2157 90.6474 21.1062C89.7671 21.9968 89.2725 23.2046 89.2725 24.464V41.9933C89.2725 45.0146 89.8608 48.0063 91.0036 50.7976C92.1464 53.5889 93.8215 56.1252 95.9332 58.2615C98.0449 60.3979 100.552 62.0925 103.311 63.2487C106.07 64.4049 109.027 65 112.014 65C115 65 117.957 64.4049 120.716 63.2487C123.475 62.0925 125.982 60.3979 128.094 58.2615C130.206 56.1252 131.881 53.5889 133.023 50.7976C134.166 48.0063 134.755 45.0146 134.755 41.9933L134.746 42.0179ZM178.545 42.0916C178.563 44.7672 177.795 47.3879 176.338 49.6213C174.882 51.8547 172.802 53.6002 170.364 54.6365C167.926 55.6729 165.238 55.9532 162.642 55.4422C160.046 54.9312 157.658 53.6517 155.782 51.766C153.905 49.8803 152.625 47.4734 152.102 44.8505C151.58 42.2275 151.839 39.5066 152.847 37.0329C153.855 34.5591 155.566 32.444 157.764 30.9555C159.962 29.4671 162.547 28.6724 165.192 28.6724C168.717 28.6766 172.097 30.0889 174.598 32.602C177.099 35.1151 178.517 38.5257 178.545 42.0916V42.0916ZM187.933 42.1816V41.9278C187.887 37.7071 186.694 33.5805 184.485 30C182.275 26.4195 179.134 23.5233 175.406 21.6285C171.678 19.7337 167.506 18.9135 163.348 19.2576C159.189 19.6018 155.205 21.0971 151.83 23.5798V4.7487C151.857 4.10904 151.755 3.47061 151.531 2.87179C151.307 2.27298 150.966 1.72614 150.528 1.26414C150.09 0.802146 149.564 0.434567 148.982 0.183444C148.4 -0.0676792 147.773 -0.197144 147.141 -0.197144C146.508 -0.197144 145.882 -0.0676792 145.299 0.183444C144.717 0.434567 144.191 0.802146 143.753 1.26414C143.315 1.72614 142.974 2.27298 142.75 2.87179C142.526 3.47061 142.425 4.10904 142.451 4.7487V42.2471C142.563 48.2726 145.008 54.013 149.26 58.234C153.512 62.4551 159.231 64.8198 165.188 64.8198C171.145 64.8198 176.864 62.4551 181.116 58.234C185.367 54.013 187.812 48.2726 187.925 42.2471V42.1816H187.933ZM206.012 48.9608C204.597 46.3832 204.02 43.4205 204.361 40.4923C204.703 37.5641 205.946 34.8189 207.916 32.6454C209.885 30.4719 212.48 28.9803 215.334 28.3819C218.188 27.7834 221.156 28.1085 223.817 29.311C219.495 34.2234 211.41 43.2787 206.012 48.9608ZM235.292 49.6322C234.84 49.2892 234.326 49.0398 233.778 48.8982C233.231 48.7566 232.661 48.7256 232.102 48.8069C231.543 48.8883 231.005 49.0805 230.519 49.3724C230.034 49.6644 229.609 50.0503 229.271 50.5082C227.458 52.9807 224.889 54.7795 221.963 55.6261C219.037 56.4728 215.917 56.32 213.085 55.1915C220.847 46.9467 233.204 32.8807 233.795 32.2012C234.439 31.4702 234.84 30.5543 234.944 29.5812C235.073 28.8735 235.026 28.1446 234.807 27.46C234.588 26.7754 234.204 26.1567 233.69 25.6594C231.033 23.0813 227.792 21.2019 224.25 20.1859C220.708 19.1699 216.974 19.0484 213.375 19.832C209.776 20.6156 206.422 22.2804 203.607 24.6804C200.792 27.0805 198.602 30.1425 197.229 33.598C195.856 37.0536 195.341 40.7972 195.731 44.5007C196.12 48.2041 197.402 51.7544 199.463 54.8403C201.524 57.9261 204.302 60.4533 207.553 62.2004C210.805 63.9474 214.43 64.8609 218.111 64.8608C221.609 64.8482 225.056 64.0167 228.182 62.4315C231.309 60.8463 234.031 58.5504 236.134 55.7236C236.473 55.2663 236.72 54.7459 236.86 54.1921C237 53.6383 237.03 53.062 236.95 52.4962C236.869 51.9304 236.679 51.3862 236.391 50.8948C236.102 50.4033 235.721 49.9743 235.268 49.6322" fill="white"/>
<path d="M76.8014 64.4596C77.7433 64.4612 78.6644 64.1801 79.4482 63.6517C80.232 63.1234 80.8432 62.3715 81.2044 61.4915C81.5655 60.6115 81.6605 59.6429 81.4771 58.7082C81.2938 57.7736 80.8404 56.915 80.1744 56.2413C79.5084 55.5675 78.6598 55.1088 77.7359 54.9234C76.8121 54.7379 75.8546 54.8339 74.9848 55.1992C74.1149 55.5646 73.3718 56.183 72.8495 56.9759C72.3273 57.7689 72.0493 58.7008 72.0509 59.6536C72.0509 60.9282 72.5514 62.1507 73.4423 63.052C74.3332 63.9533 75.5415 64.4596 76.8014 64.4596Z" fill="#07FDAF"/>
</g>
<defs>
<clipPath id="clip0_1_41">
<rect width="237" height="65" fill="white"/>
</clipPath>
</defs>
</svg>
