<svg width="99" height="28" viewBox="0 0 99 28" fill="none" xmlns="http://www.w3.org/2000/svg">
<path d="M34.1395 20.0385V18.0894C34.1395 12.8798 29.9011 8.64143 24.6915 8.64143C21.6428 8.64143 18.9277 10.0948 17.1994 12.3436C15.4711 10.0948 12.7559 8.64143 9.70725 8.64143C4.49768 8.64143 0.259277 12.8798 0.259277 18.0894V25.2864C0.259277 26.3634 1.13129 27.2355 2.20836 27.2355C3.28542 27.2355 4.15744 26.3634 4.15744 25.2864V18.0894C4.15744 15.0295 6.64731 12.5396 9.70725 12.5396C12.7672 12.5396 15.1647 14.9461 15.2481 17.9339C15.2481 17.9858 15.2436 18.0376 15.2436 18.0894V25.2864C15.2436 26.3634 16.1156 27.2355 17.1926 27.2355C18.2697 27.2355 19.1417 26.3634 19.1417 25.2864V18.2066C19.144 18.1683 19.153 18.13 19.153 18.0894C19.153 18.0376 19.1507 17.9858 19.1485 17.9339C19.2318 14.9461 21.6812 12.5396 24.6893 12.5396C27.6974 12.5396 30.2391 15.0295 30.2391 18.0894V20.0385C30.2391 21.1156 31.1111 21.9876 32.1882 21.9876C33.2652 21.9876 34.1373 21.1156 34.1373 20.0385M56.2306 18.0105V10.8136C56.2306 9.73652 55.3586 8.8645 54.2815 8.8645C53.2045 8.8645 52.3324 9.73652 52.3324 10.8136V18.0105C52.3324 21.0705 49.8426 23.5604 46.7826 23.5604C43.7227 23.5604 41.2351 21.0705 41.2351 18.0105V10.8136C41.2351 9.73652 40.3631 8.8645 39.286 8.8645C38.2089 8.8645 37.3369 9.73652 37.3369 10.8136V18.0105C37.3369 23.2201 41.5753 27.4585 46.7826 27.4585C51.9899 27.4585 56.2306 23.2201 56.2306 18.0105ZM74.4235 18.0511C74.401 21.093 71.9224 23.5604 68.876 23.5604C65.8296 23.5604 63.351 21.093 63.3284 18.0511C63.351 15.0092 65.8296 12.5418 68.876 12.5418C71.9224 12.5418 74.401 15.0092 74.4235 18.0511ZM78.324 18.0894C78.324 18.0759 78.324 18.0624 78.324 18.0511C78.324 18.0398 78.324 18.0241 78.324 18.0105C78.324 18.0015 78.3217 17.9925 78.3217 17.9835C78.2631 12.8235 74.0518 8.64143 68.876 8.64143C66.803 8.64143 64.8854 9.31291 63.3262 10.4486V2.71306C63.3262 1.636 62.4541 0.763977 61.3771 0.763977C60.3 0.763977 59.428 1.636 59.428 2.71306V18.0083C59.428 18.0218 59.428 18.0353 59.428 18.0488C59.428 18.0624 59.428 18.0759 59.428 18.0872C59.428 18.0962 59.4303 18.1052 59.4303 18.1142C59.4888 23.2742 63.7002 27.4563 68.876 27.4563C74.0518 27.4563 78.2631 23.2742 78.3217 18.1142C78.3217 18.1052 78.324 18.0962 78.324 18.0872M85.8386 20.87C85.3699 20.034 85.0973 19.0741 85.0973 18.0488C85.0973 14.865 87.6886 12.2737 90.8725 12.2737C91.7017 12.2737 92.5016 12.454 93.2384 12.7852C91.4425 14.7929 88.0829 18.522 85.8386 20.8722M98.0041 21.1471C97.2132 20.5567 96.0933 20.7167 95.5029 21.5076C94.3988 22.9813 92.7134 23.8285 90.8747 23.8285C90.1379 23.8285 89.4371 23.6843 88.7882 23.4319C92.0126 20.0475 97.1456 14.2701 97.3934 13.9907C97.6706 13.6797 97.826 13.3012 97.8689 12.9159C97.9725 12.3458 97.799 11.7352 97.3484 11.3048C95.5998 9.62611 93.2992 8.70002 90.8747 8.70002C85.7192 8.70002 81.5259 12.8956 81.5259 18.0511C81.5259 23.2066 85.7215 27.4022 90.8747 27.4022C93.8062 27.4022 96.607 25.9984 98.3646 23.6482C98.9549 22.8573 98.795 21.7375 98.0041 21.1471Z" fill="white"/>
<path d="M32.1633 27.2355C33.2539 27.2355 34.1372 26.3522 34.1372 25.2616C34.1372 24.171 33.2539 23.2877 32.1633 23.2877C31.0727 23.2877 30.1895 24.171 30.1895 25.2616C30.1895 26.3522 31.0727 27.2355 32.1633 27.2355Z" fill="#01B9C1"/>
</svg>
