<svg width="506" height="279" viewBox="0 0 506 279" fill="none" xmlns="http://www.w3.org/2000/svg">
<path d="M504.665 170.639V141.65C504.613 104.417 489.797 68.7235 463.47 42.3958C437.142 16.068 401.449 1.25406 364.216 1.20117C342.681 1.2074 321.435 6.16939 302.125 15.7033C282.814 25.2372 265.957 39.0873 252.857 56.181C239.745 39.089 222.878 25.2409 203.56 15.7076C184.242 6.17424 162.99 1.21107 141.448 1.20117C104.215 1.25406 68.5224 16.068 42.1946 42.3958C15.8669 68.7235 1.05289 104.417 1 141.65V248.66C1 256.349 4.05398 263.722 9.49054 269.159C14.9271 274.595 22.2999 277.649 29.9884 277.649C37.6769 277.649 45.0509 274.595 50.4875 269.159C55.924 263.722 58.978 256.349 58.978 248.66V141.65C59.0045 119.785 67.7019 98.8244 83.1623 83.364C98.6226 67.9037 119.584 59.2062 141.448 59.1798C162.873 59.2085 183.447 67.5691 198.819 82.4934C214.191 97.4177 223.156 117.736 223.817 139.15C223.817 139.95 223.817 140.7 223.817 141.449V248.46C223.817 256.149 226.871 263.522 232.308 268.959C237.745 274.395 245.119 277.45 252.807 277.45C256.614 277.45 260.383 276.7 263.9 275.243C267.418 273.786 270.614 271.651 273.306 268.959C275.998 266.267 278.134 263.071 279.59 259.554C281.047 256.037 281.797 252.267 281.797 248.46V143.199C281.797 142.599 281.797 142.049 281.797 141.449C281.797 140.85 281.797 139.95 281.797 139.15C282.458 117.736 291.423 97.4177 306.795 82.4934C322.167 67.5691 342.741 59.2085 364.166 59.1798C386.031 59.2062 406.992 67.9037 422.452 83.364C437.912 98.8244 446.61 119.785 446.636 141.65V170.639C446.636 178.328 449.69 185.701 455.127 191.138C460.563 196.574 467.937 199.628 475.626 199.628C479.433 199.628 483.202 198.879 486.719 197.422C490.236 195.965 493.432 193.83 496.124 191.138C498.816 188.446 500.951 185.25 502.408 181.732C503.865 178.215 504.615 174.446 504.615 170.639" stroke="white" stroke-width="2" stroke-miterlimit="10"/>
<path d="M475.326 277.649C479.183 277.649 483.002 276.889 486.565 275.412C490.128 273.934 493.364 271.768 496.089 269.039C498.814 266.309 500.974 263.069 502.446 259.504C503.917 255.938 504.672 252.117 504.665 248.26C504.665 240.479 501.573 233.017 496.071 227.515C490.569 222.012 483.107 218.921 475.326 218.921C471.468 218.914 467.647 219.669 464.082 221.14C460.517 222.612 457.277 224.772 454.547 227.497C451.817 230.222 449.652 233.458 448.175 237.021C446.697 240.584 445.937 244.403 445.937 248.26C445.937 256.055 449.033 263.53 454.545 269.042C460.056 274.553 467.531 277.649 475.326 277.649" stroke="white" stroke-width="2" stroke-miterlimit="10"/>
</svg>
