<svg width="293" height="166" viewBox="0 0 293 166" fill="none" xmlns="http://www.w3.org/2000/svg">
<path d="M100.77 143.521V137.721C100.775 131.848 98.9394 126.122 95.5204 121.347C92.1015 116.573 87.2717 112.99 81.7104 111.104C76.1492 109.217 70.1365 109.122 64.5182 110.831C58.8999 112.54 53.9588 115.967 50.39 120.631C46.8193 115.969 41.8775 112.544 36.2593 110.836C30.641 109.128 24.6288 109.224 19.0679 111.11C13.5069 112.996 8.67687 116.577 5.25665 121.351C1.83644 126.124 -0.00189539 131.849 1.46646e-06 137.721V159.121C1.46646e-06 160.659 0.611082 162.134 1.69879 163.222C2.7865 164.31 4.26173 164.921 5.79999 164.921C7.33824 164.921 8.81347 164.31 9.90119 163.222C10.9889 162.134 11.6 160.659 11.6 159.121V137.721C11.539 133.345 13.2189 129.124 16.2701 125.986C19.3213 122.849 23.4939 121.052 27.87 120.991C32.2461 120.93 36.4671 122.61 39.6046 125.661C42.7421 128.712 44.539 132.885 44.6 137.261C44.6 137.411 44.6 137.561 44.6 137.721V159.121C44.6 160.659 45.2111 162.134 46.2988 163.222C47.3865 164.31 48.8617 164.921 50.4 164.921C51.9382 164.921 53.4135 164.31 54.5012 163.222C55.5889 162.134 56.2 160.659 56.2 159.121V138.041C56.2 137.921 56.2 137.811 56.2 137.691C56.2 137.571 56.2 137.381 56.2 137.231C56.261 132.855 58.0579 128.682 61.1954 125.631C64.3329 122.58 68.5539 120.9 72.93 120.961C77.3061 121.022 81.4787 122.819 84.5299 125.956C87.5811 129.094 89.261 133.315 89.2 137.691V143.491C89.2621 144.986 89.8998 146.399 90.9798 147.435C92.0598 148.472 93.4984 149.05 94.995 149.05C96.4916 149.05 97.9302 148.472 99.0102 147.435C100.09 146.399 100.728 144.986 100.79 143.491L100.77 143.521ZM166.5 137.491V116.041C166.532 115.26 166.407 114.48 166.13 113.748C165.853 113.017 165.432 112.349 164.89 111.785C164.349 111.221 163.699 110.772 162.98 110.465C162.261 110.158 161.487 110 160.705 110C159.923 110 159.149 110.158 158.43 110.465C157.711 110.772 157.061 111.221 156.52 111.785C155.978 112.349 155.557 113.017 155.28 113.748C155.003 114.48 154.878 115.26 154.91 116.041V137.441C154.987 139.656 154.617 141.864 153.823 143.933C153.028 146.002 151.825 147.89 150.286 149.485C148.746 151.079 146.901 152.347 144.861 153.213C142.82 154.079 140.626 154.525 138.41 154.525C136.193 154.525 134 154.079 131.959 153.213C129.919 152.347 128.074 151.079 126.534 149.485C124.994 147.89 123.791 146.002 122.997 143.933C122.203 141.864 121.833 139.656 121.91 137.441V116.041C121.91 114.503 121.299 113.027 120.211 111.94C119.123 110.852 117.648 110.241 116.11 110.241C114.572 110.241 113.096 110.852 112.009 111.94C110.921 113.027 110.31 114.503 110.31 116.041V137.441C110.31 144.893 113.271 152.041 118.54 157.31C123.81 162.58 130.957 165.541 138.41 165.541C145.863 165.541 153.01 162.58 158.28 157.31C163.549 152.041 166.51 144.893 166.51 137.441L166.5 137.491ZM220.62 137.561C220.642 140.829 219.693 144.03 217.893 146.757C216.093 149.485 213.524 151.617 210.511 152.883C207.498 154.149 204.177 154.491 200.969 153.867C197.761 153.243 194.811 151.68 192.492 149.377C190.174 147.074 188.591 144.134 187.946 140.93C187.3 137.727 187.62 134.404 188.866 131.382C190.111 128.361 192.226 125.777 194.942 123.959C197.658 122.141 200.852 121.171 204.12 121.171C208.475 121.176 212.653 122.901 215.743 125.97C218.833 129.04 220.586 133.205 220.62 137.561ZM232.22 137.681V137.361C232.154 132.21 230.673 127.177 227.938 122.813C225.202 118.448 221.319 114.92 216.712 112.615C212.106 110.311 206.954 109.318 201.821 109.745C196.688 110.173 191.771 112.005 187.61 115.041V92.0408C187.642 91.2595 187.517 90.4798 187.24 89.7484C186.963 89.017 186.542 88.3491 186 87.7848C185.459 87.2205 184.809 86.7715 184.09 86.4648C183.371 86.1581 182.597 86 181.815 86C181.033 86 180.259 86.1581 179.54 86.4648C178.821 86.7715 178.171 87.2205 177.63 87.7848C177.088 88.3491 176.667 89.017 176.39 89.7484C176.113 90.4798 175.988 91.2595 176.02 92.0408V137.851C176.159 145.21 179.18 152.221 184.434 157.377C189.687 162.532 196.754 165.421 204.115 165.421C211.476 165.421 218.543 162.532 223.796 157.377C229.05 152.221 232.071 145.21 232.21 137.851V137.771L232.22 137.681ZM254.56 146.041C252.811 142.893 252.098 139.274 252.52 135.697C252.942 132.121 254.478 128.768 256.912 126.113C259.345 123.459 262.552 121.637 266.079 120.906C269.605 120.175 273.272 120.572 276.56 122.041C271.22 128.041 261.23 139.101 254.56 146.041ZM290.74 146.861C290.181 146.442 289.546 146.137 288.869 145.964C288.193 145.791 287.489 145.753 286.798 145.853C286.107 145.952 285.442 146.187 284.842 146.543C284.242 146.9 283.718 147.371 283.3 147.931C281.059 150.951 277.885 153.148 274.27 154.182C270.654 155.216 266.799 155.029 263.3 153.651C272.89 143.591 288.16 126.401 288.89 125.571C289.683 124.681 290.179 123.566 290.31 122.381C290.469 121.515 290.411 120.623 290.14 119.785C289.87 118.948 289.395 118.19 288.76 117.581C284.688 113.67 279.523 111.091 273.95 110.186C268.377 109.282 262.661 110.095 257.561 112.518C252.462 114.941 248.22 118.858 245.401 123.75C242.582 128.641 241.318 134.275 241.777 139.902C242.237 145.529 244.399 150.883 247.975 155.252C251.551 159.62 256.372 162.798 261.797 164.36C267.222 165.923 272.994 165.798 278.346 164.001C283.699 162.204 288.377 158.821 291.76 154.301C292.179 153.742 292.484 153.107 292.656 152.43C292.829 151.754 292.867 151.05 292.768 150.359C292.669 149.668 292.434 149.003 292.077 148.403C291.721 147.803 291.249 147.279 290.69 146.861" fill="#1D1D1B"/>
<path d="M94.9003 164.921C96.0612 164.921 97.1962 164.577 98.1615 163.932C99.1268 163.287 99.8792 162.37 100.323 161.297C100.768 160.225 100.884 159.044 100.657 157.906C100.431 156.767 99.872 155.721 99.051 154.9C98.2301 154.079 97.1841 153.52 96.0455 153.294C94.9068 153.067 93.7265 153.183 92.6539 153.628C91.5813 154.072 90.6646 154.824 90.0196 155.79C89.3746 156.755 89.0303 157.89 89.0303 159.051C89.0303 160.608 89.6487 162.101 90.7496 163.202C91.8504 164.302 93.3434 164.921 94.9003 164.921Z" fill="#01B9C1"/>
<path d="M207.037 0H172.953C171.323 0 170 1.29167 170 2.88222V37.1139C170 38.7067 171.323 40 172.953 40H207.037C208.668 40 210 38.7067 210 37.1139V2.88222C210 1.29167 208.668 0 207.037 0ZM181.863 34.0856H175.928V14.9972H181.863V34.0856ZM178.896 12.3872C176.994 12.3872 175.457 10.8461 175.457 8.94611C175.457 7.04889 176.994 5.50778 178.896 5.50778C180.793 5.50778 182.334 7.04889 182.334 8.94611C182.334 10.8461 180.793 12.3872 178.896 12.3872ZM204.083 34.0856H198.157V24.8033C198.157 22.5889 198.114 19.7417 195.073 19.7417C191.986 19.7417 191.515 22.1533 191.515 24.6428V34.0861H185.584V14.9972H191.276V17.6039H191.357C192.149 16.1039 194.085 14.5211 196.972 14.5211C202.975 14.5211 204.084 18.4733 204.084 23.615V34.0856H204.083Z" fill="#01B9C1"/>
<path d="M126.871 11.8062C126.847 10.1275 126.536 8.46214 125.94 6.89212C124.899 4.21111 122.777 2.09114 120.092 1.05333C118.539 0.470119 116.898 0.157446 115.236 0.121965C113.1 0.0266106 112.422 0 106.998 0C101.574 0 100.878 1.48698e-07 98.757 0.121965C97.0977 0.157446 95.4562 0.470119 93.9036 1.05333C91.2181 2.09114 89.0946 4.21111 88.0551 6.89212C87.4709 8.44218 87.1555 10.0809 87.1244 11.7374C87.0289 13.8729 87 14.5493 87 19.9645C87 25.3798 87 26.0716 87.1244 28.1916C87.1577 29.8503 87.4709 31.4869 88.0551 33.0414C89.0968 35.7201 91.2181 37.8401 93.9058 38.8779C95.4518 39.4811 97.0933 39.8226 98.7592 39.8758C100.898 39.9712 101.576 40 107 40C112.424 40 113.12 40 115.241 39.8758C116.9 39.8426 118.542 39.5299 120.096 38.9467C122.782 37.9066 124.903 35.7867 125.945 33.1079C126.529 31.5556 126.842 29.9191 126.876 28.2581C126.971 26.1249 127 25.4485 127 20.031C126.996 14.6158 126.996 13.9284 126.871 11.8062ZM106.984 30.2051C101.311 30.2051 96.7157 25.617 96.7157 19.9534C96.7157 14.2898 101.311 9.70174 106.984 9.70174C112.653 9.70174 117.253 14.2898 117.253 19.9534C117.253 25.617 112.653 30.2051 106.984 30.2051ZM117.662 11.7131C116.336 11.7131 115.267 10.6442 115.267 9.32254C115.267 8.00089 116.336 6.93203 117.662 6.93203C118.984 6.93203 120.054 8.00089 120.054 9.32254C120.054 10.6442 118.984 11.7131 117.662 11.7131Z" fill="#01B9C1"/>
<path d="M107.5 27C111.09 27 114 23.866 114 20C114 16.134 111.09 13 107.5 13C103.91 13 101 16.134 101 20C101 23.866 103.91 27 107.5 27Z" fill="#01B9C1"/>
<path d="M11.3038 0C7.2578 0 4 3.25779 4 7.30375V32.6962C4 36.7422 7.2578 40 11.3038 40H25.0663V24.3625H20.9313V18.7325H25.0663V13.9225C25.0663 10.1435 27.5094 6.67375 33.1375 6.67375C35.4162 6.67375 37.1013 6.89251 37.1013 6.89251L36.9688 12.15C36.9688 12.15 35.2502 12.1338 33.375 12.1338C31.3454 12.1338 31.02 13.0689 31.02 14.6213V18.7325H37.13L36.8638 24.3625H31.02V40H36.6962C40.7422 40 44 36.7422 44 32.6963V7.30379C44 3.25783 40.7422 3.99999e-05 36.6962 3.99999e-05H11.3037L11.3038 0Z" fill="#01B9C1"/>
<path d="M288.714 0H257.286C254.92 0 253 1.91964 253 4.28571V35.7143C253 38.0804 254.92 40 257.286 40H288.714C291.08 40 293 38.0804 293 35.7143V4.28571C293 1.91964 291.08 0 288.714 0ZM284.348 14.1786C284.366 14.4286 284.366 14.6875 284.366 14.9375C284.366 22.6786 278.473 31.5982 267.705 31.5982C264.384 31.5982 261.304 30.6339 258.714 28.9732C259.188 29.0268 259.643 29.0446 260.125 29.0446C262.866 29.0446 265.384 28.1161 267.393 26.5446C264.821 26.4911 262.661 24.8036 261.92 22.4821C262.821 22.6161 263.634 22.6161 264.562 22.375C261.884 21.8304 259.875 19.4732 259.875 16.625V16.5536C260.652 16.9911 261.562 17.2589 262.518 17.2946C261.715 16.7604 261.056 16.0356 260.601 15.185C260.146 14.3343 259.909 13.3843 259.911 12.4196C259.911 11.3304 260.196 10.3304 260.705 9.46429C263.589 13.0179 267.92 15.3393 272.777 15.5893C271.946 11.6161 274.92 8.39286 278.491 8.39286C280.179 8.39286 281.696 9.09821 282.768 10.2411C284.089 9.99107 285.357 9.5 286.482 8.83036C286.045 10.1875 285.125 11.3304 283.911 12.0536C285.089 11.9286 286.232 11.5982 287.286 11.1429C286.491 12.3125 285.491 13.3482 284.348 14.1786Z" fill="#01B9C1"/>
</svg>
