<svg width="386" height="358" viewBox="0 0 386 358" fill="none" xmlns="http://www.w3.org/2000/svg">
<path d="M384.203 218.725V181.474C384.135 133.63 365.097 87.7652 331.267 53.9345C297.436 20.1037 251.572 1.06796 203.728 1C176.055 1.008 148.755 7.38409 123.941 19.635C99.1274 31.886 77.4652 49.6831 60.6327 71.6483C43.7835 49.6854 22.1099 31.8907 -2.71339 19.6405C-27.5367 7.39032 -54.8452 1.01272 -82.5267 1C-130.371 1.06796 -176.235 20.1037 -210.066 53.9345C-243.896 87.7652 -262.932 133.63 -263 181.474V318.982C-263 328.861 -259.076 338.336 -252.09 345.322C-245.104 352.308 -235.63 356.232 -225.75 356.232C-215.871 356.232 -206.395 352.308 -199.409 345.322C-192.423 338.336 -188.499 328.861 -188.499 318.982V181.474C-188.465 153.379 -177.289 126.444 -157.423 106.578C-137.556 86.7117 -110.622 75.5357 -82.5267 75.5017C-54.9958 75.5386 -28.558 86.2818 -8.80511 105.459C10.9477 124.637 22.4667 150.745 23.3172 178.263C23.3172 179.29 23.3172 180.254 23.3172 181.217V318.724C23.3172 328.604 27.2415 338.079 34.2274 345.065C41.2133 352.051 50.6888 355.976 60.5684 355.976C65.4602 355.976 70.3037 355.012 74.8232 353.14C79.3427 351.268 83.4503 348.524 86.9094 345.065C90.3685 341.606 93.1126 337.499 94.9846 332.98C96.8567 328.46 97.8196 323.616 97.8196 318.724V183.465C97.8196 182.695 97.8196 181.988 97.8196 181.217C97.8196 180.446 97.8196 179.29 97.8196 178.263C98.67 150.745 110.189 124.637 129.942 105.459C149.695 86.2818 176.133 75.5386 203.663 75.5017C231.759 75.5357 258.693 86.7117 278.559 106.578C298.426 126.444 309.602 153.379 309.636 181.474V218.725C309.636 228.605 313.56 238.08 320.546 245.066C327.532 252.051 337.008 255.976 346.887 255.976C351.779 255.976 356.622 255.013 361.142 253.141C365.661 251.269 369.767 248.525 373.227 245.066C376.686 241.606 379.43 237.5 381.302 232.98C383.174 228.461 384.138 223.617 384.138 218.725" stroke="white" stroke-width="2" stroke-miterlimit="10"/>
<path d="M346.501 356.232C351.458 356.232 356.366 355.255 360.944 353.356C365.523 351.458 369.681 348.675 373.183 345.167C376.684 341.66 379.46 337.496 381.35 332.915C383.241 328.333 384.211 323.424 384.203 318.467C384.203 308.469 380.229 298.88 373.159 291.81C366.089 284.739 356.5 280.767 346.501 280.767C341.545 280.758 336.635 281.727 332.054 283.618C327.472 285.509 323.309 288.285 319.801 291.787C316.294 295.288 313.512 299.447 311.613 304.025C309.715 308.603 308.737 313.511 308.737 318.467C308.737 328.483 312.716 338.089 319.798 345.171C326.88 352.254 336.486 356.232 346.501 356.232" stroke="white" stroke-width="2" stroke-miterlimit="10"/>
</svg>
