<svg width="18" height="218" viewBox="0 0 18 218" fill="none" xmlns="http://www.w3.org/2000/svg">
<path fill-rule="evenodd" clip-rule="evenodd" d="M9 18C13.9706 18 18 13.9706 18 9C18 4.02943 13.9706 0 9 0C4.02943 0 0 4.02943 0 9C0 13.9706 4.02943 18 9 18ZM13.1705 7.5455C13.6098 7.10615 13.6098 6.39385 13.1705 5.9545C12.7312 5.51517 12.0188 5.51517 11.5795 5.9545L7.875 9.65901L6.4205 8.2045C5.98115 7.76517 5.26885 7.76517 4.8295 8.2045C4.39017 8.64385 4.39017 9.35615 4.8295 9.7955L7.0795 12.0455C7.51885 12.4848 8.23115 12.4848 8.6705 12.0455L13.1705 7.5455Z" fill="#01B9C1"/>
<path fill-rule="evenodd" clip-rule="evenodd" d="M9 68C13.9706 68 18 63.9706 18 59C18 54.0294 13.9706 50 9 50C4.02943 50 0 54.0294 0 59C0 63.9706 4.02943 68 9 68ZM13.1705 57.5455C13.6098 57.1062 13.6098 56.3938 13.1705 55.9545C12.7312 55.5152 12.0188 55.5152 11.5795 55.9545L7.875 59.659L6.4205 58.2045C5.98115 57.7652 5.26885 57.7652 4.8295 58.2045C4.39017 58.6438 4.39017 59.3562 4.8295 59.7955L7.0795 62.0455C7.51885 62.4848 8.23115 62.4848 8.6705 62.0455L13.1705 57.5455Z" fill="#01B9C1"/>
<path fill-rule="evenodd" clip-rule="evenodd" d="M9 118C13.9706 118 18 113.971 18 109C18 104.029 13.9706 100 9 100C4.02943 100 0 104.029 0 109C0 113.971 4.02943 118 9 118ZM13.1705 107.545C13.6098 107.106 13.6098 106.394 13.1705 105.955C12.7312 105.515 12.0188 105.515 11.5795 105.955L7.875 109.659L6.4205 108.205C5.98115 107.765 5.26885 107.765 4.8295 108.205C4.39017 108.644 4.39017 109.356 4.8295 109.795L7.0795 112.045C7.51885 112.485 8.23115 112.485 8.6705 112.045L13.1705 107.545Z" fill="#01B9C1"/>
<path fill-rule="evenodd" clip-rule="evenodd" d="M9 168C13.9706 168 18 163.971 18 159C18 154.029 13.9706 150 9 150C4.02943 150 0 154.029 0 159C0 163.971 4.02943 168 9 168ZM13.1705 157.545C13.6098 157.106 13.6098 156.394 13.1705 155.955C12.7312 155.515 12.0188 155.515 11.5795 155.955L7.875 159.659L6.4205 158.205C5.98115 157.765 5.26885 157.765 4.8295 158.205C4.39017 158.644 4.39017 159.356 4.8295 159.795L7.0795 162.045C7.51885 162.485 8.23115 162.485 8.6705 162.045L13.1705 157.545Z" fill="#01B9C1"/>
<path fill-rule="evenodd" clip-rule="evenodd" d="M9 218C13.9706 218 18 213.971 18 209C18 204.029 13.9706 200 9 200C4.02943 200 0 204.029 0 209C0 213.971 4.02943 218 9 218ZM13.1705 207.545C13.6098 207.106 13.6098 206.394 13.1705 205.955C12.7312 205.515 12.0188 205.515 11.5795 205.955L7.875 209.659L6.4205 208.205C5.98115 207.765 5.26885 207.765 4.8295 208.205C4.39017 208.644 4.39017 209.356 4.8295 209.795L7.0795 212.045C7.51885 212.485 8.23115 212.485 8.6705 212.045L13.1705 207.545Z" fill="#01B9C1"/>
</svg>
