<svg width="76" height="20" viewBox="0 0 76 20" fill="none" xmlns="http://www.w3.org/2000/svg">
<path d="M25.9424 14.4632V13.0048C25.9438 11.5282 25.4711 10.0884 24.591 8.88784C23.7108 7.68729 22.4674 6.78647 21.0357 6.31213C19.604 5.83778 18.0561 5.81378 16.6097 6.24349C15.1633 6.67321 13.8912 7.53502 12.9725 8.70768C12.0533 7.53553 10.781 6.67421 9.33465 6.24481C7.88828 5.81541 6.34048 5.83952 4.90887 6.31374C3.47725 6.78797 2.23379 7.68847 1.35328 8.88866C0.472776 10.0888 -0.000487953 11.5284 3.77527e-07 13.0048V18.3857C3.77527e-07 18.7725 0.157318 19.1435 0.43734 19.417C0.717362 19.6905 1.09715 19.8441 1.49316 19.8441C1.88917 19.8441 2.26896 19.6905 2.54898 19.417C2.829 19.1435 2.98632 18.7725 2.98632 18.3857V13.0048C2.97061 11.9045 3.40309 10.8432 4.1886 10.0543C4.97411 9.26535 6.04832 8.81354 7.1749 8.7982C8.30149 8.78286 9.38816 9.20526 10.1959 9.97247C11.0036 10.7397 11.4662 11.7888 11.4819 12.8892C11.4819 12.9269 11.4819 12.9646 11.4819 13.0048V18.3857C11.4819 18.7725 11.6392 19.1435 11.9192 19.417C12.1993 19.6905 12.579 19.8441 12.9751 19.8441C13.3711 19.8441 13.7509 19.6905 14.0309 19.417C14.3109 19.1435 14.4682 18.7725 14.4682 18.3857V13.0853C14.4682 13.0551 14.4682 13.0275 14.4682 12.9973C14.4682 12.9671 14.4682 12.9194 14.4682 12.8816C14.4839 11.7813 14.9465 10.7321 15.7542 9.96492C16.562 9.19771 17.6486 8.77532 18.7752 8.79066C19.9018 8.80599 20.976 9.25781 21.7615 10.0467C22.547 10.8356 22.9795 11.897 22.9638 12.9973V14.4557C22.9798 14.8317 23.144 15.187 23.422 15.4475C23.7 15.708 24.0704 15.8535 24.4557 15.8535C24.841 15.8535 25.2113 15.708 25.4894 15.4475C25.7674 15.187 25.9316 14.8317 25.9475 14.4557L25.9424 14.4632ZM42.8641 12.947V7.55355C42.8724 7.35711 42.84 7.16105 42.7688 6.97714C42.6976 6.79324 42.589 6.6253 42.4497 6.48342C42.3103 6.34154 42.143 6.22864 41.9579 6.15152C41.7727 6.07439 41.5735 6.03464 41.3722 6.03464C41.1709 6.03464 40.9716 6.07439 40.7865 6.15152C40.6013 6.22864 40.434 6.34154 40.2947 6.48342C40.1553 6.6253 40.0468 6.79324 39.9755 6.97714C39.9043 7.16105 39.8719 7.35711 39.8803 7.55355V12.9344C39.9002 13.4914 39.805 14.0466 39.6004 14.5669C39.3959 15.0872 39.0862 15.5619 38.6898 15.9628C38.2934 16.3637 37.8184 16.6825 37.2932 16.9003C36.7679 17.118 36.2031 17.2302 35.6325 17.2302C35.0619 17.2302 34.4971 17.118 33.9719 16.9003C33.4466 16.6825 32.9716 16.3637 32.5752 15.9628C32.1788 15.5619 31.8691 15.0872 31.6646 14.5669C31.46 14.0466 31.3649 13.4914 31.3847 12.9344V7.55355C31.3847 7.16677 31.2274 6.79583 30.9474 6.52233C30.6674 6.24883 30.2876 6.09518 29.8916 6.09518C29.4955 6.09518 29.1158 6.24883 28.8357 6.52233C28.5557 6.79583 28.3984 7.16677 28.3984 7.55355V12.9344C28.3984 14.8083 29.1606 16.6055 30.5172 17.9305C31.8739 19.2556 33.7139 20 35.6325 20C37.5511 20 39.3911 19.2556 40.7478 17.9305C42.1045 16.6055 42.8666 14.8083 42.8666 12.9344L42.8641 12.947ZM56.7968 12.9646C56.8024 13.7863 56.5581 14.5912 56.0947 15.2771C55.6314 15.963 54.97 16.499 54.1943 16.8173C53.4186 17.1355 52.5636 17.2217 51.7378 17.0647C50.9119 16.9078 50.1524 16.5148 49.5555 15.9357C48.9586 15.3566 48.5512 14.6174 48.385 13.8119C48.2188 13.0064 48.3013 12.1708 48.6219 11.411C48.9426 10.6513 49.487 10.0017 50.1862 9.54463C50.8853 9.08752 51.7077 8.84348 52.549 8.84346C53.6703 8.84475 54.7457 9.27848 55.5412 10.0503C56.3367 10.8221 56.788 11.8695 56.7968 12.9646ZM59.7831 12.9948V12.9143C59.7662 11.6193 59.3848 10.3537 58.6806 9.25627C57.9765 8.15881 56.9767 7.27176 55.7908 6.69224C54.6049 6.11271 53.2786 5.86307 51.9571 5.97064C50.6356 6.07821 49.37 6.53885 48.2986 7.30211V1.51891C48.307 1.32247 48.2746 1.12641 48.2034 0.942504C48.1322 0.758602 48.0237 0.590662 47.8843 0.448779C47.7449 0.306897 47.5776 0.194 47.3925 0.116878C47.2073 0.0397558 47.0081 0 46.8068 0C46.6055 0 46.4062 0.0397558 46.2211 0.116878C46.0359 0.194 45.8686 0.306897 45.7293 0.448779C45.5899 0.590662 45.4813 0.758602 45.4101 0.942504C45.3389 1.12641 45.3065 1.32247 45.3149 1.51891V13.0375C45.3506 14.888 46.1284 16.6509 47.4809 17.9473C48.8334 19.2436 50.6527 19.9698 52.5477 19.9698C54.4427 19.9698 56.262 19.2436 57.6145 17.9473C58.9671 16.6509 59.7448 14.888 59.7805 13.0375V13.0174L59.7831 12.9948ZM65.5344 15.0969C65.0842 14.3052 64.9004 13.3954 65.0091 12.4961C65.1178 11.5968 65.5134 10.7537 66.1398 10.0862C66.7663 9.41873 67.5919 8.96064 68.4997 8.77686C69.4076 8.59307 70.3516 8.69291 71.1981 9.06221C69.8233 10.5709 67.2515 13.3518 65.5344 15.0969ZM74.8486 15.303C74.7048 15.1977 74.5412 15.1211 74.367 15.0776C74.1929 15.0341 74.0117 15.0246 73.8338 15.0496C73.6559 15.0746 73.4848 15.1336 73.3303 15.2233C73.1757 15.3129 73.0408 15.4314 72.9332 15.5721C72.3563 16.3314 71.5393 16.8838 70.6085 17.1438C69.6777 17.4038 68.6851 17.3569 67.7844 17.0103C70.2533 14.4808 74.1844 10.1585 74.3724 9.94981C74.5765 9.72601 74.7043 9.44566 74.7379 9.1477C74.7788 8.92999 74.7638 8.70576 74.6942 8.49512C74.6245 8.28447 74.5024 8.094 74.3389 7.94078C73.2907 6.95738 71.9608 6.30888 70.5261 6.08149C69.0914 5.8541 67.6198 6.05859 66.307 6.66777C64.9942 7.27696 63.9023 8.26198 63.1765 9.49189C62.4506 10.7218 62.1253 12.1384 62.2436 13.5532C62.362 14.9681 62.9184 16.3143 63.839 17.4128C64.7596 18.5114 66.0008 19.3102 67.3974 19.7032C68.7941 20.0962 70.2801 20.0647 71.658 19.6129C73.0358 19.161 74.2403 18.3103 75.1112 17.1738C75.2191 17.0333 75.2975 16.8735 75.342 16.7034C75.3865 16.5334 75.3963 16.3564 75.3707 16.1826C75.3451 16.0089 75.2847 15.8417 75.1929 15.6908C75.1011 15.5399 74.9797 15.4081 74.8357 15.303" fill="#1D1D1B"/>
<path d="M24.6156 20C24.9199 20 25.2173 19.9098 25.4703 19.7407C25.7233 19.5717 25.9205 19.3314 26.037 19.0503C26.1534 18.7692 26.1839 18.4598 26.1245 18.1614C26.0651 17.863 25.9186 17.5888 25.7035 17.3737C25.4883 17.1585 25.2142 17.012 24.9158 16.9526C24.6173 16.8933 24.308 16.9237 24.0269 17.0402C23.7458 17.1566 23.5055 17.3538 23.3364 17.6068C23.1674 17.8598 23.0771 18.1573 23.0771 18.4615C23.0771 18.8696 23.2392 19.2609 23.5278 19.5494C23.8163 19.8379 24.2076 20 24.6156 20Z" fill="#01B9C1"/>
</svg>
