<svg width="136" height="38" viewBox="0 0 136 38" fill="none" xmlns="http://www.w3.org/2000/svg">
<path d="M46.7977 27.7142V25.0111C46.7992 22.2746 45.9459 19.6065 44.3578 17.382C42.7697 15.1575 40.5267 13.4886 37.9443 12.61C35.3619 11.7314 32.5699 11.6873 29.9612 12.4839C27.3525 13.2805 25.0583 14.8777 23.4012 17.0509C21.7432 14.8786 19.4486 13.2823 16.84 12.4863C14.2313 11.6903 11.4396 11.7346 8.85736 12.613C6.27507 13.4914 4.03195 15.1597 2.44324 17.3835C0.854525 19.6073 9.00719e-05 22.2748 0 25.0111V34.9893C0 35.7062 0.283787 36.3938 0.788921 36.9007C1.29406 37.4077 1.97915 37.6924 2.69352 37.6924C3.40789 37.6924 4.09299 37.4077 4.59813 36.9007C5.10326 36.3938 5.38705 35.7062 5.38705 34.9893V25.0111C5.35872 22.9716 6.13886 21.0044 7.55585 19.5422C8.97284 18.0799 10.9106 17.2425 12.9429 17.214C14.9751 17.1856 16.9354 17.9685 18.3924 19.3906C19.8495 20.8126 20.684 22.7573 20.7123 24.7967C20.7123 24.8713 20.7123 24.9412 20.7123 25.0111V34.9893C20.7123 35.7062 20.9961 36.3938 21.5012 36.9007C22.0064 37.4077 22.6915 37.6924 23.4058 37.6924C24.1202 37.6924 24.8053 37.4077 25.3105 36.9007C25.8156 36.3938 26.0994 35.7062 26.0994 34.9893V25.1742C26.0994 25.123 26.0994 25.0671 26.0994 25.0111C26.0994 24.9552 26.0994 24.8713 26.0994 24.7967C26.1277 22.7573 26.9622 20.8126 28.4192 19.3906C29.8763 17.9685 31.8365 17.1856 33.8688 17.214C35.9011 17.2425 37.8388 18.0799 39.2558 19.5422C40.6728 21.0044 41.453 22.9716 41.4246 25.0111V27.7142C41.4095 28.0783 41.468 28.4418 41.5964 28.7826C41.7249 29.1235 41.9207 29.4348 42.1721 29.6978C42.4235 29.9607 42.7252 30.17 43.0593 30.3129C43.3933 30.4559 43.7527 30.5296 44.1158 30.5296C44.479 30.5296 44.8383 30.4559 45.1724 30.3129C45.5064 30.17 45.8082 29.9607 46.0596 29.6978C46.311 29.4348 46.5067 29.1235 46.6352 28.7826C46.7636 28.4418 46.8221 28.0783 46.807 27.7142H46.7977ZM77.3229 24.9179V14.9257C77.294 14.2288 76.9978 13.5701 76.4963 13.0873C75.9948 12.6044 75.3266 12.3348 74.6316 12.3348C73.9366 12.3348 73.2685 12.6044 72.767 13.0873C72.2655 13.5701 71.9693 14.2288 71.9404 14.9257V24.9039C71.8713 26.8971 71.0337 28.7854 69.6042 30.1709C68.1748 31.5564 66.2651 32.3307 64.2778 32.3307C62.2905 32.3307 60.3809 31.5564 58.9514 30.1709C57.522 28.7854 56.6843 26.8971 56.6152 24.9039V14.9257C56.6152 14.2088 56.3314 13.5213 55.8263 13.0143C55.3211 12.5074 54.636 12.2226 53.9217 12.2226C53.2073 12.2226 52.5222 12.5074 52.0171 13.0143C51.5119 13.5213 51.2281 14.2088 51.2281 14.9257V24.9039C51.2281 26.6237 51.5657 28.3267 52.2215 29.9156C52.8773 31.5045 53.8385 32.9482 55.0503 34.1643C56.2621 35.3804 57.7006 36.345 59.2839 37.0032C60.8672 37.6613 62.5641 38 64.2778 38C65.9915 38 67.6884 37.6613 69.2717 37.0032C70.855 36.345 72.2935 35.3804 73.5053 34.1643C74.7171 32.9482 75.6783 31.5045 76.3341 29.9156C76.9899 28.3267 77.3275 26.6237 77.3275 24.9039L77.3229 24.9179ZM102.456 24.9599C102.466 26.4829 102.026 27.9747 101.19 29.246C100.354 30.5173 99.1608 31.5109 97.7616 32.1008C96.3623 32.6907 94.82 32.8503 93.3303 32.5594C91.8405 32.2685 90.4704 31.5402 89.3937 30.4668C88.3169 29.3935 87.582 28.0234 87.2822 26.5303C86.9824 25.0372 87.1311 23.4884 87.7095 22.0803C88.288 20.6722 89.2701 19.4681 90.5313 18.6209C91.7925 17.7736 93.2759 17.3213 94.7936 17.3212C96.8163 17.3236 98.7563 18.1276 100.191 19.5581C101.626 20.9886 102.44 22.93 102.456 24.9599V24.9599ZM107.843 25.0111V24.8667C107.817 22.4641 107.133 20.1151 105.865 18.077C104.597 16.0388 102.794 14.3902 100.655 13.3116C98.5155 12.2331 96.1216 11.7662 93.7354 11.9621C91.3491 12.158 89.0626 13.0092 87.1264 14.4224V3.70314C87.1414 3.33903 87.083 2.97561 86.9545 2.63475C86.8261 2.29389 86.6303 1.98261 86.3789 1.71963C86.1275 1.45664 85.8258 1.24741 85.4917 1.10446C85.1577 0.961512 84.7983 0.887817 84.4352 0.887817C84.072 0.887817 83.7126 0.961512 83.3786 1.10446C83.0446 1.24741 82.7428 1.45664 82.4914 1.71963C82.24 1.98261 82.0442 2.29389 81.9158 2.63475C81.7873 2.97561 81.7289 3.33903 81.7439 3.70314V25.0484C81.8084 28.4783 83.2114 31.7459 85.6512 34.1486C88.0911 36.5514 91.373 37.8975 94.7913 37.8975C98.2097 37.8975 101.492 36.5514 103.931 34.1486C106.371 31.7459 107.774 28.4783 107.839 25.0484V25.0111H107.843ZM118.218 28.87C117.406 27.4028 117.074 25.7163 117.271 24.0495C117.467 22.3827 118.18 20.82 119.31 19.5828C120.44 18.3456 121.93 17.4965 123.567 17.1559C125.205 16.8152 126.908 17.0002 128.435 17.6848C125.955 20.4811 121.316 25.6356 118.218 28.87ZM135.02 29.2522C134.761 29.057 134.466 28.915 134.151 28.8344C133.837 28.7538 133.51 28.7361 133.189 28.7825C132.869 28.8288 132.56 28.9382 132.281 29.1043C132.002 29.2705 131.759 29.4902 131.565 29.7509C130.524 31.1583 129.05 32.1822 127.371 32.6641C125.692 33.1461 123.902 33.0591 122.277 32.4167C126.731 27.7236 133.822 19.7168 134.161 19.3299C134.53 18.9139 134.761 18.3925 134.82 17.8386C134.894 17.4357 134.867 17.0208 134.741 16.6311C134.616 16.2414 134.396 15.8892 134.101 15.6062C132.576 14.1386 130.716 13.0688 128.684 12.4905C126.651 11.9121 124.508 11.843 122.443 12.289C120.378 12.7351 118.453 13.6827 116.838 15.0489C115.223 16.4151 113.966 18.1581 113.178 20.1251C112.39 22.0921 112.094 24.223 112.318 26.3312C112.542 28.4393 113.277 30.4602 114.46 32.2168C115.643 33.9734 117.237 35.4119 119.102 36.4064C120.968 37.4009 123.048 37.9209 125.161 37.9208C127.168 37.9136 129.146 37.4403 130.94 36.538C132.734 35.6356 134.296 34.3288 135.503 32.7196C135.698 32.4593 135.839 32.1631 135.919 31.8479C136 31.5326 136.017 31.2046 135.971 30.8825C135.925 30.5604 135.816 30.2507 135.65 29.9709C135.485 29.6912 135.266 29.4469 135.006 29.2522" fill="#1D1D1B"/>
<path d="M44.0717 37.6924C44.6122 37.6934 45.1408 37.5333 45.5906 37.2326C46.0403 36.9318 46.3911 36.5038 46.5983 36.0029C46.8056 35.502 46.8601 34.9506 46.7548 34.4186C46.6496 33.8866 46.3894 33.3978 46.0073 33.0143C45.6251 32.6308 45.1381 32.3697 44.608 32.2641C44.0779 32.1585 43.5284 32.2132 43.0293 32.4212C42.5301 32.6291 42.1037 32.9811 41.804 33.4325C41.5043 33.8839 41.3448 34.4143 41.3457 34.9567C41.3457 35.6823 41.6329 36.3781 42.1442 36.8912C42.6554 37.4042 43.3488 37.6924 44.0717 37.6924" fill="#01B9C1"/>
</svg>
