<svg width="366" height="362" viewBox="0 0 366 362" fill="none" xmlns="http://www.w3.org/2000/svg">
<path d="M159.537 307.528H346.039C351.169 307.528 355.328 303.386 355.328 298.278L355.316 39.4363C355.182 32.5048 351.83 28.5288 346.039 28.5288L159.537 29.324C154.926 29.324 150.996 32.669 150.259 37.2227L150.25 298.278C150.25 303.388 154.407 307.528 159.539 307.528H159.537Z" fill="#1A5D71"/>
<path d="M152.48 307.989H339.008C344.139 307.989 348.299 303.849 348.297 298.741L348.285 40.002C348.15 33.0726 344.798 29.1321 339.006 29.1321H152.476C150.362 29.1321 148.391 29.8363 146.806 31.0371C144.471 32.8055 143.196 35.6283 143.196 38.5382L143.19 298.743C143.19 303.851 147.35 307.991 152.48 307.991V307.989Z" fill="white"/>
<path d="M339.008 308.428H152.48C149.882 308.428 147.438 307.421 145.601 305.591C143.763 303.762 142.751 301.328 142.751 298.741L142.757 38.5362C142.757 35.4147 144.172 32.4792 146.541 30.685C148.263 29.3814 150.315 28.691 152.476 28.691H339.006C345.044 28.691 348.586 32.8095 348.725 39.9921L348.737 298.739C348.737 301.326 347.725 303.76 345.887 305.589C344.05 307.419 341.606 308.426 339.008 308.426V308.428ZM152.476 29.5713C150.509 29.5713 148.641 30.1984 147.071 31.3872C144.92 33.0172 143.636 35.6897 143.636 38.5382L143.63 298.743C143.63 301.095 144.55 303.307 146.221 304.97C147.893 306.634 150.115 307.55 152.48 307.55H339.008C341.373 307.55 343.595 306.634 345.268 304.97C346.94 303.307 347.858 301.095 347.858 298.743L347.846 40.004C347.715 33.2803 344.577 29.5733 339.006 29.5733H152.476V29.5713Z" fill="#1A5D71"/>
<path d="M291.472 22.7348H204.714C202.472 22.7348 200.655 24.5512 200.655 26.7919V47.054C200.655 49.2948 202.472 51.1112 204.714 51.1112H291.472C293.714 51.1112 295.531 49.2948 295.531 47.054V26.7919C295.531 24.5512 293.714 22.7348 291.472 22.7348Z" fill="white"/>
<path d="M291.472 51.5524H204.716C202.234 51.5524 200.216 49.5347 200.216 47.0541V26.792C200.216 24.3114 202.234 22.2937 204.716 22.2937H291.472C293.954 22.2937 295.972 24.3114 295.972 26.792V47.0541C295.972 49.5347 293.954 51.5524 291.472 51.5524ZM204.716 23.1739C202.719 23.1739 201.096 24.798 201.096 26.792V47.0541C201.096 49.05 202.721 50.6721 204.716 50.6721H291.472C293.469 50.6721 295.092 49.048 295.092 47.0541V26.792C295.092 24.796 293.467 23.1739 291.472 23.1739H204.716V23.1739Z" fill="#1A5D71"/>
<path d="M247.756 0.439148C238.785 0.439148 231.548 7.75234 231.548 16.7727V41.2542C231.548 43.4538 233.321 45.2381 235.51 45.2381H260.001C262.19 45.2381 263.963 43.4538 263.963 41.2542V16.7727C263.963 7.75234 256.726 0.439148 247.756 0.439148V0.439148ZM248.662 22.8119C244.346 23.3599 240.715 19.7082 241.259 15.3682C241.629 12.4109 244.006 10.0232 246.946 9.64938C251.262 9.10341 254.892 12.7531 254.35 17.0931C253.98 20.0504 251.605 22.4381 248.662 22.8119Z" fill="white"/>
<path d="M260.001 45.6793H235.51C233.082 45.6793 231.107 43.6952 231.107 41.2561V16.7727C231.107 7.52287 238.575 0 247.756 0C256.936 0 264.404 7.52485 264.404 16.7727V41.2542C264.404 43.6932 262.429 45.6773 260.003 45.6773L260.001 45.6793ZM247.756 0.878295C239.06 0.878295 231.988 8.0095 231.988 16.7727V41.2542C231.988 43.2086 233.569 44.799 235.51 44.799H260.001C261.945 44.799 263.524 43.2086 263.524 41.2542V16.7727C263.524 8.00752 256.449 0.878295 247.756 0.878295V0.878295ZM247.807 23.3045C245.947 23.3045 244.178 22.5805 242.844 21.2492C241.281 19.6904 240.544 17.5263 240.824 15.3108C241.217 12.1715 243.768 9.60784 246.891 9.21221C249.074 8.93527 251.215 9.66322 252.762 11.2082C254.324 12.7669 255.062 14.931 254.785 17.1465C254.391 20.2858 251.84 22.8495 248.717 23.2471C248.413 23.2867 248.11 23.3045 247.807 23.3045V23.3045ZM247.799 10.0351C247.536 10.0351 247.269 10.0509 247.002 10.0865C244.271 10.4327 242.041 12.6759 241.696 15.4236C241.453 17.3661 242.098 19.2651 243.465 20.63C244.821 21.9831 246.695 22.6201 248.607 22.3767C251.338 22.0306 253.568 19.7854 253.912 17.0397C254.156 15.0972 253.51 13.1982 252.141 11.8332C250.975 10.6701 249.426 10.0351 247.797 10.0351H247.799Z" fill="#1A5D71"/>
<path d="M325.596 99.1148C325.596 99.8942 324.729 101.71 323.344 101.71H313.041C311.656 101.71 310.271 100.759 308.324 100.759H251.293C250.06 100.759 247.115 99.9793 245.817 99.1148C244.519 98.2484 244.388 98.0328 244.388 97.471V94.0528C244.388 93.5345 245.946 92.9707 245.946 92.0627V87.0442C245.946 85.7465 257.633 77.4383 261.356 76.5304C265.078 75.6224 281.398 75.5354 285.77 75.9251C290.141 76.3148 299.535 80.9436 305.466 85.3153C311.83 85.3153 318.667 86.9136 321.656 88.7098C324.642 90.5079 325.596 93.58 325.596 94.8776V99.1188V99.1148Z" fill="white"/>
<path d="M265.897 101.198H251.292C251.015 101.198 250.659 101.162 250.233 101.091C250.049 101.061 249.903 100.917 249.871 100.733C249.79 100.258 249.749 99.7794 249.749 99.3086C249.749 94.6996 253.499 90.951 258.11 90.951C262.72 90.951 266.471 94.6996 266.471 99.3086C266.471 99.815 266.423 100.329 266.328 100.838C266.288 101.045 266.108 101.198 265.897 101.198V101.198ZM250.691 100.272C250.928 100.304 251.134 100.319 251.292 100.319H265.523C265.568 99.9812 265.592 99.6429 265.592 99.3086C265.592 95.1842 262.236 91.8293 258.11 91.8293C253.983 91.8293 250.627 95.1842 250.627 99.3086C250.627 99.6271 250.649 99.9496 250.691 100.272Z" fill="#1A5D71"/>
<path d="M316.824 102.149H313.041C312.338 102.149 311.665 101.938 310.953 101.714C310.145 101.461 309.31 101.198 308.321 101.198H301.486C301.274 101.198 301.092 101.047 301.054 100.838C300.959 100.329 300.912 99.815 300.912 99.3086C300.912 94.6996 304.662 90.951 309.273 90.951C313.884 90.951 317.634 94.6996 317.634 99.3086C317.634 100.171 317.501 101.024 317.242 101.843C317.184 102.025 317.014 102.149 316.822 102.149H316.824ZM301.862 100.319H308.321C309.445 100.319 310.385 100.614 311.216 100.875C311.891 101.087 312.473 101.271 313.039 101.271H316.494C316.668 100.632 316.755 99.9733 316.755 99.3086C316.755 95.1842 313.399 91.8293 309.273 91.8293C305.147 91.8293 301.79 95.1842 301.79 99.3086C301.79 99.6429 301.814 99.9812 301.86 100.319H301.862Z" fill="#1A5D71"/>
<path d="M320.725 90.4248C321.166 90.5455 321.55 90.8145 321.817 91.1845C322.023 91.4693 322.237 91.7997 322.31 92.0173C322.463 92.4722 322.31 92.9905 321.683 92.9905H318.004C317.42 92.9905 316.338 92.1043 315.732 91.3902C315.127 90.6761 314.216 89.507 314.478 89.3566C314.721 89.2162 317.662 89.5841 320.727 90.4248H320.725Z" fill="#1A5D71"/>
<path d="M321.436 97.8804C321.651 97.4511 322.178 97.101 322.607 97.101H325.593V99.1128C325.593 99.3284 325.526 99.6212 325.401 99.9357H321.178C320.747 99.9357 320.575 99.5875 320.792 99.1563L321.436 97.8804V97.8804Z" fill="#1A5D71"/>
<path d="M298.826 84.9889C299.204 85.2837 299.628 86.0927 298.826 86.1362C298.025 86.1798 282.443 85.5744 281.707 85.5626C280.971 85.5507 280.755 85.1195 280.624 84.621C280.494 84.1225 279.585 79.5807 279.542 79.191C279.498 78.8013 279.498 78.4333 280.169 78.4333C280.84 78.4333 286.013 78.6272 288.912 79.5589C291.813 80.4886 295.664 82.5222 298.824 84.9889H298.826Z" fill="#1A5D71"/>
<path d="M277.616 79.2325C277.616 79.2325 277.81 84.3816 277.81 84.6407C277.81 84.8998 277.679 85.3331 277.183 85.3331C276.686 85.3331 260.928 84.9651 260.279 84.9434C259.63 84.9216 259.327 84.706 259.434 84.251C259.542 83.796 263.069 79.5134 265.97 78.7557C268.871 77.9981 276.425 78.4313 276.791 78.4313C277.157 78.4313 277.588 78.5856 277.614 79.2325H277.616Z" fill="#1A5D71"/>
<path d="M257.51 78.3858C258.424 78.6489 259.542 80.2828 258.581 80.8288C257.864 81.2363 255.573 83.165 254.662 84.0097C253.754 84.8543 253.146 85.1135 252.497 85.1135H248.019C250.218 83.3272 254.637 80.083 257.508 78.3858H257.51Z" fill="#1A5D71"/>
<path d="M245.947 92.0627V87.4319H249.648C250.188 87.4319 250.471 87.6376 250.188 88.411C249.907 89.1845 248.522 91.2615 248.132 91.5642C247.742 91.8669 247.396 92.1062 246.899 92.1062H245.941C245.941 92.0924 245.945 92.0785 245.945 92.0627H245.947Z" fill="#1A5D71"/>
<path d="M313.041 102.149C312.34 102.149 311.663 101.936 310.955 101.714C310.147 101.461 309.312 101.198 308.323 101.198H251.292C249.921 101.198 246.901 100.365 245.573 99.4788C244.275 98.6143 243.948 98.286 243.948 97.469V94.0508C243.948 93.6156 244.328 93.3109 244.732 92.9885C245.078 92.7116 245.508 92.3674 245.508 92.0607V87.0402C245.508 85.2164 257.963 76.9022 261.252 76.0991C264.992 75.1872 281.37 75.0883 285.809 75.4819C289.44 75.8044 295.943 78.8408 300.777 81.7052C303.932 83.5745 307.405 84.7654 311.097 85.2441C315.546 85.8197 319.678 87.0007 321.881 88.326C324.906 90.1459 326.032 93.305 326.032 94.8697V99.1108C326.032 99.821 325.526 100.988 324.71 101.639C324.168 102.072 323.549 102.23 322.924 102.104L313.589 102.1C313.405 102.131 313.223 102.145 313.041 102.145V102.149ZM244.827 94.0864V97.469C244.827 97.8112 244.827 97.9259 246.06 98.7469C247.229 99.5263 250.089 100.318 251.292 100.318H308.323C309.447 100.318 310.387 100.612 311.218 100.873C312.049 101.134 312.77 101.36 313.468 101.229C313.494 101.225 313.522 101.222 313.549 101.222L322.971 101.225C323.005 101.225 323.036 101.229 323.068 101.237C323.45 101.324 323.818 101.229 324.162 100.954C324.778 100.466 325.154 99.552 325.154 99.1128V94.8717C325.154 93.7145 324.243 90.775 321.427 89.0817C319.322 87.8157 315.32 86.6802 310.983 86.1184C307.171 85.6239 303.585 84.3954 300.328 82.4628C294.621 79.0802 288.755 76.6273 285.729 76.3583C281.33 75.9666 265.137 76.0556 261.46 76.9537C257.797 77.8478 246.743 85.8118 246.38 87.0778L246.384 92.0607C246.384 92.7887 245.771 93.2793 245.28 93.6749C245.122 93.8015 244.884 93.9914 244.827 94.0864V94.0864Z" fill="#1A5D71"/>
<path d="M310.369 106.021C314.086 105.418 316.609 101.918 316.006 98.2026C315.403 94.4875 311.901 91.9648 308.184 92.5678C304.468 93.1708 301.944 96.6713 302.547 100.386C303.151 104.101 306.653 106.624 310.369 106.021Z" fill="#1A5D71"/>
<path d="M313.731 101.155C314.75 98.6938 313.581 95.8727 311.12 94.8534C308.658 93.8341 305.836 95.0027 304.816 97.4634C303.796 99.9242 304.965 102.745 307.427 103.765C309.889 104.784 312.711 103.615 313.731 101.155Z" fill="white"/>
<path d="M259.675 105.953C263.339 105.088 265.609 101.418 264.744 97.755C263.879 94.0919 260.207 91.8233 256.543 92.6879C252.878 93.5524 250.609 97.2228 251.474 100.886C252.339 104.549 256.01 106.817 259.675 105.953Z" fill="#1A5D71"/>
<path d="M262.568 101.156C263.587 98.6956 262.418 95.8745 259.957 94.8552C257.495 93.8359 254.673 95.0045 253.653 97.4652C252.633 99.926 253.802 102.747 256.264 103.766C258.726 104.786 261.548 103.617 262.568 101.156Z" fill="white"/>
<path d="M326.407 116.253H243.577C240.624 116.253 238.224 113.852 238.224 110.903V70.9243C238.224 67.9729 240.626 65.5734 243.577 65.5734H326.407C329.359 65.5734 331.76 67.9729 331.76 70.9243V110.903C331.76 113.854 329.357 116.253 326.407 116.253ZM243.577 66.4517C241.109 66.4517 239.102 68.4575 239.102 70.9243V110.903C239.102 113.369 241.109 115.375 243.577 115.375H326.407C328.875 115.375 330.881 113.369 330.881 110.903V70.9243C330.881 68.4575 328.875 66.4517 326.407 66.4517H243.577Z" fill="#1A5D71"/>
<path d="M212.919 135.962H182.835C180.805 135.962 179.152 134.31 179.152 132.28C179.152 130.251 180.805 128.599 182.835 128.599H211.722C211.965 128.599 212.161 128.795 212.161 129.038C212.161 129.281 211.965 129.477 211.722 129.477H182.835C181.29 129.477 180.031 130.735 180.031 132.28C180.031 133.825 181.29 135.083 182.835 135.083H212.919C213.162 135.083 213.358 135.279 213.358 135.523C213.358 135.766 213.162 135.962 212.919 135.962Z" fill="#1A5D71"/>
<path d="M294.849 135.962H244.704C244.461 135.962 244.265 135.766 244.265 135.523C244.265 135.279 244.461 135.083 244.704 135.083H294.849C296.394 135.083 297.653 133.825 297.653 132.28C297.653 130.735 296.394 129.477 294.849 129.477H245.078C244.835 129.477 244.639 129.281 244.639 129.038C244.639 128.795 244.835 128.599 245.078 128.599H294.849C296.879 128.599 298.531 130.251 298.531 132.28C298.531 134.31 296.879 135.962 294.849 135.962V135.962Z" fill="#1A5D71"/>
<path d="M294.849 151.221H271.43C269.4 151.221 267.748 149.569 267.748 147.54C267.748 145.51 269.4 143.858 271.43 143.858H294.849C296.879 143.858 298.532 145.51 298.532 147.54C298.532 149.569 296.879 151.221 294.849 151.221ZM271.43 144.739C269.885 144.739 268.626 145.997 268.626 147.542C268.626 149.087 269.885 150.345 271.43 150.345H294.849C296.395 150.345 297.653 149.087 297.653 147.542C297.653 145.997 296.395 144.739 294.849 144.739H271.43Z" fill="#1A5D71"/>
<path d="M294.849 167.675H182.838C180.807 167.675 179.155 166.023 179.155 163.994C179.155 161.964 180.807 160.313 182.838 160.313H294.851C296.881 160.313 298.534 161.964 298.534 163.994C298.534 166.023 296.881 167.675 294.851 167.675H294.849ZM182.836 161.193C181.29 161.193 180.031 162.451 180.031 163.996C180.031 165.541 181.29 166.799 182.836 166.799H294.849C296.395 166.799 297.653 165.541 297.653 163.996C297.653 162.451 296.395 161.193 294.849 161.193H182.838H182.836Z" fill="#1A5D71"/>
<path d="M294.849 182.935H283.169C281.139 182.935 279.486 181.283 279.486 179.253C279.486 177.224 281.139 175.572 283.169 175.572H294.849C296.879 175.572 298.532 177.224 298.532 179.253C298.532 181.283 296.879 182.935 294.849 182.935ZM283.169 176.452C281.624 176.452 280.365 177.71 280.365 179.255C280.365 180.8 281.624 182.058 283.169 182.058H294.849C296.394 182.058 297.653 180.8 297.653 179.255C297.653 177.71 296.394 176.452 294.849 176.452H283.169Z" fill="#1A5D71"/>
<path d="M294.849 198.566H274.486C272.455 198.566 270.803 196.914 270.803 194.885C270.803 192.855 272.455 191.203 274.486 191.203H294.849C296.879 191.203 298.532 192.855 298.532 194.885C298.532 196.914 296.879 198.566 294.849 198.566ZM274.486 192.084C272.94 192.084 271.681 193.342 271.681 194.887C271.681 196.431 272.94 197.69 274.486 197.69H294.849C296.394 197.69 297.653 196.431 297.653 194.887C297.653 193.342 296.394 192.084 294.849 192.084H274.486Z" fill="#1A5D71"/>
<path d="M225.113 72.3209H183.995C181.964 72.3209 180.312 70.6691 180.312 68.6395C180.312 66.61 181.964 64.9582 183.995 64.9582H225.113C227.143 64.9582 228.796 66.61 228.796 68.6395C228.796 70.6691 227.143 72.3209 225.113 72.3209ZM183.995 65.8385C182.449 65.8385 181.191 67.0966 181.191 68.6415C181.191 70.1864 182.449 71.4446 183.995 71.4446H225.113C226.659 71.4446 227.917 70.1864 227.917 68.6415C227.917 67.0966 226.659 65.8385 225.113 65.8385H183.995Z" fill="#1A5D71"/>
<path d="M225.113 86.0591H183.995C181.964 86.0591 180.312 84.4073 180.312 82.3778C180.312 80.3482 181.964 78.6964 183.995 78.6964H225.113C227.143 78.6964 228.796 80.3482 228.796 82.3778C228.796 84.4073 227.143 86.0591 225.113 86.0591ZM183.995 79.5767C182.449 79.5767 181.191 80.8348 181.191 82.3797C181.191 83.9247 182.449 85.1828 183.995 85.1828H225.113C226.659 85.1828 227.917 83.9247 227.917 82.3797C227.917 80.8348 226.659 79.5767 225.113 79.5767H183.995Z" fill="#1A5D71"/>
<path d="M206.537 99.7953H183.995C181.964 99.7953 180.312 98.1435 180.312 96.114C180.312 94.0844 181.964 92.4326 183.995 92.4326H206.537C208.567 92.4326 210.22 94.0844 210.22 96.114C210.22 98.1435 208.567 99.7953 206.537 99.7953ZM183.995 93.3129C182.449 93.3129 181.191 94.571 181.191 96.116C181.191 97.6609 182.449 98.919 183.995 98.919H206.537C208.082 98.919 209.341 97.6609 209.341 96.116C209.341 94.571 208.082 93.3129 206.537 93.3129H183.995Z" fill="#1A5D71"/>
<path d="M327.105 150.687H314.318C311.751 150.687 309.663 148.6 309.663 146.034V133.252C309.663 130.686 311.751 128.599 314.318 128.599H327.105C329.672 128.599 331.76 130.686 331.76 133.252V146.034C331.76 148.6 329.672 150.687 327.105 150.687V150.687ZM314.318 129.477C312.236 129.477 310.542 131.171 310.542 133.25V146.032C310.542 148.113 312.236 149.807 314.318 149.807H327.105C329.187 149.807 330.881 148.113 330.881 146.032V133.25C330.881 131.169 329.187 129.477 327.105 129.477H314.318Z" fill="#1A5D71"/>
<path d="M318.962 144.422C318.897 144.422 318.833 144.416 318.768 144.404C318.392 144.333 318.083 144.064 317.965 143.7L315.972 138.504C315.885 138.276 315.997 138.023 316.225 137.936C316.453 137.849 316.706 137.962 316.793 138.189L318.794 143.407C318.829 143.512 318.895 143.536 318.932 143.544C318.966 143.55 319.029 143.552 319.083 143.498L324.59 134.709C324.719 134.504 324.992 134.442 325.196 134.571C325.401 134.7 325.463 134.971 325.334 135.176L319.807 143.997C319.797 144.013 319.785 144.029 319.773 144.042C319.571 144.288 319.273 144.426 318.962 144.426V144.422Z" fill="#1A5D71"/>
<path d="M327.105 182.179H314.318C311.751 182.179 309.663 180.092 309.663 177.526V164.744C309.663 162.178 311.751 160.091 314.318 160.091H327.105C329.672 160.091 331.76 162.178 331.76 164.744V177.526C331.76 180.092 329.672 182.179 327.105 182.179V182.179ZM314.318 160.969C312.236 160.969 310.542 162.663 310.542 164.744V177.526C310.542 179.607 312.236 181.301 314.318 181.301H327.105C329.187 181.301 330.881 179.607 330.881 177.526V164.744C330.881 162.663 329.187 160.969 327.105 160.969H314.318Z" fill="#1A5D71"/>
<path d="M318.895 176.256C318.828 176.256 318.76 176.25 318.693 176.237C318.301 176.163 317.983 175.883 317.858 175.505L315.731 169.962C315.643 169.734 315.756 169.481 315.984 169.394C316.211 169.307 316.465 169.42 316.552 169.647L318.685 175.212C318.727 175.341 318.818 175.368 318.855 175.374C318.889 175.38 318.974 175.386 319.043 175.317L324.919 165.94C325.047 165.735 325.32 165.673 325.524 165.802C325.73 165.931 325.791 166.202 325.663 166.407L319.77 175.813C319.76 175.829 319.748 175.845 319.736 175.859C319.526 176.114 319.215 176.256 318.893 176.256H318.895Z" fill="#1A5D71"/>
<path d="M327.105 213.669H314.318C311.751 213.669 309.663 211.582 309.663 209.016V196.234C309.663 193.668 311.751 191.581 314.318 191.581H327.105C329.672 191.581 331.76 193.668 331.76 196.234V209.016C331.76 211.582 329.672 213.669 327.105 213.669V213.669ZM314.318 192.459C312.236 192.459 310.542 194.153 310.542 196.234V209.016C310.542 211.097 312.236 212.791 314.318 212.791H327.105C329.187 212.791 330.881 211.097 330.881 209.016V196.234C330.881 194.153 329.187 192.459 327.105 192.459H314.318Z" fill="#1A5D71"/>
<path d="M318.881 207.824C318.814 207.824 318.745 207.818 318.677 207.804C318.284 207.729 317.961 207.448 317.836 207.066L315.679 201.444C315.592 201.219 315.705 200.963 315.933 200.876C316.16 200.789 316.413 200.902 316.501 201.13L318.664 206.771C318.707 206.904 318.802 206.933 318.84 206.939C318.877 206.947 318.964 206.953 319.038 206.878L324.996 197.371C325.125 197.165 325.398 197.104 325.602 197.233C325.807 197.361 325.869 197.632 325.74 197.838L319.764 207.375C319.754 207.39 319.742 207.406 319.73 207.42C319.518 207.677 319.206 207.822 318.881 207.822V207.824Z" fill="#1A5D71"/>
<path d="M149.3 92.4841L151.016 99.8606C151.134 100.371 151.457 100.81 151.91 101.075L155.248 103.035C155.7 103.301 156.024 103.74 156.143 104.25L157.026 108.042C157.148 108.574 157.039 109.132 156.725 109.579L154.627 112.548C154.312 112.993 154.204 113.553 154.326 114.085L154.926 116.661C155.165 117.69 156.192 118.329 157.221 118.089C158.251 117.85 159.278 118.491 159.517 119.517L160.057 121.844C160.297 122.872 159.656 123.899 158.628 124.138C157.599 124.378 156.96 125.404 157.2 126.433L157.77 128.884C157.896 129.428 158.254 129.889 158.749 130.146L161.858 131.764C162.353 132.021 162.711 132.482 162.838 133.026L163.776 137.056C163.896 137.578 163.794 138.128 163.489 138.571L161.377 141.645C161.072 142.088 160.97 142.638 161.09 143.16L161.904 146.657C162.062 147.334 162.573 147.872 163.241 148.062L169.491 149.846C170.128 150.028 170.815 149.868 171.306 149.421L176.065 145.083C176.575 144.616 176.795 143.912 176.639 143.237L164.033 89.054L149.302 92.4781L149.3 92.4841Z" fill="white"/>
<path d="M170.023 150.365C169.805 150.365 169.588 150.335 169.372 150.274L163.122 148.489C162.301 148.256 161.672 147.593 161.478 146.762L160.665 143.265C160.514 142.624 160.643 141.944 161.017 141.402L163.128 138.328C163.362 137.987 163.441 137.562 163.348 137.16L162.41 133.129C162.313 132.71 162.038 132.356 161.656 132.158L158.547 130.54C157.938 130.223 157.498 129.657 157.342 128.987L156.772 126.534C156.629 125.923 156.734 125.292 157.067 124.759C157.399 124.225 157.918 123.853 158.531 123.713C159.323 123.529 159.816 122.736 159.632 121.945L159.091 119.618C159.002 119.235 158.769 118.91 158.434 118.702C158.1 118.495 157.706 118.429 157.322 118.518C156.711 118.661 156.079 118.556 155.547 118.224C155.013 117.891 154.641 117.373 154.5 116.76L153.901 114.184C153.748 113.532 153.883 112.843 154.271 112.295L156.368 109.326C156.61 108.984 156.695 108.553 156.6 108.143L155.717 104.351C155.626 103.959 155.375 103.619 155.029 103.415L151.69 101.455C151.136 101.131 150.736 100.585 150.59 99.9615L148.874 92.585C148.819 92.3496 148.965 92.1122 149.203 92.0588C149.438 92.0014 149.675 92.1498 149.729 92.3872L151.445 99.7637C151.536 100.155 151.787 100.496 152.133 100.699L155.472 102.66C156.026 102.984 156.426 103.53 156.572 104.153L157.455 107.945C157.607 108.598 157.472 109.286 157.085 109.834L154.987 112.804C154.746 113.146 154.66 113.577 154.755 113.987L155.355 116.562C155.444 116.946 155.678 117.27 156.012 117.478C156.346 117.686 156.74 117.751 157.124 117.662C157.738 117.519 158.367 117.624 158.899 117.957C159.434 118.289 159.806 118.807 159.946 119.42L160.486 121.747C160.781 123.009 159.992 124.275 158.729 124.57C158.345 124.659 158.021 124.892 157.813 125.226C157.605 125.561 157.54 125.954 157.629 126.338L158.199 128.791C158.296 129.21 158.571 129.564 158.953 129.762L162.062 131.38C162.671 131.697 163.11 132.263 163.267 132.933L164.205 136.965C164.353 137.606 164.227 138.286 163.853 138.828L161.741 141.902C161.508 142.242 161.426 142.668 161.521 143.069L162.335 146.567C162.455 147.087 162.851 147.502 163.366 147.649L169.615 149.433C170.11 149.575 170.632 149.453 171.012 149.104L175.77 144.766C176.164 144.408 176.332 143.864 176.213 143.344L163.607 89.1608C163.552 88.9254 163.698 88.6881 163.936 88.6346C164.171 88.5773 164.409 88.7256 164.462 88.963L177.068 143.146C177.26 143.973 176.991 144.844 176.361 145.415L171.604 149.753C171.163 150.155 170.603 150.369 170.025 150.369L170.023 150.365Z" fill="#1A5D71"/>
<path d="M158.524 96.6342L168.902 141.237C169.107 142.126 169.996 142.677 170.884 142.472C171.773 142.266 172.325 141.378 172.119 140.49L161.742 95.8865C161.536 94.9983 160.647 94.4464 159.759 94.6521C158.87 94.8578 158.318 95.746 158.524 96.6342Z" fill="#1A5D71"/>
<path d="M152.916 53.855L143.735 55.9894C135.26 57.9596 129.75 66.2717 131.721 74.7461L135.046 89.0362C135.83 92.403 139.427 94.6383 142.795 93.855L170.473 87.4201C173.841 86.6367 175.792 83.1117 175.008 79.7449L171.684 65.4548C169.713 56.9804 161.391 51.8847 152.916 53.855V53.855ZM158.33 65.5893C158.536 66.4775 158.152 67.4468 157.263 67.6525L145.926 70.2874C145.038 70.4931 143.973 69.8621 143.767 68.9739L143.5 67.8226C142.979 65.5893 144.555 63.4707 146.791 62.9504L153.252 61.449C155.486 60.9288 157.544 62.2047 158.065 64.438L158.332 65.5893H158.33Z" fill="white"/>
<path d="M141.433 94.4464C140.153 94.4464 138.853 94.0784 137.719 93.3722C136.148 92.395 135.018 90.8501 134.618 89.1331L131.293 74.843C129.295 66.2559 134.832 57.6055 143.636 55.5601L152.816 53.4256C157.033 52.4445 161.351 53.1329 164.971 55.3622C168.598 57.5975 171.135 61.1463 172.113 65.3538L175.437 79.6439C176.298 83.3431 174.116 87.0224 170.573 87.8473L142.896 94.2822C142.419 94.393 141.928 94.4484 141.433 94.4484V94.4464ZM153.014 54.2822L143.834 56.4166C139.821 57.3503 136.393 59.7478 134.179 63.168C131.948 66.6119 131.228 70.6889 132.148 74.6471L135.473 88.9372C135.819 90.4288 136.809 91.7759 138.182 92.6304C139.557 93.485 141.202 93.7758 142.694 93.4296L170.371 86.9947C173.443 86.2806 175.331 83.074 174.579 79.8457L171.254 65.5556C170.328 61.5776 167.931 58.2246 164.506 56.1139C161.086 54.0052 157.004 53.3564 153.012 54.2842L153.014 54.2822ZM145.575 70.766C145.166 70.766 144.74 70.6454 144.362 70.4179C143.836 70.0994 143.462 69.6108 143.337 69.0747L143.07 67.9234C142.795 66.7385 143.034 65.52 143.749 64.4933C144.437 63.5043 145.482 62.804 146.688 62.5231L153.149 61.0217C155.62 60.4441 157.914 61.8723 158.488 64.3391L158.755 65.4903C158.882 66.0343 158.826 66.5941 158.601 67.0669C158.349 67.5931 157.908 67.9551 157.36 68.0817L146.023 70.7166C145.876 70.7502 145.728 70.768 145.573 70.768L145.575 70.766ZM154.251 61.7694C153.958 61.7694 153.655 61.8051 153.347 61.8763L146.885 63.3777C145.906 63.6052 145.025 64.1946 144.469 64.9938C143.899 65.8128 143.705 66.7821 143.925 67.7217L144.192 68.873C144.263 69.1796 144.491 69.4684 144.815 69.6642C145.142 69.862 145.51 69.9332 145.825 69.8581L157.162 67.2232C157.524 67.1381 157.714 66.8829 157.809 66.6851C157.948 66.3963 157.981 66.0323 157.9 65.6862L157.633 64.5349C157.237 62.8317 155.882 61.7675 154.253 61.7675L154.251 61.7694Z" fill="#1A5D71"/>
<path d="M137.727 58.7627C134.199 54.9508 132.196 49.865 132.196 44.6605C132.196 32.7956 142.297 23.2451 154.354 24.1511C164.415 24.9068 172.537 33.0251 173.293 43.082C174.197 55.1348 164.643 65.2312 152.775 65.2312C150.319 65.2312 147.917 64.8039 145.633 63.9593C145.633 63.9593 145.501 63.3856 146.791 62.9504L153.034 61.4985L155.734 60.7942C164.063 59.279 169.948 51.6394 169.105 43.0147C168.332 35.0883 161.815 28.8017 153.866 28.2855C144.325 27.6663 136.364 35.2485 136.364 44.6546C136.364 49.141 138.276 53.5582 141.503 56.6777L141.363 56.7331C140.067 57.2435 138.844 57.9259 137.729 58.7607L137.727 58.7627Z" fill="white"/>
<path d="M155.944 61.1939C155.738 61.1939 155.554 61.0495 155.512 60.8378C155.467 60.6004 155.621 60.369 155.859 60.3235C163.325 58.8656 168.745 52.2764 168.745 44.6566C168.745 35.8519 161.58 28.691 152.773 28.691C143.967 28.691 136.801 35.8539 136.801 44.6566C136.801 48.1955 137.927 51.5386 140.055 54.3218C140.203 54.5137 140.166 54.7906 139.974 54.937C139.782 55.0854 139.505 55.0478 139.358 54.8559C137.112 51.9184 135.923 48.3913 135.923 44.6586C135.923 35.3712 143.482 27.8147 152.773 27.8147C162.065 27.8147 169.624 35.3712 169.624 44.6586C169.624 52.6977 163.905 59.6489 156.027 61.1879C155.999 61.1939 155.969 61.1958 155.942 61.1958L155.944 61.1939Z" fill="#1A5D71"/>
<path d="M152.773 65.6704C151.249 65.6704 149.73 65.5062 148.257 65.1838C148.02 65.1323 147.869 64.8969 147.923 64.6615C147.974 64.4242 148.208 64.2738 148.445 64.3272C149.856 64.6358 151.311 64.7921 152.773 64.7921C163.877 64.7921 172.911 55.7619 172.911 44.6625C172.911 33.5632 163.877 24.533 152.773 24.533C141.669 24.533 132.635 33.5632 132.635 44.6625C132.635 49.1252 134.062 53.3485 136.764 56.8776C136.912 57.0694 136.874 57.3464 136.682 57.4928C136.49 57.6411 136.213 57.6035 136.067 57.4117C133.247 53.7284 131.757 49.321 131.757 44.6625C131.757 33.0785 141.184 23.6527 152.775 23.6527C164.366 23.6527 173.793 33.0765 173.793 44.6625C173.793 56.2485 164.366 65.6724 152.775 65.6724L152.773 65.6704Z" fill="#1A5D71"/>
<path d="M362.84 293.483L361.37 297.01C359.308 301.957 355.213 305.775 350.135 307.49L329.422 314.481H28.3748L10.2101 308.913C5.31821 307.413 1.8254 303.097 1.37816 298.001L0.614288 289.262C0.507426 287.901 0.764687 286.536 1.36232 285.307C2.09849 283.792 2.35971 282.089 2.11234 280.423L0.497531 269.51C0.172986 267.322 1.31681 265.178 3.31355 264.224L7.45744 262.248C30.2547 251.38 54.6649 244.285 79.736 241.234L90.2718 239.953L102.274 233.502C169.297 197.474 248.681 192.368 319.771 219.512L363.729 236.297L361.342 257.18L364.12 271.51C364.621 274.089 364.872 276.712 364.872 279.341V283.327C364.872 286.813 364.182 290.267 362.84 293.483V293.483Z" fill="white"/>
<path d="M317.543 229.081C318.36 228.651 318.287 227.459 317.424 227.128L306.476 222.952C243.621 198.975 158.531 199.901 98.2808 246.077L245.161 240.993C262.212 240.404 279.221 238.936 296.121 236.598C304.685 235.409 313.618 231.136 317.543 229.079V229.081Z" fill="white"/>
<path d="M98.2807 246.518C98.0966 246.518 97.9304 246.401 97.8671 246.227C97.8018 246.047 97.8611 245.845 98.0135 245.731C126.195 224.131 161.935 211.004 201.367 207.77C236.683 204.876 274.069 210.12 306.635 222.543L317.582 226.719C318.146 226.934 318.518 227.441 318.554 228.044C318.589 228.646 318.281 229.192 317.748 229.47C313.319 231.793 304.628 235.862 296.182 237.035C279.337 239.365 262.176 240.845 245.177 241.432L98.2965 246.518C98.2965 246.518 98.2866 246.518 98.2807 246.518V246.518ZM219.852 207.786C179.415 207.786 136.278 217.968 99.6461 245.592L245.145 240.556C262.115 239.968 279.244 238.491 296.059 236.164C304.683 234.968 313.812 230.541 317.337 228.693C317.562 228.574 317.689 228.351 317.673 228.098C317.657 227.84 317.505 227.633 317.265 227.542L306.318 223.366C282.256 214.187 251.901 207.788 219.85 207.788L219.852 207.786Z" fill="#1A5D71"/>
<path d="M337.123 254.053C337.123 254.053 331.611 259.028 361.331 257.295L363.731 236.263C363.731 236.263 347.868 244.965 337.123 254.053V254.053Z" fill="white"/>
<path d="M350.298 258.102C341.795 258.102 337.128 257.214 336.388 255.445C336.072 254.69 336.515 254.009 336.828 253.726C336.832 253.722 336.834 253.72 336.838 253.716C347.492 244.704 363.359 235.965 363.517 235.876C363.662 235.797 363.838 235.804 363.975 235.895C364.111 235.986 364.184 236.147 364.167 236.309L361.766 257.34C361.742 257.552 361.568 257.716 361.354 257.728C357.143 257.973 353.453 258.096 350.294 258.096L350.298 258.102ZM337.415 254.381C337.372 254.425 337.047 254.755 337.202 255.111C337.508 255.827 340.134 258.062 360.937 256.878L363.197 237.065C359.936 238.904 346.685 246.544 337.415 254.381V254.381Z" fill="#1A5D71"/>
<path d="M338.899 256.624C341.717 257.497 347.957 258.074 361.331 257.295L362.083 250.712C362.083 250.712 363.426 242.087 355.847 245.339C347.444 248.945 338.899 256.622 338.899 256.622V256.624Z" fill="#1A5D71"/>
<path d="M30.2254 305.075L302.069 299.906L363.106 292.824C363.021 293.044 362.933 293.264 362.842 293.483L361.372 297.01C359.31 301.957 355.216 305.773 350.138 307.486L337.061 311.898C332.005 313.603 326.703 314.473 321.366 314.473H32.6516C29.8158 314.473 26.9958 314.052 24.2847 313.221L10.2085 308.909C6.64446 307.817 3.8225 305.237 2.38184 301.94L30.2254 305.075V305.075Z" fill="white"/>
<path d="M321.364 314.914H32.6516C29.7703 314.914 26.9127 314.487 24.156 313.642L10.0799 309.33C6.44854 308.216 3.49597 305.587 1.98011 302.116C1.91679 301.971 1.93658 301.805 2.02959 301.679C2.1226 301.552 2.27497 301.487 2.43329 301.502L30.2472 304.634L302.062 299.465L363.054 292.385C363.205 292.365 363.359 292.431 363.452 292.553C363.547 292.674 363.571 292.836 363.515 292.981C363.428 293.204 363.339 293.428 363.246 293.649L361.776 297.176C359.666 302.236 355.475 306.145 350.276 307.9L337.199 312.311C332.088 314.036 326.759 314.91 321.364 314.91V314.914ZM3.118 302.466C4.60813 305.354 7.20054 307.53 10.3371 308.491L24.4133 312.804C27.0849 313.623 29.8573 314.038 32.6516 314.038H321.364C326.664 314.038 331.898 313.179 336.918 311.484L349.995 307.073C354.954 305.399 358.954 301.671 360.964 296.844L362.421 293.349L302.119 300.345L30.2333 305.516C30.2175 305.516 30.1957 305.516 30.1759 305.514L3.118 302.468V302.466Z" fill="#1A5D71"/>
<path d="M38.6682 260.262C38.9868 260.029 38.8602 259.524 38.4683 259.475C36.3687 259.206 31.4392 258.713 26.0802 259.18C20.5887 259.657 12.3227 263.718 8.84965 265.538C7.91955 266.025 7.51585 267.14 7.91163 268.111L8.14515 268.683C8.6102 269.821 9.71642 270.564 10.9453 270.564H18.3545C22.3974 270.564 26.3355 269.279 29.5988 266.893L38.6702 260.262H38.6682Z" fill="white"/>
<path d="M8.91995 265.498C12.4345 263.659 20.6234 259.653 26.0773 259.178C28.2581 258.988 30.3656 258.957 32.2417 259.006L25.6558 263.643C23.0911 265.449 20.1247 266.602 17.0118 267.004L12.2485 267.619C11.358 267.734 10.4714 267.383 9.9015 266.691L8.91797 265.5L8.91995 265.498Z" fill="#1A5D71"/>
<path d="M18.352 271.002H10.9429C9.52996 271.002 8.27136 270.155 7.73705 268.847L7.50156 268.272C7.01672 267.085 7.50749 265.742 8.6434 265.146L8.71662 265.109C12.067 263.356 20.4636 259.224 26.0402 258.739C31.4981 258.264 36.5642 258.786 38.4877 259.032C38.8518 259.077 39.1467 259.338 39.2377 259.692C39.3287 260.047 39.1961 260.416 38.9013 260.632L29.8556 267.243C26.4934 269.7 22.5157 271 18.352 271V271.002ZM9.12428 265.888L9.05106 265.926C8.31886 266.309 8.00223 267.176 8.3149 267.939L8.55039 268.515C8.94816 269.492 9.88815 270.123 10.9429 270.123H18.352C22.3277 270.123 26.1273 268.883 29.3371 266.537L38.3828 259.926C36.4791 259.663 31.4902 259.148 26.1174 259.615C20.701 260.086 12.4291 264.159 9.12626 265.888H9.12428Z" fill="#1A5D71"/>
<path d="M183.317 252.288L210.133 251.457C212.983 251.368 215.754 250.5 218.144 248.945L219.688 247.94L192.747 248.747C189.297 248.85 185.983 250.097 183.319 252.288H183.317Z" fill="white"/>
<path d="M183.318 252.725C183.136 252.725 182.972 252.613 182.906 252.441C182.839 252.265 182.892 252.067 183.039 251.946C185.762 249.703 189.205 248.411 192.732 248.304L219.673 247.497C219.883 247.497 220.047 247.618 220.106 247.806C220.166 247.994 220.092 248.197 219.926 248.304L218.383 249.309C215.925 250.91 213.077 251.802 210.146 251.893L183.33 252.723H183.316L183.318 252.725ZM218.135 248.425L192.757 249.185C189.882 249.27 187.064 250.191 184.693 251.804L210.12 251.016C212.891 250.931 215.582 250.087 217.906 248.575L218.137 248.425H218.135Z" fill="#1A5D71"/>
<path d="M12.8955 298.994C12.7867 298.994 12.6778 298.986 12.567 298.97C10.4179 298.656 5.32809 297.085 4.49496 289.341C4.32279 287.737 5.25685 286.178 6.76876 285.553C8.5122 284.831 12.478 284.51 15.4978 284.368C16.1489 284.338 16.7881 284.591 17.2413 285.064C17.6865 285.529 17.9101 286.162 17.8528 286.801C17.4649 291.141 15.8798 295.439 14.9675 297.615C14.6132 298.462 13.788 298.996 12.8936 298.996L12.8955 298.994ZM15.6047 285.242C15.5829 285.242 15.5612 285.242 15.5394 285.242C13.1251 285.355 8.81695 285.654 7.10517 286.362C5.95146 286.839 5.23904 288.025 5.36965 289.246C6.10779 296.124 10.2774 297.746 12.6957 298.1C13.3131 298.191 13.9186 297.851 14.1601 297.273C15.0506 295.145 16.6021 290.941 16.98 286.72C17.0157 286.328 16.8831 285.956 16.608 285.669C16.3448 285.396 15.9827 285.242 15.6047 285.242V285.242Z" fill="#1A5D71"/>
<path d="M12.2251 298.466C12.3636 298.494 12.4982 298.515 12.6248 298.533C13.4461 298.654 14.2436 298.207 14.5642 297.441C15.4092 295.422 17.0299 291.093 17.4178 286.755C17.5148 285.665 16.6104 284.75 15.518 284.801C14.8155 284.835 13.9804 284.882 13.0998 284.947L13.1037 284.985C13.642 289.293 13.3927 293.663 12.3676 297.88L12.2251 298.464V298.466Z" fill="#1A5D71"/>
<path d="M101.346 298.733C101.346 277.512 84.137 260.31 62.907 260.31C41.6771 260.31 24.4683 277.512 24.4683 298.733C24.4683 304.272 25.6418 309.536 27.7533 314.291L28.3747 314.481H97.9777C100.141 309.674 101.346 304.343 101.346 298.731V298.733Z" fill="white"/>
<path d="M97.9781 314.92H28.375C28.3315 314.92 28.288 314.914 28.2464 314.9L27.625 314.711C27.5023 314.673 27.4034 314.584 27.3519 314.469C25.1474 309.5 24.0293 304.205 24.0293 298.733C24.0293 277.304 41.4696 259.87 62.9074 259.87C84.3452 259.87 101.786 277.304 101.786 298.733C101.786 304.282 100.64 309.641 98.3798 314.663C98.3085 314.821 98.1522 314.922 97.9781 314.922V314.92ZM28.4403 314.042H97.6931C99.8264 309.209 100.907 304.06 100.907 298.731C100.907 277.787 83.8604 260.747 62.9074 260.747C41.9545 260.747 24.9079 277.787 24.9079 298.731C24.9079 304.013 25.9726 309.126 28.0742 313.929L28.4403 314.042V314.042Z" fill="#1A5D71"/>
<path d="M332.662 298.733C332.662 277.504 315.445 260.294 294.208 260.294C272.97 260.294 255.753 277.504 255.753 298.733C255.753 304.345 256.956 309.676 259.119 314.483H329.294C331.457 309.676 332.66 304.345 332.66 298.733H332.662Z" fill="white"/>
<path d="M329.295 314.92H259.118C258.946 314.92 258.788 314.819 258.717 314.661C256.457 309.641 255.311 304.28 255.311 298.731C255.311 277.294 272.759 259.853 294.205 259.853C315.651 259.853 333.099 277.294 333.099 298.731C333.099 304.28 331.953 309.639 329.693 314.661C329.622 314.819 329.466 314.92 329.291 314.92H329.295ZM259.405 314.042H329.01C331.142 309.207 332.222 304.058 332.222 298.731C332.222 277.779 315.17 260.731 294.207 260.731C273.244 260.731 256.192 277.777 256.192 298.731C256.192 304.06 257.272 309.209 259.403 314.042H259.405Z" fill="#1A5D71"/>
<path d="M113.133 242.047L118.985 234.999C119.808 234.008 121.031 233.435 122.319 233.435H127.528C129.736 233.435 131.592 235.096 131.836 237.292L132.226 240.815C132.331 241.769 132.117 242.73 131.616 243.549C130.841 244.819 129.467 245.6 127.979 245.622C122.394 245.699 108.991 245.838 109.282 245.402C109.571 244.969 111.611 243.363 112.458 242.702C112.706 242.508 112.931 242.291 113.133 242.049V242.047Z" fill="white"/>
<path d="M132.226 240.811L131.836 237.288C131.592 235.092 129.738 233.431 127.528 233.431H122.319C121.031 233.431 119.808 234.004 118.985 234.995L113.133 242.043C113.133 242.043 124.076 240.649 132.226 240.809V240.811Z" fill="white"/>
<path d="M113.133 242.487C112.975 242.487 112.826 242.4 112.749 242.259C112.662 242.101 112.68 241.907 112.796 241.767L118.648 234.718C119.557 233.623 120.896 232.993 122.321 232.993H127.53C129.968 232.993 132.006 234.819 132.275 237.241L132.665 240.764C132.679 240.888 132.637 241.015 132.552 241.108C132.467 241.201 132.34 241.246 132.22 241.25C124.201 241.096 113.299 242.469 113.19 242.483C113.172 242.485 113.153 242.487 113.135 242.487H113.133ZM122.319 233.872C121.157 233.872 120.065 234.384 119.323 235.278L114.174 241.48C117.085 241.145 125.216 240.291 131.735 240.364L131.4 237.336C131.183 235.359 129.518 233.87 127.53 233.87H122.321L122.319 233.872Z" fill="#1A5D71"/>
<path d="M113.133 242.047L118.985 234.999C119.808 234.008 121.031 233.435 122.319 233.435H127.528C129.736 233.435 131.592 235.096 131.836 237.292L132.226 240.815C132.331 241.769 132.117 242.73 131.616 243.549C130.841 244.819 129.467 245.6 127.979 245.622C122.394 245.699 108.991 245.838 109.282 245.402C109.571 244.969 111.611 243.363 112.458 242.702C112.706 242.508 112.931 242.291 113.133 242.049V242.047Z" fill="white"/>
<path d="M117.346 246.148C109.171 246.148 109.03 245.887 108.894 245.634C108.817 245.491 108.827 245.292 108.916 245.155C109.153 244.797 110.255 243.855 112.189 242.352C112.41 242.18 112.614 241.982 112.794 241.765L118.646 234.716C119.554 233.621 120.894 232.991 122.319 232.991H127.527C129.965 232.991 132.004 234.817 132.273 237.239L132.663 240.762C132.778 241.806 132.54 242.876 131.992 243.772C131.131 245.179 129.633 246.033 127.985 246.055C123.431 246.118 119.974 246.144 117.346 246.144V246.148ZM110.16 245.135C112.256 245.288 118.773 245.305 127.973 245.179C129.318 245.161 130.539 244.465 131.242 243.317C131.689 242.585 131.883 241.713 131.79 240.861L131.4 237.337C131.183 235.361 129.518 233.872 127.529 233.872H122.321C121.159 233.872 120.067 234.384 119.325 235.278L113.473 242.326C113.253 242.591 113.002 242.835 112.729 243.046C111.462 244.032 110.639 244.712 110.162 245.135H110.16Z" fill="#1A5D71"/>
<path d="M321.601 314.92H33.0709C29.9105 314.92 26.7759 314.451 23.754 313.524L10.0796 309.332C4.99178 307.773 1.40398 303.34 0.938927 298.039L0.175059 289.299C0.0622602 287.857 0.335353 286.411 0.964653 285.116C1.6652 283.673 1.91058 282.073 1.67509 280.487L0.0602812 269.575C-0.293948 267.18 0.936948 264.871 3.12169 263.829L7.26557 261.853C30.15 250.943 54.5126 243.859 79.6787 240.797L90.1334 239.525L102.062 233.112C169.251 196.997 248.66 191.888 319.925 219.099L361.026 234.792C362.896 235.506 364.041 237.391 363.814 239.379L361.781 257.16L364.548 271.425C365.053 274.026 365.308 276.689 365.308 279.339V283.325C365.308 286.888 364.613 290.362 363.242 293.651L362.836 293.483L363.242 293.651L361.772 297.178C359.662 302.24 355.471 306.151 350.272 307.906L336.97 312.396C332.006 314.072 326.835 314.92 321.597 314.92H321.601ZM226.298 202.696C183.571 202.696 141.012 213.176 102.482 233.888L90.4797 240.338C90.4322 240.364 90.3788 240.38 90.3253 240.388L79.7875 241.67C54.7164 244.72 30.4448 251.776 7.64553 262.644L3.50165 264.62C1.6652 265.494 0.632193 267.433 0.931012 269.445L2.54582 280.358C2.80704 282.119 2.53395 283.897 1.75623 285.497C1.19421 286.655 0.950801 287.944 1.05173 289.226L1.81559 297.962C2.24898 302.903 5.59338 307.037 10.3389 308.491L24.0133 312.683C26.952 313.583 29.9996 314.04 33.0728 314.04H321.601C326.742 314.04 331.82 313.205 336.693 311.561L349.995 307.071C354.954 305.397 358.952 301.667 360.966 296.838L362.436 293.311C363.762 290.13 364.435 286.769 364.435 283.323V279.337C364.435 276.744 364.186 274.137 363.691 271.591L360.913 257.261C360.905 257.218 360.903 257.172 360.907 257.129L362.945 239.282C363.127 237.694 362.209 236.186 360.715 235.616L319.614 219.924C289.455 208.407 257.83 202.7 226.298 202.7V202.696Z" fill="#1A5D71"/>
<path d="M318.463 322.98C331.859 309.589 331.859 287.878 318.463 274.488C305.067 261.097 283.348 261.097 269.952 274.488C256.555 287.878 256.555 309.589 269.952 322.98C283.348 336.37 305.067 336.37 318.463 322.98Z" fill="#1A5D71"/>
<path d="M310.52 315.04C319.53 306.034 319.53 291.433 310.52 282.427C301.511 273.421 286.903 273.421 277.894 282.427C268.884 291.433 268.884 306.034 277.894 315.04C286.903 324.046 301.511 324.046 310.52 315.04Z" fill="white"/>
<path d="M294.207 322.233C281.243 322.233 270.697 311.69 270.697 298.733C270.697 285.776 281.245 275.233 294.207 275.233C307.169 275.233 317.717 285.774 317.717 298.733C317.717 311.692 307.169 322.233 294.207 322.233ZM294.207 276.111C281.728 276.111 271.576 286.259 271.576 298.733C271.576 311.207 281.728 321.355 294.207 321.355C306.686 321.355 316.838 311.207 316.838 298.733C316.838 286.259 306.686 276.111 294.207 276.111Z" fill="#1A5D71"/>
<path d="M294.207 317.241C304.433 317.241 312.722 308.955 312.722 298.733C312.722 288.512 304.433 280.226 294.207 280.226C283.982 280.226 275.692 288.512 275.692 298.733C275.692 308.955 283.982 317.241 294.207 317.241Z" fill="white"/>
<path d="M294.207 317.678C283.756 317.678 275.253 309.178 275.253 298.731C275.253 288.285 283.756 279.784 294.207 279.784C304.658 279.784 313.161 288.285 313.161 298.731C313.161 309.178 304.658 317.678 294.207 317.678ZM294.207 280.665C284.241 280.665 276.132 288.769 276.132 298.731C276.132 308.693 284.239 316.799 294.207 316.799C304.175 316.799 312.283 308.695 312.283 298.731C312.283 288.767 304.175 280.665 294.207 280.665Z" fill="#1A5D71"/>
<path d="M87.1647 322.978C100.561 309.588 100.561 287.877 87.1647 274.486C73.7687 261.096 52.0493 261.096 38.6532 274.486C25.2571 287.877 25.2571 309.588 38.6532 322.978C52.0493 336.369 73.7686 336.369 87.1647 322.978Z" fill="#1A5D71"/>
<path d="M79.2219 315.039C88.2315 306.033 88.2315 291.432 79.2219 282.426C70.2124 273.42 55.605 273.42 46.5955 282.426C37.5859 291.432 37.5859 306.033 46.5955 315.039C55.605 324.045 70.2124 324.045 79.2219 315.039Z" fill="white"/>
<path d="M62.9072 322.233C49.9432 322.233 39.3975 311.69 39.3975 298.733C39.3975 285.776 49.9452 275.233 62.9072 275.233C75.8692 275.233 86.4169 285.774 86.4169 298.733C86.4169 311.692 75.8692 322.233 62.9072 322.233ZM62.9072 276.111C50.428 276.111 40.2761 286.259 40.2761 298.733C40.2761 311.207 50.428 321.355 62.9072 321.355C75.3863 321.355 85.5383 311.207 85.5383 298.733C85.5383 286.259 75.3863 276.111 62.9072 276.111Z" fill="#1A5D71"/>
<path d="M62.9075 317.241C73.133 317.241 81.4224 308.955 81.4224 298.733C81.4224 288.512 73.133 280.226 62.9075 280.226C52.682 280.226 44.3926 288.512 44.3926 298.733C44.3926 308.955 52.682 317.241 62.9075 317.241Z" fill="white"/>
<path d="M62.9078 317.678C52.4571 317.678 43.9536 309.178 43.9536 298.731C43.9536 288.285 52.4571 279.784 62.9078 279.784C73.3586 279.784 81.862 288.285 81.862 298.731C81.862 309.178 73.3586 317.678 62.9078 317.678ZM62.9078 280.665C52.9419 280.665 44.8323 288.769 44.8323 298.731C44.8323 308.693 52.9399 316.799 62.9078 316.799C72.8757 316.799 80.9834 308.695 80.9834 298.731C80.9834 288.767 72.8757 280.665 62.9078 280.665Z" fill="#1A5D71"/>
<path d="M263.13 333.517L262.594 343.382L255.996 344.493L255.409 332.86L263.13 333.517Z" fill="white"/>
<path d="M255.996 344.933C255.897 344.933 255.8 344.899 255.721 344.836C255.624 344.757 255.562 344.642 255.556 344.515L254.969 332.882C254.963 332.755 255.01 332.633 255.103 332.544C255.194 332.456 255.319 332.409 255.446 332.423L263.165 333.082C263.401 333.101 263.579 333.305 263.567 333.542L263.031 343.407C263.021 343.613 262.869 343.783 262.665 343.817L256.067 344.929C256.043 344.933 256.018 344.935 255.994 344.935L255.996 344.933ZM255.873 333.339L256.409 343.977L262.174 343.006L262.667 333.918L255.873 333.339V333.339Z" fill="#1A5D71"/>
<path d="M255.812 361.175C258.598 361.424 263.154 361.992 268.443 360.987C270.173 360.659 271.244 358.908 270.737 357.223C269.324 352.519 266.848 343.582 263.169 339.568L262.372 341.532L261.125 339.803C260.947 339.518 260.644 339.336 260.31 339.311L257.688 339.113C257.14 339.071 256.653 339.457 256.566 339.999L256.493 341.182L254.733 339.475L254.286 349.904C254.199 351.935 253.967 353.506 253.595 355.506L253.132 357.982C253.002 359.602 254.195 361.031 255.814 361.177L255.812 361.175Z" fill="white"/>
<path d="M262.09 362C259.909 362 258.011 361.822 256.515 361.68L255.773 361.61C253.925 361.444 252.541 359.8 252.692 357.943C252.692 357.927 252.696 357.913 252.698 357.897L253.161 355.421C253.529 353.452 253.758 351.915 253.846 349.88L254.293 339.451C254.301 339.279 254.41 339.127 254.57 339.061C254.73 338.998 254.914 339.034 255.039 339.154L256.113 340.197L256.127 339.965C256.252 339.162 256.943 338.605 257.72 338.67L260.342 338.868C260.815 338.903 261.247 339.164 261.498 339.566L262.264 340.626L262.763 339.398C262.82 339.259 262.943 339.156 263.093 339.131C263.242 339.105 263.394 339.156 263.495 339.267C266.992 343.083 269.412 351.215 270.856 356.075L271.159 357.092C271.434 358.012 271.308 359.011 270.809 359.832C270.308 360.657 269.477 361.234 268.527 361.414C266.214 361.854 264.039 361.996 262.092 361.996L262.09 362ZM253.567 358.038C253.468 359.407 254.489 360.615 255.85 360.738L256.596 360.807C259.377 361.07 263.58 361.466 268.361 360.556C269.066 360.421 269.683 359.994 270.055 359.381C270.425 358.772 270.52 358.03 270.316 357.349L270.011 356.331C268.654 351.765 266.424 344.266 263.305 340.401L262.778 341.696C262.719 341.845 262.583 341.948 262.424 341.967C262.264 341.987 262.108 341.918 262.015 341.787L260.768 340.058C260.649 339.869 260.471 339.762 260.277 339.746L257.655 339.548C257.338 339.526 257.049 339.752 257 340.064L256.931 341.206C256.921 341.378 256.81 341.526 256.65 341.588C256.489 341.649 256.307 341.613 256.185 341.493L255.128 340.468L254.722 349.918C254.633 351.997 254.388 353.625 254.024 355.581L253.567 358.034V358.038Z" fill="#1A5D71"/>
<path d="M261.813 358.991C258.12 358.991 255.334 358.36 255.154 358.319C254.918 358.263 254.77 358.028 254.825 357.793C254.88 357.557 255.118 357.409 255.351 357.464C255.421 357.48 262.313 359.037 268.725 357.233C268.957 357.167 269.202 357.304 269.267 357.537C269.333 357.771 269.196 358.012 268.963 358.079C266.497 358.774 263.997 358.993 261.813 358.993V358.991Z" fill="#1A5D71"/>
<path d="M258.349 351.686C258.11 351.686 257.914 351.494 257.91 351.255C257.906 351.011 258.1 350.812 258.341 350.808L264.573 350.699C264.81 350.691 265.016 350.889 265.02 351.13C265.024 351.373 264.83 351.573 264.589 351.577L258.357 351.686H258.349Z" fill="#1A5D71"/>
<path d="M231.778 329.861L231.507 344.23L223.52 344.632L222.426 330.332L231.778 329.861Z" fill="white"/>
<path d="M223.52 345.071C223.293 345.071 223.101 344.895 223.083 344.666L221.989 330.366C221.979 330.247 222.018 330.13 222.098 330.041C222.175 329.952 222.288 329.899 222.404 329.893L231.757 329.422C231.881 329.414 231.998 329.462 232.085 329.545C232.172 329.63 232.222 329.746 232.218 329.869L231.945 344.238C231.941 344.47 231.759 344.658 231.527 344.67L223.54 345.073C223.54 345.073 223.524 345.073 223.519 345.073L223.52 345.071ZM222.899 330.747L223.926 344.171L231.076 343.811L231.331 330.322L222.899 330.747V330.747Z" fill="#1A5D71"/>
<path d="M234 352.208C234.089 353.561 233.223 354.798 231.918 355.171C227.381 356.471 217.158 359.371 214.231 359.959C210.431 360.722 205.666 359.786 203.529 357.65C201.393 355.514 207.676 349.836 210.688 347.736C215.163 344.614 219.315 338.68 221.163 338.328C223.011 337.977 226.757 343.2 226.757 343.2L232.316 340.529C232.316 340.529 233.551 345.344 234 352.21V352.208Z" fill="white"/>
<path d="M211.476 360.661C208.195 360.661 204.9 359.642 203.218 357.959C202.792 357.533 202.606 356.985 202.666 356.331C202.917 353.484 208.011 349.067 210.437 347.374C212.631 345.843 214.729 343.643 216.577 341.702C218.572 339.609 220.015 338.096 221.08 337.894C222.934 337.542 225.91 341.311 226.896 342.644L232.126 340.132C232.245 340.076 232.383 340.074 232.502 340.13C232.621 340.185 232.71 340.292 232.741 340.418C232.753 340.468 233.992 345.352 234.437 352.179C234.538 353.729 233.529 355.166 232.037 355.593C227.693 356.837 217.27 359.794 214.314 360.388C213.395 360.572 212.436 360.659 211.474 360.659L211.476 360.661ZM221.363 338.747C221.321 338.747 221.281 338.751 221.244 338.757C220.456 338.907 218.881 340.559 217.213 342.308C215.335 344.278 213.205 346.511 210.938 348.092C207.959 350.169 203.732 354.214 203.538 356.406C203.505 356.796 203.602 357.1 203.837 357.336C205.824 359.324 210.352 360.287 214.141 359.525C217.066 358.938 227.462 355.988 231.795 354.746C232.892 354.432 233.634 353.375 233.561 352.234C233.204 346.774 232.338 342.579 232.013 341.158L226.945 343.593C226.751 343.686 226.522 343.625 226.397 343.453C224.96 341.451 222.502 338.745 221.359 338.745L221.363 338.747Z" fill="#1A5D71"/>
<path d="M211.225 356.978C209.226 356.978 207.491 356.693 206.274 355.981C206.064 355.858 205.995 355.589 206.117 355.379C206.24 355.17 206.509 355.1 206.719 355.223C212.266 358.471 230.569 351.785 230.753 351.716C230.979 351.633 231.234 351.747 231.317 351.977C231.4 352.204 231.285 352.457 231.056 352.541C230.446 352.766 218.909 356.979 211.225 356.979V356.978Z" fill="#1A5D71"/>
<path d="M220.596 348.891C220.499 348.891 220.4 348.859 220.319 348.792L216.072 345.334C215.884 345.182 215.856 344.905 216.008 344.717C216.161 344.529 216.438 344.499 216.626 344.654L220.873 348.111C221.061 348.264 221.088 348.541 220.936 348.729C220.849 348.835 220.722 348.891 220.596 348.891V348.891Z" fill="#1A5D71"/>
<path d="M260.421 234.831C260.421 234.831 265.155 279.47 267.229 294.858C269.303 310.246 266.233 335.303 266.233 335.303L253.873 335.277C253.873 335.277 252.128 313.041 250.786 301.475C250.457 298.638 249.672 295.879 248.48 293.283C246.608 289.206 243.674 282.184 242.332 275.609C240.278 265.546 234.212 249.794 234.212 249.794C234.212 249.794 233.977 329.952 233.882 336.253C233.882 336.253 224.237 337.17 220.661 335.165C220.661 335.165 213.05 306.325 213.131 290.421C213.212 274.517 210.255 235.162 210.255 235.162L260.423 234.831H260.421Z" fill="white"/>
<path d="M228.996 336.903C226.004 336.903 222.398 336.642 220.443 335.546C220.34 335.489 220.263 335.39 220.233 335.275C220.156 334.987 212.608 306.197 212.689 290.417C212.77 274.713 209.846 235.587 209.816 235.193C209.806 235.073 209.848 234.952 209.931 234.863C210.014 234.774 210.129 234.722 210.251 234.72L260.419 234.39H260.423C260.647 234.39 260.837 234.56 260.86 234.784C260.908 235.231 265.616 279.593 267.666 294.797C269.724 310.064 266.702 335.101 266.671 335.354C266.643 335.574 266.457 335.74 266.235 335.74L253.875 335.714C253.645 335.714 253.455 335.538 253.438 335.309C253.42 335.087 251.676 312.95 250.352 301.524C250.032 298.757 249.268 296.045 248.083 293.465C246.367 289.729 243.282 282.449 241.902 275.696C240.337 268.03 236.383 256.915 234.646 252.199C234.606 265.615 234.406 330.644 234.321 336.258C234.317 336.482 234.147 336.668 233.923 336.69C233.737 336.708 231.6 336.905 228.998 336.905L228.996 336.903ZM221.034 334.866C224.157 336.454 231.645 335.985 233.444 335.845C233.541 327.23 233.769 250.577 233.771 249.79C233.771 249.578 233.923 249.398 234.131 249.359C234.339 249.319 234.545 249.436 234.622 249.634C234.683 249.792 240.723 265.534 242.761 275.518C244.123 282.186 247.18 289.394 248.88 293.097C250.103 295.762 250.893 298.563 251.223 301.421C252.45 312.008 254.037 331.764 254.281 334.836L265.843 334.86C266.215 331.632 268.697 309.031 266.795 294.913C264.848 280.467 260.504 239.737 260.029 235.27L210.728 235.595C211.061 240.097 213.645 275.617 213.57 290.419C213.493 305.421 220.389 332.365 221.036 334.864L221.034 334.866Z" fill="#1A5D71"/>
<path d="M256.136 297.435C255.43 297.435 254.721 297.317 254.045 297.071C253.817 296.988 253.698 296.737 253.781 296.51C253.863 296.282 254.114 296.162 254.343 296.247C255.897 296.808 257.654 296.605 259.039 295.703C259.243 295.57 259.514 295.627 259.647 295.831C259.78 296.035 259.722 296.306 259.518 296.438C258.505 297.095 257.324 297.433 256.136 297.433V297.435Z" fill="#1A5D71"/>
<path d="M258.984 248.166C258.968 248.166 258.954 248.166 258.939 248.164C256.659 247.925 253.952 246.328 253.19 242.56C253.142 242.322 253.297 242.091 253.534 242.042C253.774 241.994 254.003 242.148 254.053 242.386C254.719 245.687 257.062 247.084 259.032 247.292C259.273 247.317 259.447 247.533 259.423 247.774C259.4 248 259.21 248.168 258.986 248.168L258.984 248.166Z" fill="#1A5D71"/>
<path d="M226.766 321.701C226.536 321.701 226.344 321.523 226.328 321.292C225.835 314.131 216.897 301.065 216.806 300.935C216.669 300.735 216.718 300.462 216.918 300.324C217.118 300.187 217.391 300.236 217.53 300.436C217.904 300.98 226.694 313.834 227.205 321.232C227.221 321.474 227.039 321.684 226.797 321.701C226.787 321.701 226.777 321.701 226.767 321.701H226.766Z" fill="#1A5D71"/>
<path d="M214.589 171.155C211.884 163.363 207.896 164.429 205.025 166.696C202.961 168.326 201.575 170.672 201.11 173.26C200.726 175.394 199.939 178.504 198.344 181.406C195.361 186.836 184.335 189.021 180.488 189.006C178.81 189 174.308 183.615 171.418 184.527C169.342 185.182 173.213 188.475 172.728 188.713C170.932 189.591 169.226 189.403 167.597 189.395C164.953 189.383 162.594 188.669 161.605 188.663C160.352 188.655 159.933 189.937 160.451 191.079C161.193 192.709 162.812 195.177 165.487 196.04C170.271 197.581 178.451 196.139 181.305 195.585C183.478 195.163 209.093 196.752 212.355 186.068C213.033 183.845 215.729 174.435 214.589 171.155V171.155Z" fill="white"/>
<path d="M170.975 197.163C168.917 197.163 166.948 196.97 165.353 196.457C162.248 195.456 160.611 192.489 160.051 191.261C159.691 190.469 159.713 189.601 160.107 188.994C160.427 188.497 160.958 188.226 161.595 188.226H161.609C162.022 188.228 162.602 188.335 163.338 188.468C164.46 188.671 165.996 188.95 167.601 188.958C167.838 188.958 168.078 188.964 168.319 188.968C169.578 188.994 170.876 189.019 172.2 188.471C172.083 188.305 171.919 188.094 171.782 187.92C171.048 186.974 170.134 185.797 170.415 184.897C170.496 184.638 170.714 184.29 171.286 184.11C173.263 183.483 175.76 185.372 177.767 186.889C178.855 187.714 179.981 188.564 180.49 188.566H180.529C184.374 188.566 195.104 186.392 197.958 181.194C199.529 178.333 200.303 175.257 200.677 173.18C201.165 170.466 202.612 168.039 204.751 166.35C206.685 164.823 208.493 164.291 210.13 164.769C212.127 165.351 213.767 167.452 215.002 171.01C216.221 174.518 213.36 184.276 212.772 186.195C209.938 195.476 191.069 195.795 183.965 195.915C182.698 195.937 181.697 195.955 181.386 196.014C178.768 196.522 174.723 197.163 170.973 197.163H170.975ZM161.595 189.102C161.254 189.102 161.003 189.225 160.845 189.47C160.615 189.823 160.619 190.382 160.853 190.897C161.363 192.02 162.851 194.728 165.624 195.62C169.938 197.009 177.248 195.923 181.222 195.152C181.608 195.076 182.54 195.061 183.953 195.037C190.881 194.92 209.289 194.608 211.935 185.937C212.285 184.788 215.327 174.617 214.175 171.297C213.037 168.021 211.594 166.109 209.887 165.61C208.541 165.216 206.997 165.697 205.299 167.036C203.328 168.593 201.995 170.83 201.543 173.333C201.16 175.475 200.358 178.65 198.729 181.613C195.656 187.207 184.661 189.441 180.531 189.441H180.488C179.686 189.437 178.606 188.62 177.238 187.585C175.394 186.191 173.098 184.454 171.553 184.942C171.297 185.024 171.266 185.122 171.256 185.154C171.111 185.617 172 186.762 172.477 187.378C173.011 188.066 173.278 188.41 173.197 188.76C173.162 188.911 173.063 189.037 172.922 189.104C171.29 189.904 169.772 189.874 168.299 189.842C168.064 189.836 167.828 189.832 167.595 189.832C165.913 189.825 164.334 189.538 163.18 189.328C162.513 189.207 161.937 189.102 161.601 189.101H161.593L161.595 189.102Z" fill="#1A5D71"/>
<path d="M267.902 182.478C267.902 182.478 269.62 156.149 253.968 150.424C238.901 144.913 218.975 144.794 208.217 151.919C202.906 155.436 198.067 176.949 198.067 176.949L206.519 186.503C206.519 186.503 206.029 233.824 208.926 246.164C208.926 246.164 222.978 247.088 228.786 244.457C234.595 241.826 253.911 237.575 263.439 241.383L258.734 181.742L267.9 182.478H267.902Z" fill="#1A5D71"/>
<path d="M249.98 230.161C249.962 230.161 249.944 230.161 249.925 230.157C227.048 227.294 219.617 211.845 219.546 211.689C219.443 211.469 219.54 211.208 219.76 211.105C219.981 211.002 220.241 211.099 220.344 211.319C220.415 211.471 227.664 226.485 250.035 229.286C250.277 229.316 250.447 229.536 250.417 229.777C250.39 229.999 250.2 230.161 249.982 230.161H249.98Z" fill="white"/>
<path d="M207.461 202.86L231.289 203.624C232.053 203.648 232.607 202.904 232.364 202.178L222.598 173.089C222.451 172.654 222.051 172.358 221.592 172.342L197.764 171.578C197 171.554 196.446 172.298 196.689 173.024L206.455 202.113C206.602 202.548 207.002 202.845 207.461 202.86V202.86Z" fill="white"/>
<path d="M231.325 204.063C231.309 204.063 231.293 204.063 231.275 204.063L207.447 203.3C206.808 203.28 206.244 202.859 206.04 202.253L196.274 173.165C196.114 172.688 196.197 172.162 196.498 171.76C196.798 171.357 197.269 171.115 197.78 171.141L221.608 171.905C222.247 171.924 222.813 172.346 223.015 172.951L232.779 202.04C232.94 202.516 232.857 203.042 232.556 203.446C232.265 203.836 231.808 204.065 231.323 204.065L231.325 204.063ZM197.73 172.019C197.521 172.019 197.329 172.114 197.204 172.284C197.073 172.46 197.04 172.678 197.109 172.886L206.875 201.974C206.962 202.233 207.204 202.413 207.477 202.423L231.305 203.187C231.525 203.195 231.725 203.096 231.853 202.922C231.984 202.746 232.017 202.528 231.948 202.32L222.184 173.232C222.097 172.973 221.856 172.793 221.581 172.783L197.752 172.019H197.73V172.019Z" fill="#1A5D71"/>
<path d="M265.23 181.142L252.537 180.571C252.537 180.571 252.442 191.255 251.296 191.447C247.215 192.127 238.67 192.161 233.11 191.49C231.172 191.257 229.64 189.775 229.274 187.86C228.999 186.414 228.216 184.715 226.227 183.491C224.305 182.308 226.201 186.028 224.404 188.422C223.438 189.708 220.383 189.138 216.215 188.173C212.048 187.207 210.989 191.66 215.659 194.351C220.723 197.268 223.941 196.94 225.556 197.282C228.772 197.963 257.211 202.417 261.602 200.034C264.994 198.192 265.23 181.144 265.23 181.144V181.142Z" fill="white"/>
<path d="M256.088 201.171C245.941 201.171 227.075 198.05 225.466 197.709C225.144 197.642 224.732 197.599 224.255 197.551C222.364 197.359 219.506 197.07 215.443 194.728C212.499 193.033 211.772 190.701 212.344 189.251C212.768 188.175 214.034 187.213 216.318 187.742C220.07 188.61 223.24 189.241 224.056 188.155C224.853 187.091 224.841 185.684 224.833 184.656C224.825 183.797 224.821 183.178 225.29 182.913C225.686 182.689 226.149 182.919 226.462 183.113C228.211 184.189 229.335 185.801 229.709 187.773C230.042 189.524 231.431 190.841 233.165 191.049C238.64 191.71 247.017 191.696 251.155 191.021C251.687 190.341 252.057 185.113 252.099 180.563C252.099 180.444 252.15 180.329 252.236 180.248C252.323 180.165 252.439 180.116 252.558 180.128L265.251 180.699C265.488 180.709 265.674 180.907 265.67 181.144C265.647 182.915 265.33 198.503 261.814 200.414C260.822 200.952 258.756 201.167 256.09 201.167L256.088 201.171ZM215.121 188.477C214.157 188.477 213.441 188.865 213.16 189.575C212.722 190.685 213.387 192.533 215.881 193.969C219.781 196.216 222.526 196.493 224.344 196.677C224.847 196.728 225.28 196.772 225.649 196.849C228.926 197.541 257.187 201.929 261.394 199.644C263.915 198.275 264.683 186.517 264.784 181.562L252.97 181.03C252.956 181.91 252.91 183.94 252.784 185.963C252.455 191.259 251.905 191.789 251.367 191.878C247.187 192.574 238.63 192.596 233.056 191.923C230.94 191.668 229.246 190.068 228.843 187.939C228.51 186.191 227.554 184.82 225.997 183.862C225.878 183.789 225.797 183.75 225.742 183.728C225.704 183.928 225.706 184.337 225.71 184.65C225.72 185.738 225.732 187.382 224.756 188.683C223.62 190.2 220.458 189.605 216.116 188.6C215.762 188.519 215.427 188.477 215.119 188.477H215.121Z" fill="#1A5D71"/>
<path d="M228.998 139.833C230.298 140.909 232.799 142.175 234.653 141.123C236.035 140.337 236.731 138.45 236.577 136.338C237.236 136.357 238.093 136.268 238.679 135.697C239.581 134.814 239.328 133.287 239.239 132.28C238.833 127.632 241.504 126.781 240.681 123.654C240.036 121.195 238.01 119.814 237.63 119.557C235.716 118.253 234.491 118.766 231.353 118.111C226.071 117.009 225.792 114.772 222.356 114.934C222.158 114.944 217.486 115.231 216.061 118.538C214.904 121.228 216.572 124.344 218.214 125.942C220.342 128.012 221.737 126.866 223.852 128.585C227.569 131.602 225.133 136.642 228.996 139.837L228.998 139.833Z" fill="#1A5D71"/>
<path d="M218.299 131.02C219.33 130.035 220.423 128.089 220.759 126.704C221.988 121.646 226.583 120.712 227.058 125.634C227.185 126.945 231.98 126.635 231.481 128.041C230.177 131.711 230.096 130.745 232.259 131.964C232.496 131.962 232.736 132.001 232.963 132.094C234.064 132.541 234.517 133.98 233.976 135.309C233.648 136.116 233.029 136.69 232.348 136.923L232.635 142.602C232.742 144.731 234.127 146.584 236.139 147.29L238.097 147.977C238.097 147.977 229.445 154.263 220.043 148.313L221.228 147.708C223.314 146.644 224.61 144.484 224.565 142.141L224.519 141.03C223.912 141.115 223.318 141.103 222.764 140.972C220.187 140.361 219.196 137.479 219.445 133.821L218.325 132.803C217.801 132.326 217.791 131.507 218.303 131.018L218.299 131.02Z" fill="white"/>
<path d="M228.57 151.294C225.898 151.294 222.885 150.634 219.807 148.685C219.675 148.6 219.596 148.452 219.603 148.293C219.611 148.135 219.702 147.995 219.843 147.922L221.026 147.316C222.95 146.335 224.165 144.307 224.123 142.149L224.098 141.514C223.591 141.542 223.108 141.506 222.661 141.4C220.094 140.792 218.762 138.102 218.992 134.005L218.026 133.129C217.688 132.82 217.49 132.381 217.484 131.922C217.478 131.463 217.666 131.018 217.997 130.702C218.941 129.8 220.011 127.921 220.332 126.599C221.109 123.398 223.144 121.84 224.772 121.954C226.268 122.061 227.286 123.418 227.495 125.588C227.525 125.901 228.78 126.184 229.453 126.336C230.557 126.585 231.511 126.803 231.843 127.406C231.974 127.644 231.992 127.913 231.895 128.186C231.705 128.72 231.54 129.157 231.406 129.517C231.17 130.144 230.966 130.686 230.998 130.819C231.036 130.864 231.281 130.981 231.499 131.084C231.734 131.194 232.023 131.331 232.375 131.525C232.639 131.535 232.892 131.59 233.127 131.685C234.449 132.221 235.013 133.92 234.382 135.471C234.064 136.256 233.498 136.874 232.801 137.208L233.072 142.577C233.171 144.537 234.432 146.222 236.284 146.873L238.241 147.56C238.395 147.613 238.506 147.749 238.53 147.91C238.554 148.072 238.486 148.232 238.354 148.329C238.294 148.373 234.182 151.29 228.57 151.292V151.294ZM220.945 148.345C228.182 152.487 234.901 149.356 237.091 148.09L235.993 147.704C233.802 146.936 232.312 144.942 232.195 142.624L231.908 136.945C231.899 136.749 232.019 136.569 232.205 136.508C232.793 136.308 233.304 135.797 233.569 135.145C234.016 134.043 233.67 132.858 232.797 132.504C232.633 132.437 232.449 132.411 232.263 132.405C232.189 132.403 232.11 132.385 232.043 132.348C231.673 132.138 231.368 131.995 231.125 131.881C229.813 131.264 229.961 130.87 230.585 129.212C230.717 128.856 230.879 128.425 231.067 127.897C231.083 127.851 231.077 127.839 231.075 127.835C230.933 127.578 229.928 127.351 229.261 127.199C228.008 126.916 226.714 126.621 226.623 125.677C226.458 123.97 225.742 122.908 224.711 122.835C223.476 122.746 221.842 124.113 221.187 126.811C220.826 128.294 219.667 130.326 218.604 131.341C218.446 131.493 218.361 131.697 218.363 131.914C218.365 132.134 218.456 132.334 218.618 132.482L219.738 133.501C219.837 133.592 219.89 133.722 219.881 133.855C219.625 137.6 220.714 140.041 222.863 140.549C223.344 140.662 223.88 140.68 224.456 140.598C224.578 140.581 224.703 140.616 224.798 140.695C224.893 140.774 224.951 140.891 224.956 141.014L225.002 142.126C225.049 144.626 223.646 146.968 221.426 148.102L220.945 148.347V148.345Z" fill="#1A5D71"/>
<path d="M224.515 141.471C224.311 141.471 224.127 141.328 224.085 141.121C224.036 140.883 224.19 140.652 224.428 140.602C227.665 139.938 229.053 137.313 229.066 137.285C229.177 137.069 229.44 136.984 229.658 137.095C229.874 137.206 229.959 137.469 229.85 137.685C229.787 137.807 228.269 140.711 224.606 141.463C224.576 141.469 224.547 141.473 224.517 141.473L224.515 141.471Z" fill="#1A5D71"/>
<path d="M99.8101 325.942L103.734 340.818C104.518 343.791 104.726 346.887 104.344 349.939L103.558 356.224L123.379 352.991L120.818 351.106C116.372 347.831 113.229 343.087 111.953 337.714L108.541 323.363L99.8081 325.946L99.8101 325.942Z" fill="white"/>
<path d="M103.56 356.661C103.447 356.661 103.338 356.617 103.255 356.538C103.154 356.441 103.107 356.305 103.125 356.166L103.91 349.882C104.286 346.871 104.084 343.86 103.313 340.929L99.3884 326.053C99.327 325.824 99.4616 325.588 99.6892 325.519L108.422 322.936C108.539 322.902 108.664 322.916 108.767 322.977C108.871 323.038 108.947 323.139 108.974 323.256L112.386 337.607C113.637 342.871 116.726 347.538 121.083 350.748L123.644 352.633C123.787 352.738 123.852 352.918 123.81 353.09C123.769 353.263 123.628 353.393 123.454 353.421L103.633 356.653C103.609 356.657 103.586 356.659 103.562 356.659L103.56 356.661ZM100.344 326.243L104.16 340.705C104.961 343.746 105.171 346.871 104.781 349.993L104.069 355.694L122.281 352.722L120.561 351.454C116.035 348.121 112.827 343.277 111.529 337.811L108.226 323.911L100.348 326.241L100.344 326.243Z" fill="#1A5D71"/>
<path d="M101.63 359.294C101.482 356.669 101.444 351.439 103.158 348.161C103.463 347.577 104.167 347.326 104.779 347.571L109.315 349.385C110.019 349.666 110.785 349.148 110.785 348.39V348.082C110.785 347.643 111.129 347.281 111.569 347.257L115.475 347.053C116.934 346.976 118.386 347.251 119.718 347.848C123.759 349.658 132.34 353.935 134.39 358.406C134.857 359.422 134.099 360.584 132.981 360.633C129.438 360.791 120.478 361.072 103.342 360.926C102.43 360.918 101.682 360.206 101.63 359.296V359.294Z" fill="white"/>
<path d="M112.545 361.405C109.778 361.405 106.719 361.393 103.339 361.363C102.201 361.353 101.257 360.455 101.191 359.318C101.031 356.507 101.023 351.294 102.769 347.955C103.178 347.17 104.112 346.83 104.942 347.16L109.477 348.974C109.675 349.053 109.891 349.029 110.067 348.911C110.243 348.792 110.346 348.6 110.346 348.386V348.076C110.346 347.403 110.872 346.847 111.545 346.812L115.452 346.608C116.966 346.531 118.503 346.818 119.898 347.443C124.575 349.538 132.73 353.725 134.79 358.218C135.067 358.823 135.025 359.502 134.673 360.077C134.313 360.667 133.69 361.037 133.003 361.066C129.945 361.203 123.615 361.403 112.549 361.403L112.545 361.405ZM102.068 359.268C102.108 359.945 102.668 360.479 103.345 360.485C120.231 360.629 129.146 360.362 132.959 360.192C133.353 360.174 133.713 359.962 133.919 359.622C134.117 359.3 134.141 358.922 133.986 358.586C131.974 354.198 123.209 349.894 119.534 348.246C118.268 347.678 116.869 347.413 115.493 347.488L111.587 347.692C111.381 347.702 111.221 347.872 111.221 348.078V348.388C111.221 348.891 110.971 349.358 110.556 349.641C110.14 349.921 109.614 349.977 109.147 349.793L104.611 347.979C104.201 347.815 103.744 347.981 103.544 348.365C101.898 351.518 101.912 356.55 102.066 359.27L102.068 359.268Z" fill="#1A5D71"/>
<path d="M117.563 358.39C114.005 358.39 109.642 358.307 104.439 358.069C104.196 358.057 104.01 357.852 104.019 357.61C104.029 357.369 104.233 357.177 104.479 357.191C121.604 357.972 129.579 357.076 129.656 357.068C129.906 357.037 130.116 357.213 130.143 357.454C130.171 357.695 129.999 357.913 129.757 357.941C129.702 357.947 125.776 358.39 117.559 358.39H117.563Z" fill="#1A5D71"/>
<path d="M122.02 354.178C121.937 354.178 121.854 354.155 121.779 354.107L115.035 349.686C114.833 349.554 114.775 349.281 114.908 349.079C115.04 348.877 115.314 348.82 115.515 348.952L122.26 353.373C122.461 353.506 122.519 353.779 122.386 353.981C122.301 354.109 122.163 354.178 122.018 354.178H122.02Z" fill="#1A5D71"/>
<path d="M59.6397 328.455L57.2432 345.275H51.1758L51.7655 328.734L59.6397 328.455Z" fill="white"/>
<path d="M57.2433 345.714H51.1759C51.0572 345.714 50.9424 345.664 50.8593 345.579C50.7762 345.494 50.7326 345.378 50.7366 345.259L51.3263 328.716C51.3342 328.484 51.5202 328.3 51.7498 328.292L59.624 328.015C59.7506 328.006 59.8792 328.065 59.9663 328.16C60.0534 328.257 60.093 328.387 60.0752 328.516L57.6787 345.336C57.647 345.554 57.463 345.714 57.2433 345.714ZM51.6311 344.836H56.8614L59.1312 328.912L52.1911 329.157L51.633 344.836H51.6311Z" fill="#1A5D71"/>
<path d="M57.0114 360.93C54.5298 361.195 51.0469 361.83 45.7335 360.981C44.178 360.732 43.1985 359.169 43.6259 357.654C44.7499 353.66 47.1029 346.288 50.0792 342.422C50.2949 342.141 50.7362 342.219 50.851 342.553L50.9579 343.247C51.0212 343.665 51.5852 343.746 51.7653 343.366L52.4203 341.977C52.5746 341.72 52.8418 341.552 53.1406 341.524L55.4441 341.435C55.9329 341.39 56.3742 341.726 56.4593 342.209L56.5385 343.305C56.5701 343.73 57.1361 343.852 57.3399 343.477L58.3333 342.458C58.5352 342.185 58.9686 342.333 58.9587 342.672L58.8399 347.043C58.7549 350.2 58.9844 353.359 59.5247 356.471L59.7958 358.036C59.9383 359.48 58.456 360.773 57.0134 360.928L57.0114 360.93Z" fill="white"/>
<path d="M50.9599 361.846C49.4243 361.846 47.6709 361.735 45.6623 361.412C44.8054 361.276 44.0435 360.775 43.5725 360.04C43.0956 359.296 42.9611 358.382 43.2005 357.531C44.3443 353.466 46.7131 346.064 49.729 342.151C49.9269 341.894 50.2475 341.77 50.5701 341.821C50.8926 341.874 51.1578 342.1 51.2647 342.408C51.2726 342.434 51.2785 342.458 51.2825 342.484L51.3893 343.178L52.0226 341.787C52.268 341.374 52.6638 341.125 53.0991 341.085L55.4264 340.996C56.115 340.933 56.7661 341.429 56.8908 342.133C56.8927 342.147 56.8947 342.163 56.8967 342.177L56.9759 343.273C56.9956 343.237 56.9956 343.2 57.0233 343.172L57.999 342.169C58.2068 341.912 58.5491 341.813 58.8638 341.92C59.1903 342.033 59.404 342.339 59.3941 342.683L59.2754 347.055C59.1903 350.177 59.4198 353.32 59.9541 356.396L60.2253 357.961C60.3994 359.709 58.6936 361.189 57.055 361.365C56.7423 361.399 56.4119 361.438 56.0636 361.48C54.6862 361.644 53.016 361.846 50.9579 361.846H50.9599ZM50.4276 342.701C47.4968 346.495 45.1715 353.771 44.0475 357.771C43.8753 358.38 43.9723 359.035 44.3146 359.569C44.655 360.101 45.1834 360.447 45.8028 360.546C50.3801 361.276 53.6077 360.89 55.9626 360.607C56.3149 360.566 56.6474 360.526 56.966 360.491C58.1692 360.362 59.4772 359.28 59.3585 358.077L59.0913 356.544C58.5471 353.411 58.3156 350.21 58.4007 347.029L58.5115 342.901L57.6902 343.746C57.4943 344.046 57.1401 344.197 56.7819 344.118C56.402 344.036 56.1289 343.72 56.1012 343.334L56.024 342.264C55.9706 342.019 55.745 341.843 55.4857 341.87L53.1585 341.959C53.0239 341.973 52.8795 342.062 52.7983 342.199L52.1631 343.548C51.9988 343.896 51.6308 344.088 51.2548 344.034C50.8748 343.979 50.5819 343.686 50.5245 343.309L50.4315 342.697L50.4276 342.701Z" fill="#1A5D71"/>
<path d="M51.8425 358.718C50.3266 358.718 48.5179 358.54 46.4914 358.008C46.2559 357.947 46.1154 357.707 46.1788 357.472C46.2401 357.237 46.4796 357.096 46.7151 357.159C52.4322 358.661 56.4019 357.189 56.4415 357.173C56.6671 357.086 56.9224 357.201 57.0095 357.426C57.0965 357.652 56.9818 357.907 56.7562 357.994C56.6434 358.038 54.8069 358.718 51.8425 358.718V358.718Z" fill="#1A5D71"/>
<path d="M54.5871 352.568H49.0243C48.7809 352.568 48.585 352.372 48.585 352.129C48.585 351.886 48.7809 351.69 49.0243 351.69H54.5871C54.8305 351.69 55.0264 351.886 55.0264 352.129C55.0264 352.372 54.8305 352.568 54.5871 352.568Z" fill="#1A5D71"/>
<path d="M98.8163 217.783C98.8163 217.783 106.772 269.144 107.088 281.408C107.405 293.673 112.509 330.785 112.509 330.785C112.509 330.785 105.95 333.218 98.4621 331.517C98.4621 331.517 74.1034 265.795 72.3481 245.646C70.5928 225.496 77.339 216.274 77.339 216.274L98.8163 217.783V217.783Z" fill="white"/>
<path d="M91.0358 214.585C91.0358 214.585 64.0729 296.887 63.6316 330.342C63.6316 330.342 57.6888 331.736 49.1477 330.342C49.1477 330.342 43.6701 238.491 59.458 212.757L91.0358 214.585Z" fill="white"/>
<path d="M104.031 332.565C102.28 332.565 100.36 332.397 98.3657 331.944C98.2212 331.91 98.1025 331.808 98.051 331.669C97.9046 331.277 83.7018 292.874 76.2926 266.054C68.3532 295.78 64.2409 317.405 64.0708 330.35C64.0688 330.551 63.9283 330.726 63.7324 330.771C63.487 330.828 57.6076 332.17 49.0764 330.777C48.8725 330.743 48.7202 330.575 48.7083 330.369C48.6628 329.622 44.3705 255.161 54.9874 221.94C55.0607 221.708 55.308 221.58 55.5396 221.655C55.7711 221.728 55.8978 221.975 55.8245 222.207C45.6311 254.1 49.2565 324.352 49.5672 329.966C56.6141 331.062 61.8583 330.239 63.198 329.984C63.4434 316.669 67.7239 294.488 75.9226 264.046C75.9839 263.817 76.2174 263.678 76.449 263.734C76.6805 263.789 76.825 264.017 76.7775 264.25L76.7478 264.391C83.7394 290.166 97.5879 327.879 98.7931 331.143C105.029 332.492 110.629 330.933 112.026 330.488C111.5 326.619 106.948 292.925 106.651 281.422C106.454 273.769 103.319 251.099 100.725 233.429C100.689 233.189 100.855 232.966 101.095 232.93C101.338 232.891 101.558 233.061 101.593 233.3C104.192 250.995 107.33 273.702 107.528 281.399C107.841 293.499 112.895 330.356 112.944 330.728C112.972 330.931 112.855 331.127 112.661 331.198C112.462 331.273 108.896 332.567 104.031 332.567V332.565Z" fill="#1A5D71"/>
<path d="M76.2964 264.842C76.2607 264.842 76.2251 264.838 76.1895 264.828C75.954 264.768 75.8115 264.529 75.8709 264.294L79.6586 249.266C79.7179 249.03 79.9574 248.888 80.1929 248.947C80.4284 249.006 80.5708 249.246 80.5115 249.481L76.7238 264.509C76.6743 264.709 76.4942 264.842 76.2983 264.842H76.2964Z" fill="#1A5D71"/>
<path d="M83.3675 144.114C81.6695 153.862 71.767 164.328 61.805 162.945C60.1783 162.72 55.793 161.796 51.1841 156.459C44.8297 161.005 36.7319 159.8 32.3644 154.527C27.0272 148.082 27.7555 136.154 35.5287 130.031C29.3703 129.98 27.7159 127.612 27.2271 126.68C24.3438 121.183 31.9587 108.323 39.0631 108.303C41.6852 108.295 45.1661 111.536 52.0192 118.016C59.0978 124.708 59.3986 126.006 61.5398 126.239C67.8368 126.922 69.7207 116.194 78.0738 115.007C83.7929 114.194 90.1809 118.19 90.6638 121.962C91.0794 125.201 86.8979 126.342 84.5429 132.808C82.7896 137.623 84.1472 139.635 83.3655 144.116L83.3675 144.114Z" fill="#1A5D71"/>
<path d="M75.0828 111.379C75.5696 112.871 75.0827 117.096 72.8406 117.828C70.5965 118.56 67.446 115.522 66.9592 114.03C66.4724 112.538 67.8953 110.736 70.1394 110.004C72.3835 109.273 74.5959 109.888 75.0828 111.381V111.379Z" fill="#1A5D71"/>
<path d="M102.157 218.417C102.157 218.417 104.654 235.09 101.601 238.285C101.601 238.285 91.6151 227.352 91.1421 219.455L102.159 218.417H102.157Z" fill="white"/>
<path d="M101.6 238.726H101.594C101.474 238.726 101.357 238.673 101.276 238.584C100.864 238.133 91.1793 227.443 90.7024 219.483C90.6886 219.247 90.8647 219.042 91.1002 219.02L102.117 217.981C102.346 217.956 102.558 218.124 102.592 218.353C102.695 219.044 105.085 235.276 101.919 238.592C101.836 238.679 101.721 238.728 101.602 238.728L101.6 238.726ZM91.6147 219.853C92.3093 226.632 99.855 235.624 101.577 237.597C103.498 234.505 102.445 223.542 101.782 218.893L91.6147 219.853V219.853Z" fill="#1A5D71"/>
<path d="M88.3061 218.587C88.3061 218.587 85.1952 232.038 81.5065 235.393C77.8158 238.748 67.739 223.748 62.1288 223.425C56.5185 223.105 50.3462 236.633 50.3462 236.633C50.3462 236.633 51.9095 219.736 56.5284 216.158L88.3081 218.585L88.3061 218.587Z" fill="white"/>
<path d="M50.3445 237.074C50.3069 237.074 50.2693 237.07 50.2317 237.061C50.0239 237.005 49.8874 236.809 49.9072 236.596C49.9725 235.897 51.5438 219.467 56.2576 215.813C56.3446 215.746 56.4515 215.716 56.5603 215.722L88.34 218.15C88.4687 218.159 88.5854 218.225 88.6606 218.328C88.7358 218.43 88.7635 218.561 88.7358 218.686C88.6072 219.239 85.5517 232.311 81.8036 235.719C79.508 237.806 75.5324 234.145 71.3212 230.268C67.9768 227.188 64.5196 224.005 62.1033 223.866C56.8671 223.585 50.8056 236.687 50.7462 236.819C50.673 236.979 50.5147 237.076 50.3465 237.076L50.3445 237.074ZM61.9331 222.982C62.0064 222.982 62.0796 222.984 62.1528 222.988C64.8818 223.144 68.4577 226.436 71.9149 229.621C75.6491 233.061 79.512 236.613 81.2099 235.069C84.3643 232.202 87.1546 221.435 87.7582 218.986L56.6672 216.611C53.3822 219.382 51.6981 229.455 51.0747 234.188C53.1111 230.341 57.5755 222.982 61.9351 222.982H61.9331Z" fill="#1A5D71"/>
<path d="M138.226 138.227L143.359 132.878C144.23 131.97 145.7 132.99 145.15 134.124L143.571 137.384C143.571 137.384 144.65 137.884 145.184 137.918C146.355 137.993 147.487 137.491 148.299 136.644C149.237 135.665 150.753 134.106 151.265 133.722C152.027 133.153 153.011 132.27 154.099 132.183H154.133C155.271 132.098 156.013 133.35 155.393 134.308L153.248 137.625C151.691 140.033 149.405 141.878 146.724 142.895L142.32 144.565C140.787 145.146 139.758 146.596 139.714 148.236L139.269 165.305L130.257 158.421L134.304 145.342C135.113 142.729 136.447 140.308 138.224 138.229L138.226 138.227Z" fill="white"/>
<path d="M139.271 165.743C139.176 165.743 139.083 165.713 139.004 165.652L129.992 158.768C129.845 158.655 129.784 158.465 129.84 158.289L133.886 145.209C134.718 142.523 136.065 140.078 137.892 137.942C137.898 137.936 137.904 137.928 137.91 137.922L143.043 132.573C143.581 132.013 144.402 131.932 145.04 132.375C145.677 132.818 145.887 133.618 145.548 134.316L144.169 137.164C144.543 137.315 144.982 137.467 145.214 137.483C146.219 137.548 147.226 137.133 147.982 136.343C149.075 135.202 150.486 133.76 151.004 133.372C151.107 133.295 151.216 133.21 151.329 133.125C152.073 132.549 152.999 131.833 154.068 131.748C154.798 131.701 155.449 132.035 155.803 132.632C156.157 133.23 156.143 133.966 155.766 134.549L153.62 137.867C152.002 140.369 149.67 142.252 146.882 143.308L142.479 144.978C141.106 145.498 140.195 146.784 140.156 148.25L139.71 165.317C139.706 165.481 139.609 165.632 139.461 165.701C139.4 165.731 139.336 165.745 139.271 165.745V165.743ZM130.77 158.255L138.854 164.431L139.275 148.222C139.323 146.398 140.456 144.8 142.164 144.151L146.567 142.482C149.18 141.491 151.36 139.728 152.878 137.384L155.023 134.067C155.221 133.76 155.229 133.39 155.043 133.076C154.857 132.761 154.531 132.593 154.165 132.617C153.327 132.684 152.516 133.311 151.863 133.815C151.746 133.904 151.635 133.991 151.527 134.073C151.164 134.344 150.104 135.39 148.614 136.947C147.678 137.924 146.423 138.436 145.152 138.357C144.553 138.318 143.5 137.837 143.383 137.782C143.276 137.732 143.193 137.641 143.154 137.53C143.114 137.42 143.12 137.297 143.172 137.192L144.751 133.932C144.933 133.554 144.757 133.254 144.533 133.095C144.307 132.939 143.963 132.878 143.672 133.18L138.549 138.521C136.805 140.565 135.517 142.903 134.722 145.469L130.766 158.255H130.77Z" fill="#1A5D71"/>
<path d="M128.429 154.242L150.908 172.049L140.888 182.434L121.819 166.556L128.429 154.242Z" fill="white"/>
<path d="M140.888 182.873C140.79 182.873 140.689 182.84 140.607 182.772L121.538 166.894C121.378 166.761 121.335 166.532 121.432 166.348L128.039 154.036C128.101 153.921 128.209 153.84 128.336 153.812C128.465 153.787 128.595 153.818 128.698 153.897L151.177 171.705C151.274 171.782 151.333 171.897 151.343 172.019C151.351 172.142 151.308 172.265 151.22 172.354L141.201 182.739C141.116 182.828 141.001 182.873 140.884 182.873H140.888ZM122.378 166.449L140.857 181.837L150.257 172.094L128.57 154.914L122.379 166.449H122.378Z" fill="#1A5D71"/>
<path d="M148.561 180.013L122.746 160.103C122.746 160.103 119.92 164.397 115.291 164.862C111.355 165.256 104.642 157.118 99.3449 153.591C92.5215 149.102 84.4376 147.472 76.5713 148.139C76.5713 148.139 76.5337 148.139 76.4625 148.149C75.0495 148.274 73.5614 148.483 71.996 148.8C61.1317 150.618 34.3033 156.629 29.2194 172.223C25.7899 182.743 29.7993 196.847 30.4681 199.051C30.5156 199.207 30.6918 199.282 30.8382 199.211L54.6843 187.702L52.8439 182.167C51.7417 179.505 52.836 176.44 55.3789 175.079L59.0776 173.101C59.9285 177.758 60.629 182.654 59.8355 186.806C56.9047 202.162 53.5425 207.185 51.8644 219.778C51.8644 219.778 57.6745 218.413 61.8936 218.686L101.65 220.205C104.304 220.306 106.606 218.355 106.902 215.718C107.318 212.027 107.328 205.493 105.802 194.026C105.604 192.537 105.48 190.173 105.333 187.283C113.457 192.171 128.291 195.965 148.563 180.009L148.561 180.013Z" fill="white"/>
<path d="M101.844 220.652C101.773 220.652 101.704 220.652 101.632 220.648L61.8776 219.129C57.7595 218.864 52.0225 220.195 51.9651 220.209C51.8266 220.24 51.6782 220.203 51.5693 220.106C51.4625 220.009 51.411 219.867 51.4288 219.722C52.3194 213.032 53.6571 208.561 55.2027 203.387C56.5266 198.96 58.0266 193.943 59.4039 186.727C60.1421 182.861 59.5504 178.242 58.7529 173.776L55.5866 175.469C53.2336 176.727 52.2283 179.536 53.2514 182.001L55.1037 187.565C55.173 187.775 55.076 188.003 54.8781 188.1L31.032 199.608C30.846 199.699 30.6283 199.703 30.4403 199.62C30.2523 199.537 30.1098 199.377 30.0504 199.181C29.2391 196.507 25.3683 182.63 28.8057 172.09C33.943 156.335 60.6744 150.254 71.9286 148.369C73.4306 148.064 74.9485 147.844 76.4287 147.714L76.5296 147.702C76.5494 147.7 76.5712 147.7 76.587 147.7C85.0628 146.992 93.0161 148.901 99.5921 153.225C101.508 154.499 103.615 156.378 105.656 158.194C109.224 161.373 112.91 164.672 115.253 164.425C119.613 163.988 122.358 159.903 122.385 159.862C122.453 159.759 122.56 159.689 122.68 159.67C122.803 159.65 122.924 159.68 123.021 159.755L148.836 179.665C148.943 179.748 149.006 179.874 149.006 180.011C149.006 180.147 148.945 180.274 148.838 180.359C139.747 187.514 130.857 191.399 122.421 191.905C116.506 192.262 110.922 190.972 105.816 188.076C105.95 190.691 106.065 192.667 106.239 193.973C107.518 203.58 107.89 210.915 107.342 215.772C107.029 218.545 104.638 220.652 101.85 220.652H101.844ZM60.6942 218.213C61.1118 218.213 61.5214 218.225 61.9192 218.25L101.664 219.77C104.082 219.863 106.192 218.062 106.461 215.673C106.831 212.383 106.942 205.966 105.361 194.087C105.165 192.62 105.042 190.351 104.89 187.308C104.882 187.146 104.963 186.994 105.103 186.909C105.242 186.826 105.418 186.826 105.557 186.909C114.159 192.085 128.457 195.057 147.844 180.015L122.837 160.728C122.002 161.828 119.336 164.898 115.335 165.299C112.612 165.576 108.945 162.309 105.064 158.851C103.047 157.055 100.964 155.197 99.1013 153.957C92.6817 149.733 84.9005 147.876 76.6088 148.578C76.5969 148.578 76.585 148.578 76.5732 148.578L76.5098 148.586C75.0514 148.715 73.5652 148.93 72.081 149.231C60.9713 151.09 34.6238 157.06 29.6349 172.359C26.3558 182.416 29.9178 195.674 30.8262 198.728L54.142 187.474L52.4223 182.306C51.2389 179.451 52.4124 176.165 55.167 174.692L58.8637 172.714C58.9864 172.648 59.1348 172.644 59.2615 172.706C59.3881 172.767 59.4772 172.884 59.5029 173.022C60.3677 177.754 61.0583 182.709 60.2608 186.889C58.8756 194.151 57.3676 199.189 56.0398 203.636C54.5516 208.613 53.2613 212.933 52.3787 219.214C53.8154 218.909 57.4626 218.211 60.6902 218.211L60.6942 218.213Z" fill="#1A5D71"/>
<path d="M52.9648 194.72L60.1246 205.861L63.3324 203.687C65.2936 202.358 67.698 201.848 70.0311 202.267C70.0311 202.267 73.4804 202.724 74.9527 203.913C78.5029 206.777 75.3564 208.559 74.6757 208.919C73.5813 209.499 72.0615 210.037 70.4408 209.806C69.4948 209.671 67.0034 209.994 64.7513 211.214C63.0494 212.138 61.0586 214.027 58.3554 213.293C56.046 212.668 55.0288 211.305 55.0288 211.305L45.7793 199.774L52.9628 194.72H52.9648Z" fill="white"/>
<path d="M59.5717 213.898C59.1463 213.898 58.703 213.843 58.2399 213.718C55.8118 213.06 54.7214 211.63 54.6759 211.57L45.4342 200.051C45.359 199.956 45.3254 199.836 45.3412 199.715C45.359 199.594 45.4243 199.488 45.5233 199.418L52.7068 194.362C52.8058 194.293 52.9265 194.267 53.0452 194.291C53.162 194.315 53.2649 194.384 53.3302 194.485L60.2466 205.248L63.0804 203.327C65.1504 201.925 67.6438 201.397 70.1036 201.838C70.2303 201.854 73.6736 202.322 75.2231 203.575C76.5253 204.625 77.1348 205.681 77.0358 206.714C76.9408 207.701 76.173 208.625 74.8748 209.311C73.8042 209.877 72.1558 210.498 70.3727 210.245C69.5693 210.128 67.157 210.411 64.9564 211.606C64.624 211.786 64.2776 212.007 63.9076 212.241C62.7163 212.998 61.2934 213.902 59.5658 213.902L59.5717 213.898ZM46.4158 199.866L55.3724 211.03C55.3903 211.054 56.352 212.294 58.4715 212.87C60.4425 213.404 62.0355 212.389 63.4425 211.493C63.8245 211.25 64.1846 211.022 64.5428 210.826C66.8681 209.564 69.4288 209.212 70.5034 209.369C72.0509 209.59 73.5153 209.034 74.4691 208.53C75.0648 208.215 76.076 207.549 76.1651 206.625C76.2344 205.905 75.7337 205.106 74.675 204.253C73.3134 203.155 70.0047 202.706 69.971 202.7C67.719 202.295 65.4531 202.777 63.5771 204.049L60.3692 206.223C60.2703 206.289 60.1496 206.314 60.0348 206.291C59.9181 206.267 59.8171 206.198 59.7538 206.097L52.8414 195.341L46.4158 199.864V199.866Z" fill="#1A5D71"/>
<path d="M52.8534 188.669L55.802 194.111L38.3695 208.01C38.3695 208.01 35.1953 201.909 34.2197 197.622L52.8514 188.671L52.8534 188.669Z" fill="white"/>
<path d="M38.3695 208.449C38.3398 208.449 38.3082 208.445 38.2785 208.439C38.1499 208.411 38.041 208.328 37.9797 208.211C37.8491 207.96 34.7698 202.012 33.7922 197.719C33.7467 197.519 33.8457 197.316 34.0297 197.227L52.6634 188.276C52.8751 188.173 53.1284 188.256 53.2392 188.462L56.1878 193.903C56.2888 194.091 56.2413 194.323 56.075 194.457L38.6426 208.356C38.5654 208.419 38.4685 208.451 38.3695 208.451V208.449ZM34.7303 197.864C35.5931 201.325 37.7857 205.865 38.5179 207.329L55.2399 193.996L52.6653 189.247L34.7303 197.864Z" fill="#1A5D71"/>
<path d="M105.362 188.143C105.133 188.143 104.941 187.965 104.925 187.734C104.848 186.608 104.763 185.38 104.672 184.104C104.422 180.543 104.139 176.51 103.977 173.491C103.965 173.25 104.149 173.042 104.393 173.028C104.63 173.014 104.842 173.2 104.856 173.443C105.018 176.454 105.301 180.486 105.55 184.042C105.639 185.318 105.726 186.547 105.804 187.672C105.82 187.916 105.637 188.123 105.396 188.141C105.386 188.141 105.376 188.141 105.366 188.141L105.362 188.143Z" fill="#1A5D71"/>
<path d="M88.1012 137.503L86.5576 150.329L93.6976 153.502C93.6976 153.502 83.1321 160.68 69.2222 152.722L76.7322 149.516L80.605 134.632L88.1051 137.503H88.1012Z" fill="white"/>
<path d="M82.455 156.886C78.604 156.886 74.0049 155.965 69.0022 153.104C68.8577 153.021 68.7726 152.865 68.7825 152.697C68.7924 152.53 68.8953 152.384 69.0477 152.319L76.3579 149.197L80.1752 134.521C80.2069 134.401 80.288 134.298 80.3988 134.243C80.5116 134.185 80.6403 134.177 80.757 134.223L88.2572 137.093C88.4452 137.164 88.56 137.356 88.5362 137.556L87.0303 150.06L93.8734 153.102C94.0198 153.167 94.1188 153.306 94.1326 153.464C94.1465 153.622 94.0733 153.777 93.9427 153.866C93.8734 153.913 89.3713 156.886 82.453 156.886H82.455ZM70.2192 152.774C81.3487 158.736 90.2223 154.904 92.7355 153.555L86.3792 150.73C86.2031 150.651 86.0982 150.467 86.1219 150.277L87.6259 137.791L80.9055 135.22L77.1574 149.629C77.1237 149.761 77.0307 149.868 76.9041 149.921L70.2212 152.776L70.2192 152.774Z" fill="#1A5D71"/>
<path d="M80.4283 138.227C80.4283 138.227 77.5628 139.307 76.8068 136.818C76.0509 134.33 78.5226 134.486 78.5226 134.486C78.5226 134.486 75.8926 129.03 79.983 128.498C84.0735 127.966 87.0597 126.455 87.0597 126.455C87.0597 126.455 90.032 131.659 90.9879 136.021C91.5637 138.652 91.4054 140.976 89.4186 141.669C83.9785 143.564 80.4303 138.225 80.4303 138.225L80.4283 138.227Z" fill="white"/>
<path d="M87.1092 142.513C83.464 142.513 80.9567 139.641 80.2601 138.737C79.7297 138.877 78.6492 139.067 77.7211 138.608C77.074 138.29 76.6268 137.73 76.3873 136.945C76.1142 136.043 76.1854 135.323 76.5971 134.8C76.9473 134.359 77.4638 134.173 77.8794 134.096C77.4856 133.075 76.8345 130.937 77.6261 129.475C78.0575 128.68 78.8313 128.203 79.9256 128.061C83.8855 127.547 86.8321 126.077 86.8598 126.061C87.0676 125.956 87.3229 126.031 87.4396 126.235C87.5623 126.451 90.4575 131.548 91.4153 135.926C92.1594 139.324 91.536 141.396 89.5611 142.082C88.6982 142.383 87.877 142.511 87.1092 142.511V142.513ZM80.4283 137.787C80.5727 137.787 80.7113 137.859 80.7944 137.983C80.9329 138.189 84.2258 143.014 89.2721 141.255C90.7583 140.737 91.1897 139.008 90.5565 136.116C89.7688 132.516 87.5465 128.267 86.8717 127.028C85.9297 127.454 83.3531 128.504 80.0365 128.933C79.2271 129.038 78.6908 129.353 78.3979 129.895C77.7033 131.178 78.5364 133.507 78.9164 134.294C78.9837 134.434 78.9718 134.601 78.8847 134.731C78.7976 134.86 78.6571 134.931 78.4929 134.925C78.2653 134.911 77.5865 134.963 77.2838 135.348C77.0621 135.631 77.0423 136.082 77.2264 136.692C77.3926 137.241 77.6795 137.611 78.103 137.821C79.0173 138.272 80.2601 137.821 80.2739 137.815C80.3234 137.797 80.3749 137.787 80.4263 137.787H80.4283Z" fill="#1A5D71"/>
<path d="M86.712 49.2538C86.5992 49.2538 86.4864 49.2102 86.3994 49.1232L85.1269 47.8354C84.9567 47.6633 84.9587 47.3844 85.1309 47.2143C85.303 47.0442 85.5821 47.0442 85.7522 47.2182L87.0247 48.506C87.1949 48.6781 87.1929 48.957 87.0207 49.1272C86.9356 49.2122 86.8229 49.2538 86.712 49.2538Z" fill="#1A5D71"/>
<path d="M92.8116 55.4196C92.6988 55.4196 92.586 55.3761 92.499 55.2891L91.2265 54.0013C91.0563 53.8292 91.0583 53.5503 91.2305 53.3802C91.4026 53.2081 91.6817 53.212 91.8519 53.3841L93.1243 54.6719C93.2945 54.844 93.2925 55.1229 93.1203 55.293C93.0353 55.3781 92.9225 55.4196 92.8116 55.4196V55.4196Z" fill="#1A5D71"/>
<path d="M85.4396 55.4196C85.3288 55.4196 85.216 55.3781 85.1309 55.293C84.9587 55.1229 84.9567 54.844 85.1269 54.6719L86.3994 53.3841C86.5695 53.212 86.8486 53.2101 87.0207 53.3802C87.1929 53.5503 87.1949 53.8292 87.0247 54.0013L85.7522 55.2891C85.6672 55.3761 85.5524 55.4196 85.4396 55.4196V55.4196Z" fill="#1A5D71"/>
<path d="M91.5367 49.2538C91.4259 49.2538 91.3131 49.2122 91.228 49.1272C91.0559 48.9571 91.0539 48.6781 91.2241 48.506L92.4965 47.2183C92.6667 47.0462 92.9457 47.0442 93.1179 47.2143C93.2901 47.3844 93.2921 47.6634 93.1219 47.8355L91.8494 49.1232C91.7643 49.2103 91.6495 49.2538 91.5367 49.2538Z" fill="#1A5D71"/>
<path d="M117.02 93.9123H117.018C116.775 93.9123 116.581 93.7125 116.581 93.4712L116.59 91.6612C116.59 91.4198 116.788 91.224 117.03 91.224H117.032C117.275 91.224 117.469 91.4238 117.469 91.6651L117.459 93.4751C117.459 93.7165 117.261 93.9123 117.02 93.9123Z" fill="#1A5D71"/>
<path d="M116.969 102.583H116.967C116.723 102.583 116.529 102.383 116.529 102.141L116.539 100.331C116.539 100.09 116.737 99.8942 116.979 99.8942H116.98C117.224 99.8942 117.418 100.094 117.418 100.335L117.408 102.145C117.408 102.387 117.21 102.583 116.969 102.583V102.583Z" fill="#1A5D71"/>
<path d="M111.756 97.3721C111.514 97.3721 111.318 97.1762 111.316 96.9349C111.316 96.6916 111.51 96.4938 111.754 96.4938L113.564 96.4839H113.566C113.808 96.4839 114.004 96.6797 114.006 96.9211C114.006 97.1644 113.812 97.3622 113.568 97.3622L111.758 97.3721H111.756Z" fill="#1A5D71"/>
<path d="M120.43 97.3226C120.188 97.3226 119.992 97.1268 119.99 96.8854C119.99 96.6421 120.184 96.4443 120.428 96.4443L122.238 96.4344C122.478 96.4463 122.678 96.6283 122.68 96.8716C122.68 97.1149 122.486 97.3127 122.242 97.3127L120.432 97.3226H120.43Z" fill="#1A5D71"/>
<path d="M62.3196 62.4598C60.5326 62.4598 59.0801 61.0079 59.0801 59.2216C59.0801 57.4354 60.5326 55.9834 62.3196 55.9834C64.1066 55.9834 65.5591 57.4354 65.5591 59.2216C65.5591 61.0079 64.1066 62.4598 62.3196 62.4598ZM62.3196 56.8617C61.0175 56.8617 59.9587 57.92 59.9587 59.2216C59.9587 60.5232 61.0175 61.5815 62.3196 61.5815C63.6217 61.5815 64.6805 60.5232 64.6805 59.2216C64.6805 57.92 63.6217 56.8617 62.3196 56.8617Z" fill="#1A5D71"/>
</svg>
