<svg width="18" height="18" viewBox="0 0 18 18" fill="none" xmlns="http://www.w3.org/2000/svg">
<path d="M11.2045 6.82049C10.6596 6.32117 9.33143 6.31201 8.75438 7.19612C8.19107 6.26162 6.82172 6.26162 6.26299 6.7701C5.54855 7.42517 5.46153 8.51084 5.96073 9.29876C6.64769 10.3798 7.95751 10.8471 8.7727 11.8228C9.5879 10.8471 10.829 10.4302 11.516 9.34915C12.0152 8.56123 11.919 7.47556 11.2045 6.82049V6.82049Z" fill="#E8505B"/>
<path d="M17.7078 16.4587C17.7078 16.4587 17.6116 16.4495 17.4101 16.4175C17.1903 16.3854 16.8926 16.3396 16.5125 16.2846C15.6973 16.1609 14.534 15.9823 13.0639 15.7578L13.1097 15.7487C12.0747 16.4679 10.6458 17.0817 8.95127 17.1871C7.2705 17.3016 5.33327 16.8618 3.66166 15.6937C1.99463 14.5393 0.643605 12.6107 0.254326 10.3295C-0.153272 8.06648 0.437513 5.50118 2.04043 3.5772C3.6754 1.61658 6.13931 0.530902 8.48414 0.567549C10.8427 0.567549 12.9998 1.61658 14.4149 3.10537C15.8713 4.585 16.5628 6.47233 16.714 8.14894C16.8743 9.84388 16.4621 11.3418 15.9217 12.455V12.4C16.4895 13.6918 16.9384 14.7134 17.2544 15.4234C17.3963 15.7532 17.5108 16.0144 17.5933 16.2022C17.6665 16.3762 17.7078 16.4633 17.7032 16.4633C17.7032 16.4633 17.6895 16.4358 17.6666 16.39C17.6391 16.335 17.607 16.2663 17.5658 16.1838C17.4742 15.9914 17.3505 15.7303 17.1902 15.3959C16.8651 14.7042 16.398 13.7102 15.8072 12.4504L15.7934 12.4229L15.8072 12.3954C16.3247 11.2914 16.714 9.82097 16.5445 8.16269C16.3842 6.52272 15.6927 4.68578 14.2684 3.24738C12.8761 1.80439 10.7786 0.792013 8.48414 0.796594C6.20343 0.764528 3.81279 1.82272 2.22361 3.72379C0.666498 5.5928 0.0894503 8.08481 0.478729 10.2836C0.849689 12.5008 2.15949 14.3836 3.78073 15.5196C5.40654 16.6694 7.29341 17.1092 8.94212 17.0084C10.6 16.9214 12.006 16.3304 13.0364 15.6387L13.0593 15.625H13.0868C14.5294 15.8861 15.6698 16.0876 16.4712 16.2297C16.8559 16.2984 17.1628 16.3533 17.3826 16.3946C17.4788 16.4129 17.5566 16.4266 17.6207 16.4404C17.6757 16.4495 17.7032 16.4587 17.7078 16.4587V16.4587Z" fill="#263238"/>
</svg>
