<svg width="54" height="54" viewBox="0 0 54 54" fill="none" xmlns="http://www.w3.org/2000/svg">
<path fill-rule="evenodd" clip-rule="evenodd" d="M32.9893 32.9893C38.4166 27.562 38.4166 18.7627 32.9893 13.3354C27.562 7.90812 18.7627 7.90812 13.3354 13.3354C7.90812 18.7627 7.90812 27.562 13.3354 32.9893C18.7627 38.4166 27.562 38.4166 32.9893 32.9893ZM35.9373 42.4886C26.944 48.4469 14.7077 47.4642 6.78409 39.5406C-2.26136 30.4951 -2.26136 15.8295 6.78409 6.78409C15.8295 -2.26136 30.4951 -2.26136 39.5406 6.78409C47.4642 14.7077 48.4469 26.944 42.4886 35.9373L52.6432 46.0919C54.4523 47.901 54.4523 50.8341 52.6432 52.6432C50.8341 54.4523 47.901 54.4523 46.0919 52.6432L35.9373 42.4886Z" fill="white"/>
</svg>
