<svg width="34" height="39" viewBox="0 0 34 39" fill="none" xmlns="http://www.w3.org/2000/svg">
<path d="M10.625 4.25521C10.0614 4.25521 9.52091 4.47909 9.1224 4.8776C8.72388 5.27612 8.5 5.81662 8.5 6.38021C8.5 6.94379 8.72388 7.48429 9.1224 7.88281C9.52091 8.28132 10.0614 8.50521 10.625 8.50521C11.1886 8.50521 11.7291 8.28132 12.1276 7.88281C12.5261 7.48429 12.75 6.94379 12.75 6.38021C12.75 5.81662 12.5261 5.27612 12.1276 4.8776C11.7291 4.47909 11.1886 4.25521 10.625 4.25521ZM4.61125 4.25521C5.05028 3.01095 5.86445 1.9335 6.94152 1.17138C8.0186 0.409266 9.30556 0 10.625 0C11.9444 0 13.2314 0.409266 14.3085 1.17138C15.3856 1.9335 16.1997 3.01095 16.6388 4.25521H31.875C32.4386 4.25521 32.9791 4.47909 33.3776 4.8776C33.7761 5.27612 34 5.81662 34 6.38021C34 6.94379 33.7761 7.48429 33.3776 7.88281C32.9791 8.28132 32.4386 8.50521 31.875 8.50521H16.6388C16.1997 9.74946 15.3856 10.8269 14.3085 11.589C13.2314 12.3511 11.9444 12.7604 10.625 12.7604C9.30556 12.7604 8.0186 12.3511 6.94152 11.589C5.86445 10.8269 5.05028 9.74946 4.61125 8.50521H2.125C1.56141 8.50521 1.02091 8.28132 0.622398 7.88281C0.223884 7.48429 0 6.94379 0 6.38021C0 5.81662 0.223884 5.27612 0.622398 4.8776C1.02091 4.47909 1.56141 4.25521 2.125 4.25521H4.61125ZM23.375 17.0052C22.8114 17.0052 22.2709 17.2291 21.8724 17.6276C21.4739 18.0261 21.25 18.5666 21.25 19.1302C21.25 19.6938 21.4739 20.2343 21.8724 20.6328C22.2709 21.0313 22.8114 21.2552 23.375 21.2552C23.9386 21.2552 24.4791 21.0313 24.8776 20.6328C25.2761 20.2343 25.5 19.6938 25.5 19.1302C25.5 18.5666 25.2761 18.0261 24.8776 17.6276C24.4791 17.2291 23.9386 17.0052 23.375 17.0052ZM17.3612 17.0052C17.8003 15.7609 18.6144 14.6835 19.6915 13.9214C20.7686 13.1593 22.0556 12.75 23.375 12.75C24.6944 12.75 25.9814 13.1593 27.0585 13.9214C28.1356 14.6835 28.9497 15.7609 29.3888 17.0052H31.875C32.4386 17.0052 32.9791 17.2291 33.3776 17.6276C33.7761 18.0261 34 18.5666 34 19.1302C34 19.6938 33.7761 20.2343 33.3776 20.6328C32.9791 21.0313 32.4386 21.2552 31.875 21.2552H29.3888C28.9497 22.4995 28.1356 23.5769 27.0585 24.339C25.9814 25.1011 24.6944 25.5104 23.375 25.5104C22.0556 25.5104 20.7686 25.1011 19.6915 24.339C18.6144 23.5769 17.8003 22.4995 17.3612 21.2552H2.125C1.56141 21.2552 1.02091 21.0313 0.622398 20.6328C0.223884 20.2343 0 19.6938 0 19.1302C0 18.5666 0.223884 18.0261 0.622398 17.6276C1.02091 17.2291 1.56141 17.0052 2.125 17.0052H17.3612ZM10.625 29.7552C10.0614 29.7552 9.52091 29.9791 9.1224 30.3776C8.72388 30.7761 8.5 31.3166 8.5 31.8802C8.5 32.4438 8.72388 32.9843 9.1224 33.3828C9.52091 33.7813 10.0614 34.0052 10.625 34.0052C11.1886 34.0052 11.7291 33.7813 12.1276 33.3828C12.5261 32.9843 12.75 32.4438 12.75 31.8802C12.75 31.3166 12.5261 30.7761 12.1276 30.3776C11.7291 29.9791 11.1886 29.7552 10.625 29.7552ZM4.61125 29.7552C5.05028 28.5109 5.86445 27.4335 6.94152 26.6714C8.0186 25.9093 9.30556 25.5 10.625 25.5C11.9444 25.5 13.2314 25.9093 14.3085 26.6714C15.3856 27.4335 16.1997 28.5109 16.6388 29.7552H31.875C32.4386 29.7552 32.9791 29.9791 33.3776 30.3776C33.7761 30.7761 34 31.3166 34 31.8802C34 32.4438 33.7761 32.9843 33.3776 33.3828C32.9791 33.7813 32.4386 34.0052 31.875 34.0052H16.6388C16.1997 35.2495 15.3856 36.3269 14.3085 37.089C13.2314 37.8511 11.9444 38.2604 10.625 38.2604C9.30556 38.2604 8.0186 37.8511 6.94152 37.089C5.86445 36.3269 5.05028 35.2495 4.61125 34.0052H2.125C1.56141 34.0052 1.02091 33.7813 0.622398 33.3828C0.223884 32.9843 0 32.4438 0 31.8802C0 31.3166 0.223884 30.7761 0.622398 30.3776C1.02091 29.9791 1.56141 29.7552 2.125 29.7552H4.61125Z" fill="#1A5D71"/>
</svg>
