<svg width="233" height="293" viewBox="0 0 233 293" fill="none" xmlns="http://www.w3.org/2000/svg">
<path d="M116.489 293L113.805 292.585C52.1872 283.036 8.69229 245.215 6.87165 243.61L0.936523 238.381V41.1493L116.489 0L232.041 41.1493V238.378L226.106 243.608C224.286 245.215 180.784 283.034 119.17 292.583L116.487 292.998L116.489 293ZM115.27 283.142L116.489 283.331L117.708 283.142C176.593 274.016 218.053 237.971 219.788 236.441L222.485 234.063V47.8911L116.489 10.142L10.4927 47.8911V234.066L13.1898 236.443C14.9248 237.973 56.3806 274.016 115.27 283.144V283.142Z" fill="url(#paint0_linear_558_1139)"/>
<defs>
<linearGradient id="paint0_linear_558_1139" x1="116.489" y1="-2.21948" x2="116.489" y2="298.009" gradientUnits="userSpaceOnUse">
<stop stop-color="#00AFFF"/>
<stop offset="1" stop-color="#0068FF"/>
</linearGradient>
</defs>
</svg>
