<svg width="29" height="29" viewBox="0 0 29 29" fill="none" xmlns="http://www.w3.org/2000/svg">
<path fill-rule="evenodd" clip-rule="evenodd" d="M13.6929 25.3436L7.41715 28.7915C6.56944 29.2572 5.52096 28.9166 5.07529 28.0307C4.89782 27.678 4.83658 27.2739 4.90105 26.8811L6.09962 19.5784C6.1961 18.9905 6.0096 18.3907 5.6009 17.9744L0.52368 12.8026C-0.16213 12.104 -0.176163 10.9567 0.492336 10.24C0.758536 9.95463 1.10734 9.7689 1.48474 9.71159L8.50129 8.64614C9.0661 8.56037 9.55437 8.18966 9.80696 7.65481L12.9449 1.01056C13.3687 0.113085 14.4085 -0.255397 15.2673 0.187535C15.6093 0.363912 15.8861 0.653182 16.0549 1.01056L19.1928 7.65481C19.4454 8.18966 19.9337 8.56037 20.4985 8.64614L27.515 9.71159C28.4628 9.85551 29.1195 10.7751 28.9818 11.7655C28.9269 12.1599 28.7492 12.5244 28.4761 12.8026L23.3989 17.9744C22.9902 18.3907 22.8037 18.9905 22.9002 19.5784L24.0987 26.8811C24.2606 27.8676 23.6267 28.8044 22.6827 28.9736C22.3068 29.0409 21.9202 28.9769 21.5826 28.7915L15.3068 25.3436C14.8017 25.066 14.1981 25.066 13.6929 25.3436Z" fill="#00DBDC"/>
</svg>
